<?xml version="1.0" encoding="utf-8"?>
<!-- Generator: Adobe Illustrator 24.2.3, SVG Export Plug-In . SVG Version: 6.00 Build 0)  -->
<svg version="1.1" id="Layer_1" xmlns="http://www.w3.org/2000/svg" xmlns:xlink="http://www.w3.org/1999/xlink" x="0px" y="0px"
	 viewBox="0 0 258.4 203.3" style="enable-background:new 0 0 258.4 203.3;" xml:space="preserve">
<style type="text/css">
	.st0{fill:#FFFFFF;stroke:#000000;stroke-linecap:round;stroke-linejoin:round;}
	.st1{fill:none;stroke:#000000;stroke-width:0.15;stroke-linecap:round;stroke-linejoin:round;}
</style>
<g id="line">
</g>
<g id="water">
</g>
<g id="land">
</g>
<g id="plant">
</g>
<g id="animal">
	<g id="XMLID_114_">
		<path id="XMLID_79_" class="st0" d="M173.3,102.1c2.2-1.8,2.5-2.6,3.1-3.1s1.4-0.7,2.1-1c0.8-0.3,1.5-0.9,2.1-1.7s1-1.9,1.1-2.8
			c0.1-0.9,0-1.7-0.2-2.2c-0.2-0.6-0.3-1-0.4-1.4c-0.1-0.4-0.2-0.7-0.5-1s-1-0.6-1.7-0.7c-0.7-0.1-1.4-0.1-3.2-0.1s-4.6,0.1-6.2,0.1
			c-1.6,0-2,0.1-2.2,0.1c-0.3,0-0.4,0-0.4-0.3c-0.1-0.3,0-0.9-0.1-1.7s-0.3-1.9-0.6-2.6c-0.2-0.8-0.5-1.2-0.7-1.5s-0.4-0.5-0.5-0.8
			s0-0.7,0.4-1.2s1-1.2,1.7-1.8c0.7-0.7,1.4-1.4,2-1.8c0.6-0.4,1.1-0.5,1.8-1.4s1.6-2.4,2.6-3.9c0.9-1.4,1.9-2.7,3-3.9
			s2.2-2.2,2.8-3c0.7-0.8,0.9-1.5,1.3-1.9c0.4-0.4,0.9-0.7,1.4-0.9s0.9-0.4,1.9-1.6c1.1-1.1,2.8-3.1,4.5-4.8
			c1.7-1.7,3.4-2.9,4.4-3.8c1-0.8,1.2-1.2,1.6-1.4c0.3-0.2,0.8-0.2,1.3-0.7c0.5-0.4,1.1-1.2,2.1-2c1-0.7,2.5-1.3,3.7-2
			c1.3-0.7,2.3-1.4,3.3-2.3s2-2,3-2.9s2.1-1.6,2.7-2.3c0.6-0.7,0.9-1.3,1.2-1.7c0.4-0.4,0.9-0.5,1.7-1.1s1.8-1.6,2.5-2.5
			s1-1.5,2.3-2.1c1.4-0.5,3.8-0.9,5.5-1c1.8-0.1,2.9,0,3.9-0.3c0.9-0.3,1.7-1.1,2.7-1.7c1.1-0.6,2.4-1.1,2.7-1.4
			c0.2-0.3-0.7-0.5-1.4-0.8c-0.7-0.3-1.2-0.7-0.9-0.9c0.3-0.2,1.2-0.2,2.2-0.5c1-0.2,2-0.7,2.9-1c0.9-0.4,1.8-0.7,2.1-1
			c0.3-0.4,0.1-0.8,0.1-1.2c0-0.4,0.1-0.7,0.2-1.1s0.2-0.7,0.5-0.9c0.3-0.2,0.9-0.2,1.4-0.2s0.8-0.1,1.3-0.3c0.5-0.2,1-0.5,1.5-0.8
			s1-0.6,1.3-1c0.3-0.4,0.3-0.7,0.4-1.1c0.1-0.3,0.1-0.6,0.4-0.6s0.7,0.3,1.5,0c0.7-0.3,1.8-1.2,2.4-2s0.9-1.4,0.9-1.7
			c0-0.3-0.4-0.3-0.8-0.3s-0.8,0-1-0.1s-0.2-0.2,0.2-0.4c0.4-0.2,1.3-0.4,2.1-0.7c0.8-0.4,1.5-0.9,2.2-1.5s1.4-1.3,1.7-1.6
			c0.2-0.3,0-0.3-0.4-0.4s-0.8-0.2-0.7-0.4c0.1-0.2,0.7-0.4,1.2-0.8c0.5-0.3,1-0.8,1.1-1s-0.1-0.3-0.9-0.3s-2.2,0-6.8,1.2
			C243,5.8,235,8.2,228.6,10s-11.2,3.1-16.7,5c-5.5,1.8-11.6,4.2-16.2,6.6c-4.6,2.4-7.7,4.7-11.5,8.6s-8.4,9.5-12.2,14.2
			s-6.9,8.4-8.9,11s-3,4-4.2,4.6c-1.1,0.6-2.4,0.5-3.2-0.1s-1.1-1.6-1.8-2.2s-1.9-0.9-3-1s-2.2-0.1-3.3,0s-2.3,0.3-3.1,0.4
			c-0.9,0.1-1.4,0.2-1.8,1.1c-0.4,0.9-0.8,2.5-1.2,3.9c-0.4,1.4-0.9,2.7-1.5,3.8s-1.4,2.1-2.4,3.1s-2.5,1.8-5,2.3s-6.1,0.7-13.4-0.2
			c-7.9-1.3-17.3-2.3-23-2.7s-7.8-0.3-9.5-0.4c-1.7-0.1-3-0.4-4.2-0.6c-1.3-0.3-2.5-0.5-3.4-0.4s-1.5,0.5-3.5,0.8
			c-1.9,0.3-5.1,0.6-7.8,0.9c-2.6,0.3-4.7,0.6-7.4,1.1c-2.7,0.5-6.2,1.1-10.9,2.1c-4.7,1-10.7,2.3-16.6,3.5s-11.7,2.4-16.4,3.1
			c-4.7,0.7-8.2,1-10.4,1.3c-2.1,0.3-2.9,0.6-2.9,0.9c-0.1,0.3,0.6,0.6,1.5,1.1s2.1,1.2,2.6,1.8s0.2,1.1,0.3,1.7
			c0.1,0.5,0.4,1.1,1.3,1.5c0.9,0.4,2.3,0.5,3.1,0.8s1.1,0.9,1.5,1.4s0.9,0.9,1.6,1.1c0.8,0.2,1.8,0.1,2.6,0.4
			c0.8,0.3,1.3,0.8,2.2,1.3c0.9,0.4,2.2,0.6,3.3,0.5c1.2-0.1,2.2-0.5,3.1-0.5s1.7,0.4,3.1,0.8c1.4,0.4,3.3,0.9,5.4,0.8
			c2.1-0.2,4.3-1.1,6.1-2c1.9-0.9,3.4-1.8,4.6-2.2s1.9-0.2,3.2,0.2c1.3,0.3,3.1,0.8,4.5,0.8s2.3-0.4,3.5-0.5s2.6,0.1,3.4,0.3
			c0.9,0.2,1.2,0.5,2,0.4c0.8,0,2-0.4,3.1-0.3c1.1,0,2,0.5,2.9,0.9c0.9,0.5,1.8,1,2.6,1c0.8,0,1.5-0.4,2-0.4
			c0.5-0.1,0.8,0.2,1.7,0.4c0.9,0.1,2.4,0.1,3.1,0.1c0.8,0,0.8,0,1.5,0.1c0.8,0.1,2.3,0.3,3.5-0.1c1.2-0.4,2-1.6,2.9-1.7
			c0.9-0.2,1.8,0.6,2.7,1c0.9,0.4,1.8,0.3,2.7,0.3c0.8,0,1.6,0,2.4,0.1c0.8,0.1,1.6,0.3,2.1,0.2s0.6-0.4,1.1-0.4
			c0.4-0.1,1.2,0.1,1.8,0.4c0.6,0.3,1.1,0.6,1.7,0.6c0.6,0,1.3-0.4,1.8-0.5s0.8,0.1,1.5,0.2c0.6,0.1,1.6,0,2.4,0
			c0.8,0,1.4,0,2.1,0.2c0.7,0.2,1.4,0.8,2.2,0.9c0.7,0.1,1.3-0.2,2.1-0.3c0.7-0.2,1.5-0.2,2.3-0.1c0.8,0.1,1.7,0.3,2.3,0.2
			c0.7-0.1,1.1-0.5,1.9-0.3c0.8,0.2,1.8,1,2.7,1.2c0.8,0.2,1.4-0.2,2.4-0.4s2.4-0.2,3.5,0s1.8,0.7,2.5,1c0.7,0.2,1.2,0.2,1.9,0.2
			s1.5,0.1,2.4,0.3s1.8,0.4,2.6,0.4s1.4-0.3,1.9-0.3s0.8,0.3,1.2,0.4c0.4,0.1,0.9,0,1.1,0.2c0.3,0.3,0.3,0.9,0.4,1.8
			c0.1,0.9,0.3,2,0.2,2.8c0,0.8-0.2,1.4-0.4,1.9c-0.1,0.5-0.2,1.1-0.3,1.6s-0.4,0.9-1,1.7s-1.7,1.8-2.9,3.3s-2.4,3.4-3.5,4.7
			c-1.1,1.4-2.2,2.2-3.4,3.1c-1.2,0.9-2.5,2-3.3,2.6s-1.2,0.8-1.4,1s-0.4,0.4-0.5,0.7s-0.1,0.6,0.1,1.1c0.2,0.4,0.7,0.9,1.1,1.2
			c0.4,0.3,0.6,0.5,1,0.6c0.3,0.1,0.7,0.1,0.9,0.1s0.3,0.1,0.3,0.2c0.1,0.1,0.1,0.3,0.1,0.7c0,0.3-0.1,0.8-0.1,1.2s0.2,0.8,0.6,1.2
			c0.4,0.3,1,0.6,1.7,0.8s1.4,0.3,1.9,0.3s0.6-0.1,0.8-0.1s0.3,0,0.4,0.2c0.1,0.2,0.3,0.5,0.7,0.9c0.4,0.3,0.9,0.6,1.7,0.7
			c0.8,0.1,1.8,0,2.6-0.2s1.5-0.4,1.8-0.2s0.3,0.7,0.9,1c0.6,0.3,1.8,0.4,2.8,0.2s1.7-0.6,2.2-0.9c0.5-0.3,0.8-0.5,1.1-0.7
			s0.6-0.4,0.8-0.4s0.2,0.1,0.3,0.3c0.2,0.2,0.6,0.5,1.1,0.7c0.6,0.2,1.3,0.4,1.7,0.6c0.4,0.2,0.3,0.3,0.7,0.3
			c0.4-0.1,1.2-0.4,1.9-0.7s1.3-0.7,1.6-1.1c0.3-0.4,0.2-0.9,0.2-1.2c0-0.3,0.2-0.3,0.3-0.5c0.2-0.2,0.4-0.6,0.7-0.9
			c0.3-0.3,0.6-0.5,0.9-0.8c0.2-0.3,0.4-0.6,0.7-0.6s0.7,0.3,1,0.9c0.3,0.5,0.6,1.3,0.9,2c0.3,0.7,0.7,1.4,1.1,2.2
			c0.4,0.8,0.9,1.7,1.2,2.5s0.5,1.5,0.9,1.9s1.2,0.6,1.8,0.9c0.6,0.3,1,0.6,1.3,0.8s0.5,0.2,0.6,0s0.1-0.5,0-1s-0.2-1-0.4-1.6
			s-0.5-1.1-0.8-1.8c-0.2-0.7-0.3-1.6-0.6-2.5s-0.9-1.9-1.4-2.6c-0.6-0.8-1.1-1.4-1.5-1.8c-0.3-0.4-0.4-0.7-0.2-0.8s0.6-0.1,1-0.2
			c0.4-0.1,0.8-0.3,1.1-0.2s0.5,0.3,0.7,0.4c0.2,0.1,0.4,0.1,1-0.1c0.6-0.2,1.5-0.6,2.1-1.3s0.7-1.6,0.5-2.4c-0.3-0.8-1-1.6-1-2.2
			c-0.1-0.6,0.6-1,0.8-1.3s0.1-0.6,0.1-1.1c0-0.4,0.2-1.1,0.4-1.4c0.2-0.4,0.4-0.4,0.6-0.4c0.1,0.1,0.2,0.4,0.3,0.6
			c0.1,0.3,0.3,0.5,0.4,0.9c0.1,0.3,0.2,0.7,0.3,1.1c0,0.4,0,0.9,0.1,1.4c0.2,0.5,0.6,0.9,1,1.6c0.4,0.7,0.6,1.6,1.2,2.9
			c0.5,1.3,1.3,3.1,1.8,4.2c0.5,1.1,0.7,1.4,0.8,1.5s0.2-0.2,0.4-0.6c0.2-0.5,0.4-1.2,0.5-1.8s0.2-1,0.1-1.8
			c-0.1-0.7-0.3-1.8-0.7-2.7c-0.3-1-0.8-1.9-1.2-2.8c-0.4-0.9-0.8-1.9-1.1-2.6c-0.3-0.7-0.5-1.1-0.7-1.5s-0.4-0.6-0.4-0.8
			s0.1-0.3,0.5-0.4c0.4-0.1,1.1-0.2,1.6-0.4s0.7-0.7,0.7-1.2c0.1-0.5,0-1.2,0.1-1.7c0-0.5,0.1-1,0-1.5s-0.5-1.1-0.8-1.7
			c-0.3-0.7-0.6-1.4-0.8-1.9c-0.3-0.5-0.6-0.8-0.9-1.1c-0.2-0.3-0.4-0.5-0.2-0.6C172.2,102.5,172.6,102.5,173.3,102.1z"/>
		<path id="XMLID_78_" class="st0" d="M82.3,133.4c0.7-0.1,1.6-0.2,3.1-0.3s3.7-0.2,6.2-0.2c2.4,0,5.1,0.1,7.3,0.2
			c2.2,0.1,3.8,0,5.1,0.2c1.2,0.1,2,0.4,2.8,0.8c0.8,0.3,1.7,0.7,2.6,1c0.9,0.2,1.8,0.3,2.7,0.5s1.6,0.4,2.1,0.9
			c0.4,0.4,0.5,1.1,0.6,1.7c0.1,0.6,0.1,1.3,0.2,2.2c0.1,0.9,0.4,2,0.7,3.1c0.4,1.1,0.9,2.2,1.6,3c0.7,0.9,1.5,1.5,2.2,2
			s1.4,0.8,2.1,1c0.7,0.2,1.4,0.2,2,0.3c0.6,0,1,0,2.2-0.2s3.3-0.7,4.5-0.9s1.6,0,1.9,0.2c0.3,0.2,0.4,0.4,0.7,0.6
			c0.2,0.2,0.5,0.3,0.8,0.4c0.3,0.1,0.6,0.1,0.9,0.1c0.3,0,0.7,0,1.1-0.1c0.4,0,0.7,0,1.1,0c0.3,0.1,0.6,0.2,0.7,0.3
			c0.2,0.1,0.2,0.2,0.3,0.3s0.1,0.2,0.2,0.3c0,0.1,0,0.2,0,0.2c-0.1,0.1-0.3,0.1-0.5,0.1s-0.5,0-0.8,0.1s-0.7,0.2-1.1,0.2
			c-0.4,0.1-0.8,0.1-1.2,0.1s-0.7,0.1-1.1,0.2c-0.4,0.2-0.8,0.5-1.4,0.8c-0.6,0.4-1.4,0.8-1.9,1.2c-0.6,0.4-1,0.8-1.2,1
			c-0.2,0.3-0.2,0.5-0.1,0.7c0.1,0.2,0.3,0.5,0.5,0.7c0.2,0.3,0.4,0.5,0.8,1c0.4,0.4,1.1,0.9,1.7,1.4c0.6,0.5,1.2,0.9,2.3,1.3
			c1.1,0.5,2.5,1,4.1,1.3c1.5,0.3,3,0.3,4,0.7c0.9,0.4,1.3,1.3,1.9,2.5c0.5,1.2,1.2,2.8,1.8,4.2s1.2,2.6,1.7,3.8s0.9,2.5,1.7,4.5
			c0.7,1.9,1.8,4.5,2.4,6.4c0.7,1.9,1,3.2,1.2,4.9s0.3,3.9,0.4,5.6c0.1,1.7,0.2,2.9,0.1,3.3c-0.1,0.5-0.4,0.2-0.7-0.3
			s-0.7-1.3-1.1-1.7c-0.4-0.4-0.8-0.5-1.2-0.6c-0.3-0.1-0.6-0.3-0.7-0.6c-0.1-0.3-0.1-0.9-0.4-1.1c-0.3-0.3-1.1-0.3-1.6-0.5
			s-0.8-0.7-1-1.1s-0.2-0.7-0.6-1.3c-0.5-0.6-1.4-1.4-1.9-2.1c-0.6-0.7-0.8-1.4-1.1-1.8c-0.3-0.4-0.7-0.7-1-1.3s-0.4-1.7-0.7-2.6
			c-0.2-0.9-0.6-1.7-0.9-2.4c-0.3-0.7-0.6-1.4-1-2.2c-0.3-0.8-0.7-1.8-1.1-2.4c-0.4-0.6-1-0.9-1.8-1.4s-1.9-1.1-3-1.7
			c-1.2-0.5-2.4-1-3.2-1.4c-0.7-0.4-1-0.9-1.4-1.1c-0.4-0.2-1,0-1.6-0.3c-0.6-0.2-1.1-0.9-2-1.6c-0.9-0.7-2-1.4-2.9-1.9
			c-0.8-0.5-1.4-0.6-2-0.7c-0.6-0.1-1.1,0-1.7,0.2c-0.6,0.2-1.2,0.7-1.7,1.1c-0.5,0.5-0.8,1-1.1,1.8c-0.4,0.7-0.7,1.7-1.1,2.7
			c-0.3,1-0.6,1.9-1.1,2.7c-0.5,0.7-1.3,1.3-1.9,1.6c-0.6,0.3-1.1,0.4-1.5,0.3c-0.4-0.1-0.8-0.3-1.3-0.6s-1-0.6-1.5-1
			s-0.9-0.7-1.2-1.1c-0.3-0.4-0.4-0.7-0.7-1s-0.9-0.5-1.4-0.9c-0.5-0.3-0.9-0.8-1.2-1.3s-0.6-1-0.7-1.6c-0.1-0.6-0.2-1.2,0-1.7
			s0.6-0.7,1.3-1s1.6-0.6,2.4-0.9c0.7-0.3,1.3-0.7,1.9-1c0.6-0.4,1.3-0.7,2-1.1c0.6-0.3,1.2-0.6,1.6-0.9c0.5-0.3,0.9-0.6,1.1-1
			c0.2-0.3,0.2-0.6,0.1-1c-0.1-0.3-0.4-0.7-0.8-1c-0.4-0.4-0.9-0.8-1.7-1.7c-0.7-0.9-1.7-2.2-2.6-3.7c-0.9-1.6-1.8-3.3-2.6-4.9
			c-0.8-1.5-1.5-2.8-2-3.9c-0.5-1-0.8-1.8-1.1-2.4c-0.3-0.6-0.7-1-1.1-1.2c-0.4-0.3-0.8-0.4-1.5-0.5s-1.5-0.2-2.1-0.3
			s-0.8-0.1-1.3,0c-0.4,0.1-1.1,0.2-1.6,0.3s-1,0.1-1.4,0s-0.8-0.3-1.2-0.3s-0.6,0.2-0.9,0.2c-0.3,0-0.5-0.2-0.7-0.4
			s-0.4-0.3-0.7-0.4c-0.3-0.1-0.7-0.1-0.9-0.3s-0.2-0.5-0.3-0.7s-0.4-0.3-0.6-0.4c-0.2-0.1-0.3-0.2-0.3-0.4s-0.1-0.4-0.2-0.6
			c-0.1-0.2-0.4-0.2-0.8-0.4c-0.4-0.1-1.1-0.4-1.3-0.6c-0.3-0.2-0.2-0.5-0.3-0.6c-0.2-0.1-0.6-0.2-1.1-0.3s-1.1-0.1-1.6-0.3
			c-0.4-0.2-0.7-0.5-0.8-0.6c-0.1-0.2,0-0.2,0.3-0.3C81.2,133.6,81.6,133.5,82.3,133.4z"/>
		<path id="XMLID_77_" class="st1" d="M139.9,129.5c2.6-3.2,4.4-6.4,5.4-9.6"/>
		<path id="XMLID_76_" class="st1" d="M89.5,139.4c1.5-0.2,4.1-0.8,7.8-1.6"/>
		<path id="XMLID_75_" class="st1" d="M151.8,184.9c0.9,5.8,1,6.8,0.6,7.1c-0.3,0.3-1-0.2-1.4-0.5s-0.4-0.6-0.4-0.6s0,0.2-0.1,0.6
			c-0.1,0.3-0.3,0.8-0.7,0.7c-0.3-0.1-0.8-0.7-1-1.1s-0.3-0.6-0.4-0.6c-0.1,0-0.4,0.2-0.8,0.3c-0.4,0.1-1,0.1-1.2-0.2
			c-0.3-0.2-0.3-0.7-0.3-1.1c0-0.3,0-0.6-0.1-0.7s-0.2-0.2-0.4-0.3c-0.2-0.1-0.3-0.2-0.6-0.4c-0.3-0.3-0.7-0.6-0.8-1
			c-0.2-0.4-0.2-0.7-0.4-0.8s-0.6-0.1-1-0.3s-0.8-0.7-1.5-2.4"/>
		<path id="XMLID_74_" class="st1" d="M7.3,83.7c1.6,0.6,2.2,0.6,2.9,0.5s1.6-0.4,3.1-0.8c1.5-0.4,3.6-1,7.7-2.1s10.2-2.6,18.6-5.1"
			/>
		<path id="XMLID_73_" class="st1" d="M11.9,87.5c2.7,0,5.7-0.9,8.4-1.9s5-2.2,8.5-3.5s8.2-2.7,17.8-5.5"/>
		<path id="XMLID_72_" class="st1" d="M16.6,90.2c3.6-0.3,7.6-2.2,11.2-3.9s6.8-3.1,9.9-4.6s6.1-3.1,12.3-4.6"/>
		<path id="XMLID_71_" class="st1" d="M24.8,91.8c5-1.8,9.6-4.6,12.9-6.5c3.2-1.9,5.1-2.8,7.5-3.9c2.4-1.1,5.5-2.4,8.5-3.4"/>
		<path id="XMLID_70_" class="st1" d="M66.5,77.3c-5.2,3.1-9,6.4-11.4,9.8"/>
		<path id="XMLID_69_" class="st1" d="M70.5,77c-3.3,3.8-6,7.5-8,10.9"/>
		<path id="XMLID_68_" class="st1" d="M77.4,77.1c-1.5,1.8-2.6,4.1-3.1,7.1"/>
		<path id="XMLID_67_" class="st1" d="M74.6,76.6c-2.3,2.8-4,6.5-5.3,11"/>
		<path id="XMLID_66_" class="st1" d="M83.2,77c-1.5,3.6-2.3,6.7-2.3,9.2"/>
		<path id="XMLID_65_" class="st1" d="M140.6,96.1c-0.9-2.5-1.8-4.7-3.1-6.5c-1.2-1.8-2.7-3.3-4.2-4.8c-1.5-1.6-2.9-3.2-7.5-4.4"/>
		<path id="XMLID_64_" class="st1" d="M139.5,93.3c-1.3-5.5-2-8.5-2.2-12.2"/>
		<path id="XMLID_63_" class="st1" d="M142.6,59.8c-0.3,0.4-0.3,0.7-0.2,0.9s0.3,0.3,0.5,0c0.2-0.2,0.6-0.7,0.4-0.9"/>
		<path id="XMLID_62_" class="st1" d="M142.4,60.8c-0.1-0.6,0.1-0.7,0.3-0.8c0.1,0,0.2,0,0.2,0c0.1,0,0.1,0.1,0.3,0.5"/>
		<path id="XMLID_61_" class="st1" d="M143.2,63.9c1.3-1.8,1.6-2.3,1.9-2.7c0.2-0.4,0.4-0.7,0.6-1c0.2-0.3,0.4-0.5,0.6-0.7
			c0.2-0.1,0.4-0.2,0.7,0s0.6,0.6,0.9,0.9c0.3,0.4,0.5,0.7,0.7,1s0.4,0.4,0.6,0.6c0.2,0.1,0.5,0.3,0.8,0.5s0.6,0.4,1,0.7
			c0.3,0.3,0.7,0.8,1.1,1.4"/>
		<path id="XMLID_60_" class="st1" d="M145.6,60.2c-0.6,1.9-0.4,2.7-0.3,3.2c0.1,0.6,0.3,0.8,0.5,1.2c0.2,0.3,0.5,0.7,0.7,0.7
			s0.4-0.4,0.5-0.7s0.2-0.7,0.2-1.2c0.1-0.5,0.1-1.2,0.1-2.4"/>
		<path id="XMLID_59_" class="st1" d="M146.8,64.9c1-1.6,1.2-1.8,1.5-2c0.3-0.1,0.6-0.1,1-0.1c0.5,0,1.1,0,2,0.9"/>
		<path id="XMLID_58_" class="st1" d="M145.3,63.5c-0.4-0.8-0.7-0.9-1.2-0.6"/>
		<path id="XMLID_57_" class="st1" d="M150.9,59.8c1-0.7,1.6-0.6,2-0.3c0.4,0.3,0.6,0.8,0.7,1.4"/>
		<path id="XMLID_56_" class="st1" d="M151.9,59.4c-0.5,0.9-0.5,1.1-0.4,1.4s0.4,0.6,0.6,0.6c0.2,0,0.3-0.2,0.5-0.6
			c0.2-0.4,0.5-1,0-1.4"/>
		<path id="XMLID_55_" class="st1" d="M152,60.5c0-0.2,0-0.4,0.1-0.5c0.1-0.1,0.2-0.2,0.3-0.2s0.2,0,0.3,0.2
			c0.1,0.1,0.1,0.4,0.1,0.5c0,0.2-0.1,0.3-0.2,0.4c-0.1,0.1-0.3,0.1-0.5,0C152,60.8,152,60.6,152,60.5z"/>
		<path id="XMLID_54_" class="st1" d="M160.8,60.3c-1.9,1.7-2.2,3.2-1.9,5s1.1,3.9,2,5.4c0.8,1.6,1.7,2.7,2.3,4.3
			c0.7,1.6,1.2,3.8,1.8,6.2"/>
		<path id="XMLID_53_" class="st1" d="M160.8,60.3c7.6-9.4,11.8-14.6,15.9-19.6c4.1-5.1,8.3-10.1,12.3-13.6c4-3.6,8-5.8,12.6-7.6
			c4.6-1.8,9.9-3.1,15.4-4.6s11.3-3.1,36.5-11.5"/>
		<path id="XMLID_52_" class="st1" d="M253.3,5.7c-5.4,1.2-21.9,7.4-33.9,10.5"/>
		<path id="XMLID_51_" class="st1" d="M247.9,10.4c-6.4,1.1-12.5,2.1-18.4,2.8"/>
		<path id="XMLID_50_" class="st1" d="M245,14.6c-8-0.2-20.7,2.2-31.7,5.2"/>
		<path id="XMLID_49_" class="st1" d="M238.3,19.3c-9.9,0.5-20.1,0.7-28.4,3.8"/>
		<path id="XMLID_48_" class="st1" d="M230.7,24.6c-5.3,0.4-7.8,0.2-10.3-0.1c-2.5-0.4-5-1-6.5-1"/>
		<path id="XMLID_47_" class="st1" d="M218.8,30.3c-2.9-0.7-6.3-1.9-10.3-3.6"/>
		<path id="XMLID_46_" class="st1" d="M204.4,28.5c2.9,2.5,5.1,4.1,6.6,4.9"/>
		<path id="XMLID_45_" class="st1" d="M200.7,30.1c4.2,1.9,6.6,3.5,7.3,4.9"/>
		<path id="XMLID_44_" class="st1" d="M200.1,31.6c3.2,3.9,3.9,5.9,4.2,7.4"/>
		<path id="XMLID_43_" class="st1" d="M196.9,33.5c2.9,2.7,4.4,5.6,4.7,8.8"/>
		<path id="XMLID_42_" class="st1" d="M194.4,34.9c2.7,3.7,4.1,7.6,4.3,11.8"/>
		<path id="XMLID_41_" class="st1" d="M192.3,40.7c1.6,1.2,2.6,2.8,2.9,4.7"/>
		<path id="XMLID_40_" class="st1" d="M127.8,124.2c5.3-3.2,10.2-11.5,14.4-15.7"/>
		<path id="XMLID_39_" class="st1" d="M132.7,128.2c3.3-2.4,6-6.2,8.1-11.3"/>
		<path id="XMLID_38_" class="st1" d="M86.3,136.6c2.7-0.3,9.2-2,12.2-1.4"/>
		<path id="XMLID_37_" class="st1" d="M166.8,88.1c0.5,5,0,7,0,8.4c0.1,1.3,0.7,2.1,1.1,3c0.3,1,0.3,2.2-0.5,5.3"/>
		<path id="XMLID_36_" class="st1" d="M165.7,100.8c1.6,3.9,1.3,4.4,1.7,5.6c0.4,1.2,1.4,3,4.7,7.3"/>
		<path id="XMLID_35_" class="st1" d="M163.4,101.3c0.3,1.9,1.2,3.1,2.3,4.5s2.2,3.1,2.8,4.5s0.7,2.5,1.1,4.7"/>
		<path id="XMLID_34_" class="st1" d="M152.2,108.1c0.8,5.3,1.6,6.1,2.3,7.1s1.3,2.3,1.9,3.3c0.6,1,1.2,1.7,1.5,2.4s0.4,1.3,0.5,2.2
			c0,0.9,0,1.9,1,3.4"/>
		<path id="XMLID_33_" class="st1" d="M153.4,108.3c0.5,0.7,1,1.1,1.4,1.3s0.7,0.4,0.9,0.9s0.3,1.3,0.3,2c0,0.8,0.1,1.5,0.3,2.3
			s0.6,1.7,1.2,3c0.6,1.3,1.6,3.1,4.3,6.4"/>
		<path id="XMLID_32_" class="st1" d="M144,106.7c1.4,4.7,2.1,6.2,2.9,7.4c0.7,1.2,1.5,2.1,2.1,2.8c0.5,0.7,0.8,1.3,1.2,1.7
			c0.5,0.4,1.2,0.7,0.7,2.9"/>
		<line id="XMLID_31_" class="st1" x1="152.4" y1="117.4" x2="154.4" y2="115.1"/>
		<path id="XMLID_30_" class="st1" d="M156.1,113.9c1.6-1.9,3.4-2.8,4.2-3.9c0.9-1.1,0.9-2.4,1.8-5.2"/>
		<path id="XMLID_29_" class="st1" d="M148.3,122.2c0.3,2.7,0.1,4.9-0.6,6.5"/>
		<path id="XMLID_28_" class="st1" d="M153.5,119.5c1.4,3.1,2.1,5.8,1.9,8.1"/>
		<path id="XMLID_27_" class="st1" d="M181.3,94.8c-2.5,0.3-6.2,0.2-11-0.2"/>
		<path id="XMLID_26_" class="st1" d="M177,98.5c-1.1,1-4.3,1-9.6,0"/>
		<path id="XMLID_25_" class="st1" d="M173.2,110.2c-1.7-2.4-3.2-4.8-3.9-5"/>
		<path id="XMLID_24_" class="st1" d="M167.2,118c-0.9-2.2-2-4.5-3.6-6.7"/>
		<path id="XMLID_23_" class="st1" d="M164.2,123.4c-1-3-1.2-7.4-2.6-9.6"/>
		<path id="XMLID_22_" class="st1" d="M31.7,75.4c-10.4,3-10.9,3.6-10.9,4s0.5,0.7,2.6,1.1"/>
		<path id="XMLID_21_" class="st1" d="M21.3,81.2c-3.1,0.8-3.5,2-3.1,2.9s1.7,1.6,3.4,0.9"/>
		<path id="XMLID_20_" class="st1" d="M21.7,85c-3.3,1.3-2.2,3.1,3.8,2.3"/>
		<path id="XMLID_19_" class="st1" d="M23.3,88.3c-0.1,1.3,1.6,3.5,4.3,2.5"/>
		<path id="XMLID_18_" class="st1" d="M32.4,88.4c-1.9,1-1.3,2.3-0.7,3c0.6,0.7,1.2,0.8,1.9,1.1c0.7,0.3,1.5,0.7,4.9-0.2"/>
		<path id="XMLID_17_" class="st1" d="M229.5,11.1c12.3-3,14.3-3.1,14.9-2.9s-0.3,0.8-0.9,1.1c-0.6,0.4-0.9,0.5-0.9,0.8
			s0.2,0.7,0.2,1c0,0.4-0.1,0.8-0.3,1.1c-0.2,0.3-0.5,0.6-0.7,0.8c-0.1,0.3-0.1,0.5-0.1,0.8s-0.1,0.5-0.3,0.7
			c-0.1,0.3-0.3,0.5-0.2,0.8c0.1,0.3,0.4,0.5,0.6,1.1c0.2,0.5,0.1,1.4-2.2,1.9"/>
		<path id="XMLID_16_" class="st1" d="M235.6,19.5c0.8,2-0.3,3.5-3.3,4.6"/>
		<path id="XMLID_15_" class="st1" d="M83.9,135c3-0.3,6.2-0.6,8.7-0.8s4.1-0.4,6.5-0.1"/>
		<path id="XMLID_14_" class="st1" d="M87.8,138.2c2-0.2,7.2-1.8,8.3-1.9"/>
		<path id="XMLID_13_" class="st1" d="M125.2,149.6c-4.5,1.5-9.8,5.9-11.8,9.3"/>
		<path id="XMLID_12_" class="st1" d="M112.7,161.7c-1.7,4-3.9,7.1-4.9,8"/>
		<path id="XMLID_11_" class="st1" d="M117.8,163.5c-1.9,4.3-4.1,4.4-5.5,4.7s-1.9,0.8-2.5,1.3s-1.4,1.1-2,1.3s-1,0.1,0-1.1"/>
		<path id="XMLID_10_" class="st1" d="M118.2,165.4c4.6-2.5,9-5.7,10.2-9.9"/>
		<path id="XMLID_9_" class="st1" d="M131.1,149.2c0.5,0.2,0.4,0.4,0.3,0.5c-0.1,0.1-0.3,0.2-0.4,0.2c-0.1,0-0.2-0.1-0.3-0.3
			c0-0.1,0-0.2,0.2-0.3"/>
		<path id="XMLID_8_" class="st1" d="M94.4,133c-4.8,0.5-5.5,0.7-6,0.9s-0.7,0.5-0.6,0.7s0.4,0.3,0.5,0.4c0.1,0.1-0.2,0.2-0.3,0.3
			c-0.1,0.1-0.1,0.3-0.1,0.5s0.1,0.3,0.2,0.4c0.1,0.1,0.3,0,0.4,0.1c0.1,0.1,0,0.2-0.1,0.4s-0.2,0.3-0.2,0.6c0,0.2,0.2,0.5,0.4,0.7
			c0.2,0.1,0.6,0.1,0.7,0.1c0.1,0,0,0.2-0.1,0.4s-0.1,0.4,0.4,1"/>
		<path id="XMLID_7_" class="st1" d="M150.6,194.6c0.4-3.4-0.3-6.9-1.5-12"/>
		<path id="XMLID_6_" class="st1" d="M149,192.8c-0.7-3.4-0.5-6.6-1.2-9.5"/>
		<path id="XMLID_5_" class="st1" d="M146.1,190.8c-0.2-3.1-0.2-4.1-0.1-5.5c0.1-1.4,0.1-3.1-0.5-3.8"/>
		<path id="XMLID_4_" class="st1" d="M144.1,188.2c-0.3-1.4,0.1-4.3,0.1-6.1"/>
		<path id="XMLID_3_" class="st1" d="M134.7,149.9c-0.8,0.6-1,0.7-1.3,0.7s-0.6-0.1-0.8,0c-0.1,0.1,0,0.3,0.2,0.3s0.4-0.1,0.7,0
			c0.3,0.2,0.6,0.6,1.4,0.6"/>
		<path id="XMLID_2_" class="st1" d="M137.8,151c-0.7-1-1.9-0.6-2.9-0.5c-1,0.2-1.9,0.2-2.3,0.2"/>
	</g>
</g>
</svg>
