<?xml version="1.0" encoding="utf-8"?>
<!-- Generator: Adobe Illustrator 24.2.3, SVG Export Plug-In . SVG Version: 6.00 Build 0)  -->
<svg version="1.1" id="Layer_1" xmlns="http://www.w3.org/2000/svg" xmlns:xlink="http://www.w3.org/1999/xlink" x="0px" y="0px"
	 viewBox="0 0 315.3 266.7" style="enable-background:new 0 0 315.3 266.7;" xml:space="preserve">
<style type="text/css">
	.st0{fill:none;stroke:#000000;stroke-width:0.5;stroke-linecap:round;stroke-linejoin:round;}
</style>
<g id="line">
</g>
<g id="water">
</g>
<g id="land">
</g>
<g id="plant">
</g>
<g>
	<path class="st0" d="M166.9,165.2c-1.4-3-4.8,5.3-4.5,7.6c0.8,5.5,6.7,10.3,11,13.2c3.1,2.1,8.6,1.3,11.3,3.5
		c3.1,2.5,3.4,10.4,5.6,14.3c1.9,3.3,3.7,6.9,5.6,10c3,4.7,8.5,7.2,11.3,12.4c2.8,5.3,6.8,13.2,7.2,19.3c0.1,2.1,0.3,4.2,0.4,6.3
		c0,0.2,0.4,4.2,0.8,3.7c2.2-2.2,2.7-12.5,3.7-15.3c3.9-12.3-1-16.4-1.4-27.6c-0.4-10.3,3.1-18.1-0.6-28.4
		c-0.7-2.1,0.2-13.5-0.1-13.9c-1.4-1.9-4.9-3-6.8-4.4c-7.7-5.8-14-3.3-21.1,3.8c-0.5,0.5-1-0.7-1.1-0.8c-2.9-2.2-9-6.2-12.7-7.2
		c-2.5-0.7-6.5,0.1-8,2.5C166.9,165.3,167.5,166.5,166.9,165.2z"/>
	<path class="st0" d="M190.4,170.7c1.9-0.8,3.4,4.7,3.9,6.3c3,10,3.6,19.5,9.8,28.4"/>
	<path class="st0" d="M173.8,214.9c0-4.1-0.4-13.7-2.9-17.2c-1.6-2.3-6.5-4.8-7.3-7.4c-1.1-3.8-0.5-9.5-4.4-12.2
		c-3.9-2.8-11-1.2-15.4-3.5c-2.2-1.1-2.8-3.2-4.7-4.7c-6.5-5.3-15.6-4.9-23.3-4.1c-2.9,0.3-5.9,7.7-7.6,9.8c-2.5,3-6.4,0.2-9.2,2.6
		C86,189.7,88.2,204.5,81,218.7c-4.5,8.7-11.7,8.5-14.3,19.8c-1.7,7.4,3,17.5,0.9,26.2c-0.2,0.7,0.4-1.5,0.7-2.2
		c1.2-2.3,3.3-4.1,4.7-6.4c3.4-5.9,0.4-15,6.7-19.5c7.7-5.5,16.8-6.5,23.3-14.3c2.3-2.7,0.8-5.5,1.7-8.6c1.2-3.9,7.8-7.4,10.5-10
		c7.7-7.7,1.9-17.4,16.4-20.8c4.7-1.1,21.4-0.2,24.6,4.2c1.9,2.7,2.8,6.5,5,8.9c1.2,1.4,3.2,1.3,4.4,2.8c3,3.7,3.3,8,4.5,12.4
		c0.2,0.8,0.3,5,0.7,6.3l2.2,0.1l2,0.3l3.4-0.3c-0.3-1.7,0.2-4.7,0.2-6.3c-0.2-7.4,0.2-15.6,4.7-21.8"/>
	<path class="st0" d="M179.5,209.6c0.4-4,3-10.9,6.8-13.2"/>
	<path class="st0" d="M217.7,178.3c-1-0.3-0.4-0.1,1.1-0.1c2.4-0.1,5.3-0.7,7.7,0c3,0.8,6.6,4.8,9.2,6.6c2.2,1.5,3.7,3.8,6.2,5.1
		c3.4,1.9,7.6,0.8,11.3,1.4c4.1,0.6,7.9,3.8,11.6,5.6c3.3,1.5,6.3,4.2,9,6.5c0.4,0.3,3.1,4.3,3.3,4.2c0.3-0.2-2.6-6.7-2.7-6.9
		c-4.7-9-13-5.7-19.4-11.6c-5.2-4.8-6.2-12.9-10.8-18c-4.5-5-6.4-2.5-11.7-3.9c-5.7-1.5-14.2-8.9-16.8,1.8"/>
	<path class="st0" d="M249,177.5c-0.9-0.5,1.1,1.8,2,2.4c1.4,0.9,1.5,1,3,1.4c3.8,0.9,7.2,2.2,11.1,2.7c10.4,1.4,6.3,11.6,10.1,19.2
		"/>
	<path class="st0" d="M154,174.6c-6.9-3.5-11.1-15.8-15.6-22c-3.2-4.4-33.3-5-39.6-3.7c-6.8,1.4-12.3,7.1-19.2,9
		c-5.5,1.5-10.3-0.4-15.3,3.1c-4,2.8-4.6,7.6-8.3,10.4c-3,2.2-4.7,4.6-8.4,6c-1.4,0.5-2.6,1.3-3.9,2c-0.4,0.2-1.4,0.3-1.1,0.6
		c1.3,1.3,6.1-4.8,6.5-5.4c5-7.9,6.7-18,11.8-25.5c8.1-12.1,27.2-2,34.6-9.4"/>
	<path class="st0" d="M65.1,154.3c6.8-3.4,15.9-3.8,22.4-7.6c3.9-2.3,5.9-6.2,9.3-8.5c9.7-6.5,25-5.1,35-0.2
		c2.3,1.2,6.9,1.2,8.7,2.9c6.1,6.1,3.7,16.7,9.4,23.4c3.7,4.4,9.3,4.9,12.2,10.7"/>
	<path class="st0" d="M168.1,183.5c1.2,3.6,3.1,6.8,4.5,10.4"/>
	<path class="st0" d="M183.5,164.8c-0.4,0.2-1-0.3-1-0.7c2.2-10,6.2-20.1,8.4-30.4c2.5-11.9,18.8-26.5,30.2-29.1
		c10.5-2.4,20.1,0.8,30.6-2.7c6.4-2.1,12.9-6.7,18.4-10.6c1.9-1.4,3.7-2.8,5.7-4c0.8-0.5,3.4-1.3,2.5-1.3c-4.2,0-5.5,22.2-6.8,24.9
		c-2.9,5.9-15.9,11.3-21.3,13.9c-10.9,5.1-18.7,12.8-29.1,18.8c-7,4-15.6,1.3-22.4,5.1C192.7,152.1,189.6,162.1,183.5,164.8z"/>
	<path class="st0" d="M183.9,162.8c7.3-11.4,18.3-33.1,29.6-40.8c12.4-8.5,31.8-7.8,46-15.4"/>
	<path class="st0" d="M176.9,162c-0.7-6.8,3.5-13.1,3.8-19.9c0.8-20.9-2.6-48.9,12.3-65.9c2.7-3.1,8.9-8.1,12.7-9.7
		c3.4-1.4,7-0.2,10.3-1.9c9.1-4.7,14.9-13.1,22.4-19.6c4.5-3.8,9.9-8.2,15.6-10.1c6.9-2.3,14-0.6,21.1-0.2
		c10.9,0.7,30.9-6.7,34.6,8.7c0.8,3.2,0.1,6.8,0.8,10.1c0.3,1.4,1.2,5,0,4.2c-2-1.3-3.1-6.5-4-8.6c-3.7-8.8-9.4-11.5-18.4-10.1
		c-4.1,0.6-7,3.1-10.8,4.4c-10,3.4-19.6,4.2-28.1,11.4c-5.4,4.6-8.7,11.4-14.1,16c-5,4.2-12.5,4.7-17.7,8.9
		c-8.6,7.2-5.3,13.5-9.3,20.7c-4.4,7.9-12.5,13.2-17.5,20.7c-2.2,3.2-3.8,10-5.1,13.9c-1.6,4.4-1.4,8.5-2.5,12.7
		c-1.1,4.3-3.7,8.1-4.9,12.3C177.3,162.7,177.1,163.7,176.9,162z"/>
	<path class="st0" d="M181.5,133c-1,3,1.6-5.9,2.7-8.7c3.1-8.2,6.2-22.2,13.5-29.4c2.7-2.7,6.4-3.9,8.9-6.8
		c4.5-5.4,6.5-12.7,12.2-17.3c3.5-2.8,7.7-2.8,11.4-6.3c9.9-9.4,18-18.6,31.7-22.2c5.7-1.5,13-5.3,18.8-3.8"/>
	<path class="st0" d="M162.6,164.7c-4.6-9.9-13.2-26-23.6-31.6c-7.6-4.1-18.3-5.4-26.9-5.4c-3.6,0-7.9,1.7-11.3,0.2
		c-0.8-0.3-5.1-3.5-6.8-4c-6.6-1.9-14.1-1.3-20-5.9c-16.8-13-24.8-42.2-47.6-45.7c-7.9-1.2-12.1,1.2-17.4,6.6
		c-0.5,0.5-4,7.2-4.5,7.1c-0.9-0.3,0.2-2,0.7-2.8c2.1-3.7,5-7.5,7.8-10.6c2.2-2.5,26.8-10.7,29-9.4c9.2,5.2,24.3,3.4,31.8,8.5
		c7.2,4.9,11.1,14.2,17.2,19.8c7.9,7.3,17.1,10.1,23.6,19.1c2.7,3.8,10.9,0.8,13.7,6.4"/>
	<path class="st0" d="M75.6,104.1c11.7,7.3,27.7,8.2,41,9.7c25,2.8,42.6,24.4,51.6,46.9"/>
	<path class="st0" d="M173,160.5c-3.7,2.4-13.1-24.7-16.7-30.1c-6-8.8-15.9-14.9-20.5-24.8c-11.6-25.1-8.5-50.6-8.5-77.1
		c0-5.3-10.7-16.1-6.6-21c1.2-1.4,8,13,9.2,14.6c5.7,7.5,8.5,16.7,14.2,24.3c10.8,14.6,24.9,29.5,28.8,47.9
		c2.2,10.3-0.8,20.7,0.9,30.9C174.9,132.4,179.8,156.2,173,160.5z"/>
	<path class="st0" d="M138.5,54.6c8.4,21,14.1,42.6,22.2,63.7c4.7,12.4,11.8,25.5,11.8,39.1"/>
</g>
</svg>
