<?xml version="1.0" encoding="utf-8"?>
<!-- Generator: Adobe Illustrator 24.2.3, SVG Export Plug-In . SVG Version: 6.00 Build 0)  -->
<svg version="1.1" id="Layer_1" xmlns="http://www.w3.org/2000/svg" xmlns:xlink="http://www.w3.org/1999/xlink" x="0px" y="0px"
	 viewBox="0 0 237.6 78.6" style="enable-background:new 0 0 237.6 78.6;" xml:space="preserve">
<style type="text/css">
	.st0{opacity:0.7;}
	.st1{opacity:0.7;fill:#FFFFFF;}
</style>
<path class="st0" d="M116.1,71c-2.6,2.3-5.7,3.7-9.1,4.5c-1.5,0.3-1.5,0.3-1.8-1.2c-0.6-3.5,0.8-6.5,2.4-9.4c0.3-0.5,1-0.9,1.6-1.4
	c-1.8-0.1-3.5-0.1-5.1-0.4c-4.4-0.8-8.8-1.7-13.1-2.8c-3.2-0.8-6.3-1.8-9.5-2.7c-0.3-0.1-0.8,0-1.1,0.2c-1.6,0.6-3.3,1.3-4.9,2
	c-1,0.5-1.8,0.2-2.6-0.5c-2.3-2-4.9-3.7-7.9-4.4c-1.8-0.4-3.8-0.5-5.7-0.7C58.7,54.1,58,54.1,57,54c1.1-0.9,1.9-1.6,2.9-2.5
	c-4.9-1-9.3-1.8-13.9-1.1c-0.7,0.1-1.4,0.2-2,0.2c-3.7-0.3-6.6,1.7-9.9,3c-8.5,3.2-16.8,7.1-25.6,9.3c-2.1,0.5-4.1,0.7-6.1-0.7
	c1.8-1.9,3.6-3.7,5.3-5.5c2.8-2.9,5.5-5.9,8.5-8.6c1.3-1.2,3.2-2,4.8-2.9c1.3-0.7,2.6-1.3,3.9-2c-1.1-1.4-2.1-2.6-3.1-3.9
	c-2.4-2.9-3.5-6.4-4.8-9.9c-1.9-4.9-4.4-9.5-7.9-13.5C9,15.8,9,15.6,8.7,15.2c1.3,0.2,2.4,0.3,3.4,0.6c3.6,0.9,6.7,2.9,9.7,4.9
	c4.3,3,8.5,6.2,12.8,9.2c2.4,1.7,4.9,3.1,7.8,3.7c2.7,0.6,5.3-0.1,7.8-0.9c12.2-3.7,24.5-6.8,37-9.2c4.4-0.8,8.7-1.7,13-2.5
	c0.2,0,0.4-0.1,0.6-0.4c-1.7-0.2-3.3-0.3-5.2-0.5c1.7-0.9,3.4-1.5,4.7-2.5c2.7-1.9,5.3-4,7.8-6.1c0.7-0.6,1.1-1.7,1.6-2.6
	c1.4-2.5,2.7-5.1,4.1-7.7c2.7,1.3,4.9,3,6.7,5.1c2.7,3.2,5.3,6.6,8.7,9.1l0.1,0.1c1.6,1.3,3.1,2.1,5.4,1.8c3-0.3,6.1,0,9.2,0.1
	c3.5,0,7-0.1,10.5,0.1c8.8,0.6,17.6,1.2,26.2,2.8c10.1,1.9,20.1,4.4,29.8,7.8c6.3,2.2,12.2,5.1,17.9,8.5c1.2,0.7,1.9,1.7,1.9,3.1
	c0,0.6,0.2,1,0.9,1.2c1.9,0.7,2.3,2,1,3.5c-1,1.2-2.4,2.1-3.7,3c-5.5,3.6-11.4,6.2-17.8,7.7c-1.9,0.5-3.7,1.4-5.7,1.9
	c-2.5,0.6-5.1,0.8-7.5,1.6c-3.4,1.1-6.8,2.4-10.1,3.7c-5,1.9-10.1,3-15.4,3.5c-11.6,1.2-23.2,2.5-34.8,2c-4.2-0.2-8.3-0.9-12.5-1.4
	c-0.8-0.1-1.4-0.1-2,0.7c-1.2,1.5-2.6,2.8-4.1,4C117.5,72.6,117.4,72.5,116.1,71z M218.1,41.3c1.9-1.9,1.2-4.2,0.2-5.6
	c-0.9-1.3-4.5-2.1-5.5-1.2c-1.8,1.5-3.1,3.8-1.8,5.7c1.2,1.7,3.7,3.3,5.7,2C217.2,41.9,217.6,41.6,218.1,41.3z M187.5,57.7
	c-1.5,0.1-3.1,0.2-4.6,0.5c-2.4,0.3-4.7,0.8-7.1,1.2c0,0-0.1-0.1-0.2-0.2c0.2-0.2,0.4-0.4,0.8-0.7c-1.1,0.3-1.9,0.4-2.7,0.6
	c0-0.1-0.1-0.2-0.1-0.3c0.9-0.4,1.8-0.7,2.7-1.1c0,0,0,0,0-0.1c-1.4,0.4-2.8,0.8-4.2,1.1c0-0.1-0.1-0.2-0.1-0.3
	c1.1-0.4,2.2-0.8,3.3-1.2c0-0.1,0-0.1-0.1-0.2c-2.2,0.7-4.4,1.4-6.5,2.2c0-0.1-0.1-0.1-0.1-0.2c0.2-0.2,0.4-0.4,0.7-0.8
	c-1.6,0.5-3,0.9-4.4,1.3c-0.1-0.1-0.1-0.2-0.2-0.3c0.3-0.2,0.5-0.4,0.8-0.7c0-0.1-0.1-0.1-0.1-0.2c-1.2,0.6-2.5,1.1-3.7,1.7
	c0,0,0,0.1,0.1,0.1c0.6-0.1,1.1-0.3,1.9-0.5c-0.3,0.5-0.5,0.8-0.8,1.3c1-0.3,1.7-0.6,2.5-0.9c0.1,0.1,0.1,0.2,0.2,0.3
	c-0.4,0.2-0.7,0.5-1.1,0.7l0.1,0.1c1-0.4,2-0.8,3.1-1.1c0,0.1,0.1,0.1,0.1,0.2c-0.6,0.4-1.1,0.8-1.7,1.2c0,0.1,0.1,0.1,0.1,0.2
	c0.5-0.1,1-0.2,1.6-0.4c-0.2,0.4-0.3,0.6-0.4,0.9c0.8-0.3,1.6-0.6,2.3-0.8c0,0.1,0.1,0.2,0.1,0.3c-0.2,0.2-0.4,0.4-0.6,0.7
	c0.8-0.2,1.5-0.4,2.5-0.7c-0.5,0.5-0.7,0.8-1.1,1.2c1.2-0.4,2.1-0.7,3-1c0,0.1,0.1,0.2,0.1,0.2c-0.2,0.2-0.4,0.5-0.6,0.8
	c1.8-0.7,3.5-1.3,5.1-1.9c0,0.1,0.1,0.3,0.1,0.4c-1.1,0.5-2.2,1-3.3,1.5c0,0.1,0.1,0.2,0.1,0.3c0.8-0.3,1.6-0.6,2.4-0.9
	c0,0.1,0.1,0.2,0.1,0.2c-0.3,0.3-0.6,0.5-1,0.8c0,0.1,0,0.1,0.1,0.2c2.2-0.9,4.4-1.8,6.6-2.8c0,0.1,0.1,0.2,0.1,0.3
	c-0.7,0.4-1.5,0.9-2.2,1.3c0,0.1,0.1,0.1,0.1,0.2c1.3-0.4,2.6-0.8,3.8-1.2c0.1,0.1,0.1,0.3,0.2,0.4c-1.9,0.8-3.8,1.5-5.6,2.3
	c1.7-0.3,3.4-0.7,5.1-1.3c3.1-1.1,6.2-2.4,9.3-3.6c2.1-0.6,4.3-1.4,6.5-1.7c2.9-0.4,5.6-1.1,8.3-2.1c1.7-0.7,3.4-1.3,5.1-1.7
	c5.8-1.4,11-4,15.8-7.5c0.2-0.1,0.3-0.2,0.5-0.3c0.1-0.1,0.3-0.3,0.4-0.4c-4.4,2.7-8.6,5.5-13.5,7c-0.5,0.1-1.3,0.6-1.4,0.4
	c-0.9-0.9-1.5,0.1-2.1,0.3c-1.3,0.4-2.6,0.9-3.9,1.4c0-0.1-0.1-0.2-0.1-0.4c1-0.5,2-1,3-1.5c-0.3-0.1-0.6-0.1-0.9-0.2
	c0.4-0.3,0.7-0.5,1-0.8c-0.1,0-0.2,0-0.3-0.1c0-0.8-0.2-1.6,0-2.3c0.3-0.9,0.8-1.9,1.4-2.6c1-1.1,0.8-2.2,0.1-3.4
	c-0.2,0.5-0.5,0.9-0.8,1.7c-0.2-0.9-0.3-1.4-0.4-1.9c-0.1,0-0.1,0-0.2,0c-0.1,0.9-0.3,1.8-0.4,2.6c-0.1,0-0.3,0-0.4,0
	c-0.1-1.3-0.3-2.6-0.4-3.8c-0.1,0-0.3,0-0.4,0c0,1.3,0,2.6,0,3.9c-0.2,0-0.3,0-0.5,0c-0.1-0.4-0.3-0.8-0.3-1.2
	c0-1.1,0.1-2.2,0.2-3.2c0.1-0.9-0.1-1.6-1.1-1.9c0.2-0.9,0.4-1.8,0.5-2.7c0.1-0.2,0.2-0.3,0.2-0.5c1.1-1,2.3-2.1,3.4-3.1
	c1,0.6,1.1,0.6,2.2-1.5c-0.5,0.3-1,0.5-1.9,0.9c0.3-0.6,0.5-0.8,0.7-1.2c-0.7,0.4-1.2,0.6-1.7,0.9c0-0.1-0.1-0.1-0.1-0.2
	c0.3-0.5,0.6-0.9,1.1-1.6c-1,0.6-1.7,1-2.4,1.4c-0.1-0.1-0.1-0.2-0.2-0.2c0.3-0.4,0.6-0.7,0.9-1.1l-0.1-0.1
	c-0.6,0.4-1.3,0.8-1.9,1.2c-0.1-0.1-0.1-0.1-0.2-0.2c0.1-0.3,0.3-0.6,0.5-1c-0.6,0.4-1.1,0.8-1.7,1.2c-0.1-0.1-0.1-0.2-0.2-0.3
	c0.3-0.4,0.7-0.8,1-1.2c0,0,0-0.1-0.1-0.1c-0.7,0.5-1.5,1-2.4,1.7c0.1-0.5,0.2-0.7,0.2-0.8c-0.4,0.1-0.8,0.2-1.1,0.4
	c0-0.1-0.1-0.1-0.1-0.2c0.5-0.6,0.9-1.1,1.4-1.7c-0.1-0.1-0.1-0.1-0.2-0.2c-0.8,0.7-1.6,1.4-2.4,2.1c-0.1-0.1-0.1-0.1-0.2-0.2
	c0.3-0.5,0.6-0.9,1-1.6c-0.8,0.6-1.4,1-2,1.4c-0.1-0.1-0.1-0.1-0.2-0.2c0.5-0.7,1-1.5,1.5-2.2c-0.1,0-0.1-0.1-0.2-0.1
	c-1.1,1.2-2.2,2.3-3.3,3.5c-0.1-0.1-0.2-0.2-0.3-0.2c0.6-0.9,1.2-1.8,1.8-2.6c-0.1-0.1-0.1-0.1-0.2-0.2c-1.2,1.4-2.5,2.7-3.7,4.1
	c-0.1-0.1-0.2-0.2-0.3-0.2c1-1.3,1.9-2.6,2.9-3.9c-0.8,0.5-1.6,1.1-2.4,1.6l-0.1-0.1c0.2-0.3,0.3-0.7,0.5-1c-0.1,0-0.1-0.1-0.2-0.1
	c-1,1.1-1.9,2.2-2.9,3.3c0.6-2.8,2.9-4.2,4.9-6.3c-1.7,0.6-2.5,2.5-4.5,1.4c0,0.2,0,0.3,0.1,0.5c0.5,0.1,0.9,0.1,1.7,0.2
	c-1.1,1-2.1,1.8-3,2.6c0.1-0.2,0.1-0.5,0.2-1c-0.5,0.6-0.9,1-1.5,1.6c0-0.5,0.1-0.9,0.1-1.3c-0.7,0.8-1.3,1.4-2,2.1
	c-0.1-0.1-0.1-0.1-0.2-0.2c0.1-0.4,0.2-0.7,0.3-1.1c0,0-0.1,0-0.1-0.1c-0.6,0.8-1.2,1.5-1.9,2.5c-0.1-0.5-0.1-0.7-0.2-1.1
	c-2.9,4-3.4,8.6-3.6,13.2c-0.1,0-0.2,0-0.3,0c-0.1-1.1-0.2-2.2-0.3-3.3c-0.5,4.4-0.4,7.9,1.4,8.7c-0.1-0.5-0.1-0.9-0.2-1.3
	c0.1,0,0.1,0,0.2-0.1c0.6,1,1.2,2,1.8,3c0.1,0,0.1-0.1,0.2-0.1c0-0.3,0-0.6,0-1c0.7,0.9,1.2,1.6,1.8,2.4c0.1,0,0.2-0.1,0.2-0.1
	c-0.1-0.4-0.2-0.9-0.3-1.3c0.1,0,0.1-0.1,0.2-0.1c0.5,0.6,1,1.2,1.5,1.9c0.1-0.4,0.1-0.7,0.1-1c0.6,0.5,1.1,1,1.6,1.6
	c0-0.1,0.1-0.1,0.1-0.2c-0.2-0.6-0.5-1.1-0.7-1.7c0.1,0,0.1-0.1,0.2-0.1c0.3,0.3,0.6,0.5,1.2,1c-0.4-1.3-0.8-2.2-1.1-3.1
	c0.1,0,0.1-0.1,0.2-0.1c0.2,0.2,0.5,0.5,0.9,1c-0.1-0.9-0.2-1.6-0.4-2.3c0.3,0.1,0.5,0.2,0.8,0.4c-0.8-3.3-1-6.5,0-9.7
	s3-5.7,5.9-7.3c-0.3,0.6-0.6,1.7-1,1.7c-1.2,0-1.5,0.9-1.8,1.6c-0.6,1.2-0.9,2.5-1.4,3.7c-0.2,0.5-0.3,1-0.5,1.5
	c-0.1,0-0.1,0-0.2-0.1c-0.1-0.5-0.1-1-0.2-1.5c-1.2,3.4-1.5,7,0.1,10.1c1.9,3.8,5.1,6.1,9.8,5.6c0,0.1,0,0.2-0.1,0.3
	c-0.9,0.1-1.8,0.2-2.8,0.4c0,0.2-0.1,0.4-0.2,0.8c-0.7-0.6-1.2-1-1.9-1.6c0,0.3,0.1,0.6,0.1,1.2c-0.8-0.9-1.3-1.5-2-2.3
	c0.1,0.7,0.2,1,0.3,1.3c-0.1,0-0.1,0.1-0.2,0.1c-0.5-0.5-0.9-1-1.4-1.5c-0.4-1.4-1.1-2.6-2.3-3.5c-0.3,1.3,0.2,2.7,1.3,4
	c0.3,1.9,1.5,2.5,3.4,2.3c-0.4,0.3-0.8,0.5-1.2,0.6c-1.7,0.5-3.5,0.9-5.2,1.4c-0.4,0.1-0.7,0.4-1,0.6c-0.8,0.1-1.7,0.2-2.5,0.4
	c0-0.1-0.1-0.2-0.1-0.3c1.6-0.7,3.2-1.3,4.8-2v-0.1c-1,0.2-2,0.4-3,0.7c0-0.1-0.1-0.2-0.1-0.3c0.4-0.2,0.9-0.4,1.4-0.7
	c-0.2-0.1-0.4-0.2-0.8-0.3c0.7-0.3,1.3-0.6,1.9-0.9c0-0.1,0-0.1,0-0.2c-1.3,0.1-2.5,0.1-3.8,0.2c0,0.1,0,0.2,0,0.3
	c0.6-0.1,1.2-0.1,2.1-0.2c-0.3,0.2-0.4,0.2-0.4,0.2C191.3,56.7,189.4,57.2,187.5,57.7L187.5,57.7z M167,66.2c0-0.2,0-0.4,0-0.5
	c-1.8,0-3.5,0-5.3,0c0-0.1,0-0.2,0-0.3c0.2-0.1,0.4-0.2,0.9-0.4c-1.1-0.1-1.8-0.2-2.5-0.2c0-0.1,0-0.2,0-0.3
	c1.9-0.1,3.8-0.2,5.7-0.4c0-0.1,0-0.1,0-0.2c-2.4,0-4.7,0-7.1,0c0-0.1,0-0.2,0-0.3c1.4-0.1,2.8-0.2,4.2-0.3c-0.7-0.1-1.3-0.1-2-0.1
	c-0.6,0-1.3-0.1-1.9-0.2c-0.6-0.1-1.2-0.2-1.8-0.3c0-0.1,0-0.3,0-0.4c2,0,4,0,6,0c0-0.1,0-0.2,0-0.3c-0.8,0-1.5,0-2.3,0
	c-0.7,0-1.5-0.2-2.2-0.3c0-0.1,0-0.2,0-0.3c0.4-0.1,0.8-0.2,1.2-0.3c-0.4-0.2-0.7-0.3-1.1-0.3c-0.3,0-0.7,0-1-0.1
	c7.4-4.2,15.5-5.7,24.2-5.5c-0.6-0.2-0.9-0.3-1.2-0.3c3.2,0,6.4,0.2,9.5-0.5c-1.2-0.1-2.5-0.3-3.7-0.4c0-0.1,0-0.1,0-0.2
	c0.5-0.1,0.9-0.2,1.4-0.4c0,0,0-0.1-0.1-0.1c-0.9-0.1-1.8-0.2-2.8-0.2c0-0.1,0-0.2,0-0.3c0.7-0.1,1.4-0.2,2.1-0.3c0-0.1,0-0.1,0-0.2
	c-1.4-0.1-2.7-0.2-4.1-0.4c0-0.1,0-0.1,0-0.2c0.9-0.1,1.9-0.2,3-0.4c-0.8-0.1-1.4-0.2-2-0.3c0-0.1,0-0.1,0-0.2
	c0.4-0.1,0.8-0.2,1.3-0.4c-0.6-0.2-1.1-0.3-1.8-0.5c0.6-0.2,0.9-0.4,1.2-0.5c-0.2-0.1-0.5-0.2-0.8-0.4c0.3-0.2,0.6-0.4,0.8-0.6
	c-0.4-0.2-0.7-0.3-1.2-0.5c0.5-0.2,0.7-0.3,1.1-0.5c-0.4-0.2-0.7-0.3-0.8-0.4c0.3-0.6,0.7-1.2,0.9-1.8c0.3-1.3,0.3-2.6,0.5-3.9
	c0.3-2.4,0.7-4.8,1-7.3c0,0-0.2-0.2-0.6-0.4c0.4-0.1,0.7-0.2,0.9-0.3c-0.2-0.6-0.3-1.1-0.4-1.7c-0.1,0-0.2,0-0.3,0
	c-0.4,1-0.7,2-1.2,3.1c-0.3-0.1-0.6-0.1-1.2-0.3c0.5-0.2,0.7-0.4,1-0.5c-0.5-0.2-0.8-0.3-1.1-0.5c0.3-0.2,0.4-0.3,0.5-0.4
	c-0.3-0.4-0.5-0.7-0.9-1.4c-0.1,1.4-0.2,2.5-0.3,3.8c-0.7-1.1-1.4-2.1-2.1-3.2c-1.2,1.2,0,2.6-0.2,4.1c-0.4-0.1-0.7-0.2-1.1-0.3
	c0.3-0.3,0.5-0.4,0.7-0.6c-0.4-0.2-0.7-0.3-1.1-0.5c0.2-0.2,0.4-0.4,0.4-0.3c-0.2-0.6-0.4-1-0.5-1.4c-0.1,0-0.2,0-0.3,0
	c-0.3,1.4-0.5,2.8-0.8,4.2h-0.1c-0.1-1.2-0.1-2.4-0.2-3.7c0.1,0,0.4-0.2,0.7-0.4c-0.4-0.2-0.7-0.3-1.2-0.5c0.5-0.2,0.7-0.3,1.1-0.5
	c-0.3-0.2-0.6-0.3-0.6-0.3c-0.1-0.8-0.1-1.4-0.2-2.1c-1.1,1.9-0.6,3.8-0.2,5.8c-0.3-0.5-0.6-1-1-1.9c-0.4,1.2-0.6,2-0.9,2.8
	c-0.1,0-0.1,0-0.2,0c0-0.7,0-1.5,0-2.3c0.1,0,0.3-0.1,0.7-0.4c-0.4-0.1-0.6-0.2-0.9-0.4c0.5-0.3,0.8-0.4,1.1-0.6
	c-0.5-0.2-1-0.4-1.6-0.6c0.7-0.1,1.1-0.2,1.7-0.4c-0.7-0.2-1-0.4-1.5-0.5c0.4-0.2,0.6-0.2,0.7-0.3c-0.2-0.4-0.4-0.8-0.6-1.2
	c-1.2,1.7-0.5,3.6-0.4,5.4c-0.2-0.5-0.4-1-0.7-1.6c-0.3,0.4-0.5,0.7-0.6,0.9c-0.2-0.5-0.3-1-0.4-1.4c0.2-0.1,0.6-0.2,1-0.4
	c-0.5-0.2-0.8-0.3-1.2-0.5c0.2-0.2,0.3-0.3,0.4-0.3c-0.2-0.5-0.4-1-0.6-1.4c-0.1,0-0.2,0-0.3,0c-0.1,1.4-0.2,2.8-0.4,4.3
	c-0.2-0.4-0.3-0.6-0.5-1c-0.2,0.3-0.3,0.6-0.4,0.9c-0.3-0.3-0.5-0.5-0.8-0.7c0.2-0.2,0.5-0.4,0.7-0.6c-0.4-0.2-0.7-0.4-1.1-0.6
	c0.2-0.1,0.4-0.2,0.5-0.2c-0.4-0.2-0.7-0.4-1.2-0.7c0.6-0.1,0.9-0.2,1.5-0.3c-0.8-0.2-1.4-0.3-1.9-0.5c0-0.1,0-0.2,0-0.2
	c0.5-0.1,0.9-0.2,1.7-0.4c-0.6-0.3-1-0.5-1.3-0.7c0.1,0,0.2-0.1,0.3-0.1c-0.1-0.4-0.3-0.8-0.4-1.4c-1.1,1.9-1,3.7-0.2,5.4
	c-0.1,0-0.2,0-0.3,0c-0.3-0.5-0.6-1.1-0.9-1.6c-0.1,0-0.2,0-0.4-0.1c-0.3,1.6-0.5,3.1-0.8,4.7c-0.2-0.3-0.3-0.5-0.5-0.9
	c-0.2,0.5-0.3,0.9-0.4,1.3c-0.4-0.1-0.7-0.1-1.3-0.2c0.4-0.3,0.7-0.4,1-0.6c-0.3-0.2-0.5-0.4-0.8-0.6c0.5-0.2,0.9-0.3,1.4-0.5
	c-0.5-0.2-0.9-0.3-1.2-0.5c0.2-0.2,0.4-0.4,0.6-0.7c-0.4-0.1-0.7-0.2-0.6-0.2c-0.2-0.6-0.3-1-0.4-1.4c-0.2,0-0.3,0-0.5,0
	c-0.1,1.1-0.3,2.2-0.3,3.2c0,1.3-0.1,1.5-1.5,1.1c0.3-0.2,0.6-0.4,0.9-0.7c-0.5-0.1-0.9-0.2-1.3-0.3c0.4-0.2,0.7-0.4,1.1-0.7
	c-0.6-0.1-1-0.2-1.4-0.4c0.8-0.9-0.1-1.3-0.5-1.9c-0.4,0.7-0.6,1.5-0.7,2.2c-0.2,1.2-0.3,1.3-1.4,0.7c0.3-0.2,0.6-0.4,0.9-0.6
	c-0.1-0.1-0.1-0.2-0.2-0.2c-0.3-0.1-0.7-0.2-1-0.4c0.5-0.6,0.5-0.7-0.4-2.4c-0.8,0.8-1.1,0.6-1.1,3.8c-0.3-0.1-0.7-0.2-0.7-0.2
	c-0.2-0.6-0.4-1-0.6-1.4c0.2-0.1,0.4-0.3,0.8-0.5c-0.4-0.2-0.6-0.3-0.9-0.4c0.2-0.1,0.4-0.2,0.4-0.3c-0.3-0.7-0.6-1.2-0.8-1.7
	c-0.4,0.8-0.7,1.6-0.7,2.4c0,0.8,0.5,1.6,0.7,2.3c-0.1,0-0.2,0.1-0.2,0.1c-0.3-0.5-0.6-1.1-1-1.8c-0.4,1-0.8,1.7-1.2,2.6
	c-0.5-0.9-0.9-1.7-1.3-2.4c-0.4,0.4-0.8,0.7-1.3,1.1c0.2-0.8,0.3-1.3,0.5-1.8c0,0,0.2-0.1,0.5-0.2c-0.5-0.2-0.9-0.4-1.4-0.6
	c0.4-0.2,0.7-0.3,1.1-0.5c-0.4-0.2-0.7-0.3-1.1-0.5c0.3-0.2,0.5-0.3,0.7-0.5c-0.3-0.4-0.6-0.8-0.9-1.2c-0.8,1.9-0.6,3.8,0.2,5.6
	c-0.7-0.4-1-1.5-2.1-0.2c0-0.7,0.1-1,0.1-1.4c-0.2-0.1-0.5-0.2-0.9-0.5c0.5-0.1,0.9-0.2,1.5-0.3c-0.9-0.2-1.4-0.4-2-0.5
	c0-0.1,0-0.1,0.1-0.2c0.4-0.1,0.9-0.1,1.3-0.2c0-0.1,0-0.1,0-0.2c-0.4-0.1-0.8-0.2-1.4-0.3c0.4-0.3,0.7-0.4,0.9-0.6
	c-0.3-0.2-0.6-0.4-0.8-0.6c-1.5,1.7-0.7,3.4-0.3,5.2c-0.3-0.4-0.6-0.8-0.9-1.3c-0.2,0.5-0.3,0.9-0.4,1.3c-0.4-0.3-0.8-0.6-1.2-0.9
	c0.4-0.1,0.7-0.2,1-0.3c0-0.1,0-0.2,0-0.3c-0.6-0.2-1.1-0.4-2-0.7c0.8-0.2,1.3-0.3,1.8-0.4c0-0.1,0-0.1,0-0.2
	c-0.5-0.1-0.9-0.2-1.6-0.4c0.4-0.3,0.7-0.5,0.8-0.5c-0.4-0.8-0.6-1.5-0.9-2.2c-1.2,1.8-0.7,3.9-0.8,5.9c-0.6-0.3-1.1-0.7-1.6-1
	c0.1-0.1,0.2-0.3,0.4-0.6c-0.5-0.2-0.9-0.4-1.3-0.5c0.2-0.2,0.3-0.3,0.7-0.6c-1.3,0.1-0.5-0.7-0.6-1.2c-0.1,0-0.2-0.1-0.3-0.1
	c-0.5,1-1.1,2-1.6,3c-0.3,0-0.7,0-1,0c1.8-0.9,0.5-0.9,0.4-1.3c0.3-0.1,0.6-0.3,0.9-0.4c-0.4-0.2-0.8-0.4-1.1-0.6
	c0.1,0,0.2-0.1,0.3-0.1c-0.2-0.5-0.4-1-0.5-1.6c-0.1,0-0.3,0-0.4,0c-0.2,1.1-0.5,2.3-0.7,3.4c-0.4-0.2-0.8-0.3-1.3-0.6
	c0.3-0.2,0.6-0.3,1-0.5c-0.5-0.2-0.9-0.3-1.5-0.5c0.4-0.2,0.7-0.3,1-0.5c-0.3-0.5-0.6-0.9-1-1.7c-0.3,1-0.5,1.6-0.6,2.2
	c-0.1,0.3,0,0.8-0.2,0.9c-0.4,0.2-0.8,0.1-1.2,0.1c0,0,0-0.1-0.1-0.2c0.3-0.1,0.6-0.3,1-0.4c-0.4-0.2-0.7-0.3-1.1-0.4
	c1.3-1,0-1.4-0.3-2c-0.1,0-0.3,0-0.4,0c0,1.4,0,2.7,0,4c-0.5,0.1-1.1,0.2-1.9,0.4c0.5-0.4,0.7-0.6,0.9-0.8c-0.3-0.3-0.5-0.5-0.8-0.7
	c0.4-0.2,0.6-0.3,0.9-0.4c-0.4-0.2-0.7-0.3-1.2-0.5c0.4-0.2,0.6-0.3,0.8-0.4c-0.4-0.5-0.7-0.9-1.1-1.4c-0.1,0-0.2,0.1-0.3,0.1
	c-0.1,0.7-0.2,1.5-0.3,2.2c-0.1,0.6,0.2,1.5-0.8,2c0-0.4,0.1-0.6,0.1-0.9c-0.5-0.1-0.9-0.1-1.3-0.2c0-0.1,0-0.2,0-0.3
	c0.3-0.2,0.6-0.3,1.1-0.6c-0.5-0.1-0.9-0.3-1.5-0.4c0.6-0.3,1-0.5,1.4-0.7c-0.4-0.4-0.8-0.7-1.4-1.2c-0.3,1.3-0.5,2.5-0.8,3.4
	c-0.4,0.4-0.8,0.8-1.2,1.2c-0.1-0.7-0.1-1.3-0.2-2c0.2-0.1,0.5-0.2,1.1-0.4c-0.7-0.2-1.1-0.3-1.7-0.5c0.5-0.2,0.8-0.4,0.9-0.4
	c-0.3-0.6-0.6-1.2-0.8-1.7c-0.1,0-0.2,0-0.3,0c-0.2,0.7-0.6,1.5-0.5,2.1c0.2,1.3-0.4,2.1-1.3,2.8c-0.1-0.2-0.2-0.5-0.4-0.7
	c0.3-0.2,0.6-0.3,1-0.5c-0.5-0.2-0.8-0.4-1.1-0.5c0.4-0.3,0.7-0.4,1-0.6c0-0.1-0.1-0.1-0.1-0.2c-0.5,0-1,0-1.6,0c0-0.1,0-0.1,0-0.2
	c0.4-0.2,0.8-0.4,1.4-0.6c-0.6-0.1-1-0.1-1.6-0.2c0.5-0.2,0.7-0.4,0.8-0.4c-0.4-0.2-0.7-0.4-1.1-0.5c-0.9,1-1,2.6,0.4,4.3
	c-0.1,0-0.2,0.1-0.3,0.1c-0.4-0.3-0.8-0.7-1.2-1.1c-0.3,0.4-0.7,0.9-1.2,1.6c0.2-0.7,0.2-1.2,0.3-1.7c-0.3-0.1-0.7-0.2-1.2-0.3
	c0.8-0.3,1.3-0.4,1.9-0.6v-0.1c-0.5,0-1.1-0.1-2-0.1c0.7-0.3,1-0.5,1.6-0.7c-0.6-0.3-0.9-0.4-1-0.4c-0.1-0.6-0.1-1.1-0.2-1.6
	c-1.4,1.7-1.1,3.4-0.3,5.1c-0.6-0.1-0.9-0.2-1.1-0.3c0-0.6,0.1-1,0.1-1.5c-0.1,0-0.2,0-0.4-0.1c-0.4,0.8-0.8,1.6-1.4,2.7
	c0-1,0-1.7,0-2.5c0.1,0,0.3-0.2,0.5-0.3c-0.3-0.2-0.6-0.3-0.6-0.3c0-0.6,0-1,0-1.4c-1.2,1.3-1.5,2.8-0.9,4.5
	c-0.5-0.1-0.8-0.1-1.3-0.1c0.3-0.3,0.4-0.5,0.4-0.4c-0.5-0.8-0.9-1.6-1.3-2.3c-0.1,0-0.3,0-0.4,0.1c0,1.1,0,2.2,0,3.4
	c-0.3-0.5-0.6-0.9-0.9-1.4c-0.3,0.5-0.6,1-1,1.5c-0.3-0.6,0.8-1.6-0.9-1.6c0.8-0.3,1.2-0.5,1.7-0.7c-0.5-0.1-0.9-0.2-1.5-0.3
	c0.5-0.3,0.7-0.4,1.1-0.6c-0.4-0.2-0.6-0.4-0.9-0.5c0.1,0,0.2-0.1,0.3-0.1c-0.1-0.3-0.2-0.6-0.3-1c-1.3,1.5-0.9,2.9-0.5,4.3
	c-0.3-0.5-0.6-1-1-1.8c-0.2,1.1-0.4,2-0.6,2.9c-0.1,0-0.1,0-0.2,0c0-1,0-2,0-3.1c0.1,0-0.2-0.1-0.5-0.2c0.4-0.2,0.7-0.3,1-0.5
	c-0.4-0.2-0.7-0.3-0.9-0.3c0.3-0.2,0.5-0.3,0.9-0.6c-0.6-0.3-0.9-0.4-1-0.4c-0.1-0.6-0.2-1.1-0.2-1.5c-1.2,2-0.7,3.8,0.5,5.7
	c-0.5,0-0.9-0.1-1.1-0.1c-0.2-0.7-0.3-1.3-0.5-1.9c-0.1,0-0.2,0-0.3,0c-0.2,0.8-0.5,1.6-0.8,2.7c-0.7-0.8-1.4-1.6-2.1-2.4
	c-0.2,0.5-0.5,1.1-0.8,1.6c-0.1,0-0.1,0-0.2-0.1c0-0.5,0.1-1.1,0.1-1.7c0,0-0.2-0.1-0.4-0.3c0.4-0.2,0.7-0.3,0.9-0.4
	c-0.3-0.6-0.6-1.1-0.9-1.6c-0.9,1.3-0.7,2.6-0.3,4.1c-0.5-0.3-0.8-0.5-1.1-0.7c0-0.4,0.1-0.7,0.1-1.1c-0.1,0-0.2,0-0.2,0
	c-0.4,0.7-0.7,1.3-1.1,2.1c-0.6-0.7-1.2-1.4-1.8-2.1c-0.3,0.5-0.7,1.2-1.1,1.9c-0.3-0.2-0.5-0.4-0.8-0.6c0.2-0.1,0.4-0.2,0.5-0.3
	c-0.3-0.3-0.5-0.6-0.9-1c-0.2,0.7-0.3,1.4-0.5,2c-0.5-0.2-1-0.3-1.6-0.5c0.1-0.1,0.2-0.3,0.3-0.4c-0.2,0.2-0.4,0.4-0.6,0.6
	c-0.3-0.3-0.5-0.7-0.8-1c0.1-0.2,0.3-0.4,0.4-0.5c-0.2,0.6-0.4,1.2-0.7,2.1c-0.6-0.6-1.1-1-1.6-1.5c-0.2,0.5-0.3,1-0.5,1.4
	c-0.1,0-0.1,0-0.2-0.1c0-0.6-0.1-1.3-0.1-2c0,0-0.2-0.1-0.6-0.1c0.3-0.2,0.5-0.4,0.4-0.3c-0.2-0.7-0.3-1.2-0.5-1.8
	c-1.2,1.4-0.2,2.7,0.1,4.1c-0.5,0-0.8,0-1,0c-0.1-0.6-0.1-1.1-0.2-1.9c-0.5,0.8-0.8,1.3-1.1,1.7c-0.3-0.4-0.5-0.7-0.9-1.3
	c-0.3,0.9-0.5,1.4-0.7,2.1c-0.3-0.2-0.6-0.4-1-0.6c0.3-0.1,0.5-0.3,0.8-0.4c-0.3-0.2-0.6-0.3-1-0.5c0.3-0.2,0.5-0.3,0.7-0.5
	c-0.1,0-0.2,0-0.3,0c-0.1-0.5-0.1-1-0.2-1.5c-0.1,0-0.2,0-0.3,0c-0.3,1-0.7,2-1.1,3.4c-0.2-1.6-0.4-2.8-0.5-4.1
	c-1.1,1.2-1,2.3-0.4,3.5c-0.4-0.3-0.7-0.6-1.1-0.9c-0.3,0.4-0.6,0.8-0.9,1.1c-0.2-0.5-0.3-0.9-0.5-1.4c0.1-0.1,0.4-0.2,0.8-0.4
	c-0.5-0.2-0.8-0.4-0.9-0.4c-0.1-0.6-0.2-1-0.3-1.4c-0.2,0-0.4,0.1-0.6,0.1c0.1,1.1,0.2,2.2,0.3,3.4c-0.2,0-0.4,0-0.6,0
	c0-0.4,0-0.7-0.1-1.1c-0.1,0-0.2,0-0.3-0.1c-0.3,0.4-0.6,0.9-0.9,1.3c-0.2-0.7-0.3-1.5-0.5-2.2c-0.1,0-0.2,0-0.3,0.1
	c-0.2,0.6-0.3,1.3-0.5,2c-0.7,0-1.4-0.1-2.1-0.1c0-0.1,0-0.2,0-0.3c0.3-0.2,0.5-0.3,0.9-0.6c-0.6,0-0.9-0.1-1.4-0.1
	c0,0.6-0.1,1.1-0.1,1.6c-1.2-0.7-0.9,0.8-1.6,1c-0.3-0.2-0.6-0.5-1-0.7c0.4-0.2,0.8-0.3,1.1-0.4c-0.3-0.6-0.5-1.1-0.9-1.7
	c-0.4,0.8-0.7,1.3-1.1,2.1c0-0.9-0.1-1.5-0.1-2.1c-0.1,0-0.3-0.1-0.5-0.2c0.2-0.3,0.5-0.5,0.6-0.8c0.1-0.2,0.1-0.5,0.1-0.7
	c-1.3-0.1-1.3,0.2-1.1,3.4c-0.3-0.6-0.5-1.2-0.9-2c-0.3,1-0.6,1.8-0.9,2.6c-0.5-0.4-1.1-0.8-1.8-1.3c-0.3,0.7-0.6,1.4-0.9,2.1
	c-0.4,0-0.9,0.1-1.5,0.2c0-0.1,0-0.2-0.1-0.3c0.4-0.2,0.8-0.3,1.1-0.5c-0.4-0.5-0.8-1.1-1.3-1.8c-0.2,0.8-0.4,1.5-0.6,2.3
	c-0.8-1.1-1,0.2-1.5,0.4c-0.5-0.4,1-1.4-0.5-1.5c-0.3,0.6-0.6,1.2-1,2c-0.1-0.8-0.1-1.3-0.2-1.9c0.2-0.1,0.5-0.2,0.8-0.4
	c-0.4-0.2-0.7-0.3-1.2-0.5c0.6-0.2,1-0.4,1.5-0.6c0-0.1,0-0.1-0.1-0.2c-0.3,0-0.6-0.1-0.8-0.1c0-0.4-0.1-0.7-0.1-1.3
	c-1.3,1.3-1,2.7-1,4.3c-0.4-0.6-0.6-0.9-0.9-1.3c-0.3,0.5-0.6,1-0.8,1.5c-0.1,0-0.1,0-0.2,0c0-0.5,0-1,0.1-1.6c0,0-0.2-0.1-0.5-0.3
	c0.3-0.2,0.6-0.3,0.8-0.5c-0.2-0.3-0.4-0.6-0.6-0.9c-0.1,0-0.2,0-0.3,0c-0.2,1.2-0.4,2.4-0.6,3.6c-1-0.7-0.5-2.3-1.5-3.4
	c-0.3,1.2-0.5,2.1-0.7,3.2c-0.6-0.7-1-1.3-1.6-2.1c-0.4,0.8-0.7,1.5-1,2.2c-0.2-0.1-0.5-0.2-0.7-0.3c0.2-0.2,0.4-0.4,0.5-0.5
	c-0.3-0.5-0.6-0.8-1-1.5c-0.3,1.1-0.5,2-0.8,3c-0.3-0.7-0.6-1.3-1-2.1c-0.2,0.9-0.3,1.4-0.5,2c-0.1,0-0.1,0-0.2,0
	c-0.1-0.8-0.2-1.6-0.3-2.4c-0.1,0-0.2,0-0.3,0c-0.2,0.5-0.3,1-0.5,1.5c-0.3-0.7-0.6-1.2-0.9-1.8c-0.2,0.3-0.4,0.5-0.6,0.7
	c-0.1-0.5-0.2-0.8-0.3-1.3c-0.3,0.5-0.5,0.8-0.7,1.1c-0.2-0.5-0.3-0.9-0.4-1.3c-0.1,0-0.2,0-0.3,0c0,0.9,0,1.7-1.1,2
	c0.6-0.1,1.3-0.1,1.9-0.2c0,0.1,0,0.2,0,0.3c-0.5,0.2-0.9,0.3-1.4,0.5v0.1c0.8-0.1,1.7-0.3,2.5-0.4c0,0.1,0,0.2,0.1,0.4
	c-0.5,0.1-1,0.3-1.6,0.4c-0.5,0.1-1,0.1-1.3,0.2c0.9,0.3,1.8,0.6,2.8,0.9c0,0.1,0,0.3,0,0.4c-0.9,0.1-1.9,0.3-2.8,0.4v0.1
	c0.7,0,1.5,0,2.2,0c0,0.1,0,0.2,0,0.3c-0.8,0.1-1.6,0.2-2.5,0.3c0,0.1,0,0.1,0,0.2c0.8,0,1.7,0,2.5,0c0,0.1,0,0.1,0,0.2
	c-0.5,0.1-1,0.2-1.5,0.4v0.1c0.4,0,0.8,0.1,1.2,0.1c0,0.1,0,0.2,0.1,0.3c-0.6,0.2-1.1,0.3-1.7,0.5c0,0.1,0,0.1,0,0.2
	c0.6,0,1.2,0,1.8,0c0,0.1,0,0.2,0,0.3c-0.8,0.1-1.6,0.1-2.5,0.2c0.4,0.2,0.6,0.4,0.8,0.5c-0.2,0.2-0.4,0.3-0.5,0.4
	c0.3,0.2,0.6,0.4,0.9,0.6c-0.1,0.1-0.1,0.3-0.2,0.4c2.2-0.3,4.4-0.6,6.6-0.9c0,0.1,0,0.2,0.1,0.3c-0.1,0.1-0.3,0.2-0.4,0.4
	c0.2,0.1,0.5,0.3,1,0.6c-2.3,0.3-4.2,0.5-6.3,0.7c0.7,0.2,1.2,0.2,1.6,0.4c0.6,0.2,1.1,0.6,1.6,0.6c0.9,0,1.9-0.2,2.8-0.4
	c0.5-0.1,0.7,0.6,1.5,0.4c1.9-0.4,3.9-0.6,5.7-0.3c1.6,0.3,3.1,0.4,4.7,0.2c0.2,0,0.5,0.1,0.8,0.2c0.6,0.2,1.1,0.4,1.6,0.5
	c1.2,0.2,2.8,0,3.7,0.6c1.1,0.9,2.4,0.4,3.6,1.1c1.2,0.7,3.2,0.2,4.8,0.9c1.3,0.5,2.7,0.5,4,0.9c1.8,0.6,3.6,1.4,5.4,2.1
	c2.9,1,5.8,2.1,8.7,2.9c2.8,0.8,5.6,2.1,8.7,1.7c0.7-0.1,1.4,0.1,2,0.2c0,0.1,0,0.2,0,0.3c-0.5,0.1-0.9,0.1-1.4,0.2
	c0,0.1,0,0.2,0,0.3c2.2,0,4.3,0,6.5,0c0,0.1,0,0.2,0,0.3c-0.4,0.1-0.9,0.2-1.3,0.4c0,0.1,0,0.2,0,0.3c2.9,0,5.8,0,8.8,0
	c0,1.7-1.7,1.6-2.9,2.4c0.7,0.1,1.2,0.1,1.8,0.1c0,0.1,0,0.2,0,0.2c-0.8,0.4-1.6,0.7-2.5,1.1c0.8,0,1.5,0,2.2,0
	c-0.2,0.3-0.4,0.5-0.5,0.6c0,0.1,0.1,0.1,0.1,0.2c1.9-0.8,3.7-1.6,5.6-2.5c0.1,0.2,0.1,0.3,0.2,0.5c-3,1.4-6,2.7-9.2,4.2
	c0.8,0,1.3-0.1,1.9-0.1c0,0.1,0,0.2,0.1,0.3c-0.7,0.3-1.3,0.6-2.3,1c0.8,0,1.2,0,1.9,0c-0.5,0.4-0.8,0.6-1.1,0.8
	c0,0.1,0.1,0.1,0.1,0.2c2.1-0.8,4.2-1.7,6.4-2.5c0.1,0.1,0.1,0.3,0.2,0.4c-2.1,0.9-4.2,1.9-6.4,2.8c0,0.1,0.1,0.1,0.1,0.2
	c1-0.2,1.9-0.5,2.9-0.7c0,0.1,0.1,0.2,0.1,0.4c-1.1,0.4-2.2,0.9-3.3,1.3c0.1,0.1,0.1,0.2,0.2,0.3c2.2-1,4.4-1.9,6.5-2.9
	c1.2-0.6,2.4-1.1,3.4-1.9c2-1.6,3.8-3.4,5.7-5.1c0.3-0.3,0.7-0.5,1-0.5c1.7,0.1,3.4,0.2,5.1,0.4c0,0.2,0,0.3,0,0.5
	c-1.6,0-3.2,0-4.8,0c0,0.2,0,0.3,0,0.5c1.5,0,3,0,4.5,0c0,0.1,0,0.3,0,0.4c-1.7,0.1-3.5,0.2-5.2,0.4c0,0.1,0,0.2,0,0.4
	c1.3-0.1,2.7-0.3,4-0.3s2.6,0.1,4,0.2c0,0.2,0,0.3,0,0.5c-1.2,0.1-2.4,0.2-3.7,0.3c0,0,0,0,0,0.1c5.7,0,11.4,0,17.1,0
	c0,0.1,0,0.2,0,0.3c-2.7,0.9-5.6,0.3-8.4,0.5c5.9,0.2,11.8,0.7,17.5-0.4c2.1-0.4,4.1-0.5,6.1-0.6c0.6,0,1.1,0,1.7,0
	C163.7,66.2,165.4,66.2,167,66.2z M26.6,31.8c0-0.1,0-0.3,0-0.4c1.5,0.1,3,0.2,4.5,0.3c0-0.1,0-0.1,0-0.2c-2.3-0.3-4.5-0.6-6.8-0.9
	c0-0.1,0-0.2,0-0.3c1.2,0.1,2.4,0.1,3.6,0.2c0-0.1,0-0.1,0-0.2c-1.4-0.2-2.8-0.5-4.3-0.7c0-0.1,0-0.2,0-0.3c0.6,0,1.1,0,1.7,0v-0.1
	c-1-0.2-1.9-0.4-2.9-0.6c0-0.1,0-0.2,0-0.3c1.8,0.2,3.5,0.3,5.3,0.5c0,0,0,0,0-0.1c-0.8-0.2-1.7-0.4-2.5-0.6c0-0.1,0-0.2,0-0.2
	c0.5,0,0.9,0,1.4,0v-0.1c-1.1-0.3-2.2-0.5-3.3-0.8c0-0.1,0-0.2,0.1-0.3c1,0.1,2,0.1,3,0.2v-0.1c-1.6-0.3-3.1-0.7-4.7-1
	c0-0.1,0-0.2,0.1-0.3c0.3,0,0.7,0,1.2-0.1c-0.9-0.3-1.7-0.5-2.4-0.7c0-0.1,0-0.2,0-0.2c0.6,0,1.1,0,1.7,0v-0.1
	c-1.2-0.3-2.5-0.6-3.7-0.9c0-0.1,0.1-0.2,0.1-0.3c0.8,0.1,1.6,0.1,2.5,0.2v-0.1c-1.5-0.3-3.1-0.6-4.6-0.9c0-0.1,0-0.2,0.1-0.4
	c1.2,0.1,2.4,0.2,3.6,0.3v-0.1c-0.7-0.2-1.3-0.4-2-0.6c0-0.1,0-0.1,0-0.2c0.4,0,0.8,0,1.6-0.1c-1.9-0.4-3.4-0.7-4.9-1.1
	c0-0.1,0-0.2,0.1-0.3c1.1,0.1,2.2,0.2,3.3,0.3v-0.1c-0.8-0.2-1.6-0.4-2.4-0.6c0-0.1,0-0.2,0.1-0.3c0.5,0,1.1,0,1.6,0v-0.1
	c-1.3-0.3-2.5-0.6-3.8-0.9c0-0.1,0-0.2,0.1-0.3c0.4,0,0.8,0,1.3,0c0-0.1,0-0.2,0-0.3c-1.2-0.1-2.4-0.3-3.7-0.4c0,0.1,0,0.2,0,0.3
	c0.5,0.2,1,0.3,1.8,0.6c-0.4-0.1-0.7-0.1-1,0c0.1,0.6,1.6,0.1,0.9,1.1c0.3,0.3,0.5,0.5,0.7,0.8h-0.1c0.6,0.6,1.3,1.2,2,1.9
	c-0.3,0.1-0.5,0.2-0.7,0.3c0.7,0.2,1.2,0.4,2,0.7c-0.5,0.2-0.8,0.3-1.2,0.5c0.6,0.2,1,0.4,1.8,0.7c-0.6,0.1-0.8,0.2-1.1,0.2
	c0.4,0.2,0.8,0.3,1.2,0.5c0,0.1,0,0.2-0.1,0.3c-0.5,0-1,0.1-1.5,0.1c1.1,0.3,2.2,0.6,3.3,0.9c0,0.1-0.1,0.3-0.1,0.4
	c-0.7,0-1.4-0.1-2.2-0.2c0.7,0.2,1.2,0.4,2,0.7c-0.5,0.2-0.7,0.4-0.9,0.5c1.2,0.5,2.3,1,3.5,1.5c0,0.1,0,0.1,0,0.2
	c-0.9,0.1-1.8,0.1-2.7,0.2c0,0.1,0,0.1,0,0.2c1.3,0.1,2.7,0.3,4,0.4c0,0.1,0,0.3,0,0.4c-1,0-1.9,0.1-2.9,0.1c0,0.1,0,0.2,0,0.2
	c0.8,0.1,1.6,0.2,2.4,0.3c0,0.1,0,0.2,0,0.3c-1.1,0-2.2,0-3.2,0v0.1c2.1,0.2,4.3,0.4,6.4,0.7c0,0.1,0,0.2,0,0.2c-1.6,0-3.1,0-4.7,0
	c0,0,0,0,0,0.1c0.7,0.1,1.5,0.3,2.2,0.4v0.1c-1.1,0.1-2.1,0.2-3.2,0.3c0,0,0,0,0,0.1c2.2,0.2,4.3,0.4,6.5,0.5c0,0.2,0,0.3,0,0.5
	c-1.8,0-3.6,0-5.4,0c0,0.1,0,0.2,0,0.2c0.9,0,1.9,0.1,2.8,0.1c0,0.1,0,0.3,0,0.4c-0.7,0-1.5,0.1-2.5,0.1c1.6,0.2,3,0.4,4.3,0.5
	c0,0.1,0,0.3,0,0.4c-1.4,0-2.9,0-4.3,0c0,0,0,0,0,0.1c2,0.1,4,0.3,6,0.4c0,0.1,0,0.3,0,0.4c-1.1-0.1-2.2-0.1-3.3-0.2v0.1
	c1.3,0.2,2.5,0.4,3.8,0.6c0,0.1,0,0.3,0,0.4c-1.4,0-2.9,0-4.3,0c0,0.1,0,0.2,0,0.3c0.6,0.1,1.2,0.1,1.8,0.2c0,0.1,0,0.1,0,0.2
	c-0.7,0.1-1.4,0.2-2,0.3c0,0.1,0,0.2,0,0.3c1.2,0,2.3,0,3.5,0c0,0.1,0,0.2,0,0.3c-0.9,0.1-1.8,0.2-2.7,0.3c0,0.1,0,0.2,0,0.3
	c1.4,0,2.8,0,4.2,0c0,0.1,0,0.1,0,0.2c-1.1,0.2-2.2,0.3-3.3,0.5c0,0.1,0,0.1,0,0.2c1.8,0,3.6,0,5.4,0c0,0.1,0,0.2,0,0.3
	c-1.6,0.1-3.2,0.2-4.8,0.4c0,0.1,0,0.2,0,0.2c1.4,0,2.8,0,4.1,0c0,0.1,0,0.2,0,0.3c-0.9,0.1-1.8,0.2-2.7,0.2c0,0.1,0,0.2,0,0.3
	c1.7-0.1,3.3-0.2,5-0.3c0-0.1,0-0.1,0-0.2c-0.3-0.1-0.5-0.2-0.9-0.3c0.7-0.2,1.3-0.4,2-0.6c-0.6-0.1-1.1-0.1-1.6-0.2
	c0-0.1,0-0.2,0-0.2c0.7-0.1,1.5-0.2,2.1-0.4c-0.7-0.1-1.5-0.2-2.3-0.3c0-0.1,0-0.2,0-0.3c0.4,0,0.9-0.1,1.3-0.1c0-0.1,0-0.2,0-0.3
	c-1.5,0-3.1,0-4.6,0c0-0.1,0-0.2,0-0.4c1.6,0,3.3,0,4.9,0v-0.1c-2-0.1-4-0.2-6-0.3c0-0.1,0-0.2,0-0.4c1.1-0.1,2.2-0.1,3.5-0.2
	c-0.5-0.1-0.8-0.2-1.1-0.3c0-0.1,0-0.2,0-0.3c1.5,0,2.9,0,4.4,0c0-0.1,0-0.2,0-0.2c-1.6-0.1-3.2-0.3-4.7-0.4c0-0.1,0-0.2,0-0.4
	c1.2,0,2.5,0,3.8,0c-0.2-0.2-0.3-0.4-0.5-0.6c0.5-0.1,0.9-0.1,1.2-0.2c0-0.1,0-0.1,0-0.2c-2.5-0.2-5.1-0.3-7.6-0.5
	c0-0.1,0-0.2,0-0.3c1.6-0.1,3.1-0.2,4.7-0.2v-0.1c-0.8,0-1.6-0.1-2.5-0.1c0-0.1,0-0.3,0-0.4c1.2,0.1,2.3,0.1,3.5,0.2v-0.1
	c-2.2-0.2-4.4-0.5-6.6-0.7c0-0.1,0-0.2,0-0.3c1.7,0.1,3.3,0.2,5,0.3v-0.1c-0.8-0.2-1.6-0.3-2.4-0.5c0-0.1,0-0.3,0.1-0.4
	c2,0.1,4,0.3,5.9,0.4v-0.1C31.4,32.4,29,32.1,26.6,31.8z M218.9,49.2c0.8-0.3,1.4-0.6,2.1-0.9v-0.1c-0.4,0-0.8,0.1-1.5,0.1
	c1-0.6,1.8-1,2.6-1.5c-0.3-0.1-0.5-0.2-1-0.3c1.1-0.5,2-1,3-1.4c-0.4,0-0.8-0.1-1.4-0.1c1.1-0.6,2-1.1,2.8-1.6l-0.1-0.1
	c-0.9,0.3-1.9,0.6-2.8,0.9c1.9-1.5,4.4-1.8,6.1-3.8c-0.4,0-0.6,0-1.1,0c0.6-0.6,1-1.1,1.4-1.5c-0.3,0.2-0.7,0.4-1.1,0.6
	c0-0.1-0.1-0.2-0.1-0.2c0.3-0.4,0.7-0.8,1.1-1.3c-0.5,0.1-0.8,0.2-1.1,0.3c0-0.3,0.1-0.6,0.1-0.8c-0.7,0.3-1.2,0.6-1.8,0.8
	c0-0.1-0.1-0.1-0.1-0.2c0.2-0.3,0.4-0.6,0.7-1.1c-0.6,0.4-1.1,0.6-1.6,0.9c-0.1-0.1-0.1-0.1-0.2-0.2c0.2-0.4,0.4-0.9,0.7-1.5
	c-0.7,0.5-1.1,0.8-1.7,1.2c0.1-0.6,0.1-1,0.2-1.4c-0.5,0.3-0.8,0.5-1.2,0.7c0-0.1-0.1-0.1-0.1-0.2c0.2-0.5,0.4-0.9,0.7-1.5
	c-0.7,0.5-1.3,0.9-1.9,1.2c-0.1-0.1-0.1-0.1-0.2-0.2c0.2-0.4,0.4-0.9,0.7-1.4c-0.6,0.3-1,0.6-1.5,0.8c0-0.1-0.1-0.1-0.1-0.2
	c0.3-0.4,0.6-0.9,1-1.3l-0.1-0.1c-0.5,0.4-1,0.7-1.8,1.3c0.3-0.7,0.4-1.1,0.6-1.7c-0.5,0.3-0.9,0.6-1.6,0.9c0.2-0.6,0.4-1,0.5-1.4
	c-0.5,0.2-0.9,0.4-1.4,0.6c0.1-0.5,0.1-0.8,0.2-1.1c-0.1,0-0.2-0.1-0.3-0.1c-0.3,0.5-0.6,1.1-0.9,1.6c0.6,0.3,1.2,0.6,2,0.9
	c0,0.2,0.1,0.5,0.2,0.9c0.3-0.1,0.4-0.2,0.7-0.3c0.1,0.5,0.1,1,0.2,1.4c0.2-0.1,0.4-0.2,0.9-0.5c-0.5,2.1-0.8,3.8-1.3,5.8
	c-0.3-0.4-0.4-0.5-0.7-0.8c-0.1,0.6-0.2,1-0.3,1.5c-0.3-0.1-0.6-0.3-0.8-0.4c-0.2,0.4-0.3,0.8-0.5,1.2c-0.3-0.3-0.5-0.4-0.7-0.6
	c-0.2,0.5-0.4,0.9-0.6,1.4c-0.2-0.5-0.4-0.8-0.6-1.2c-0.1,0-0.2,0.1-0.2,0.1c0,0.5,0,1.1,0,1.6c1.1-0.2,2.2-0.4,3.2-0.6
	c0,0.1,0.1,0.2,0.1,0.4c-0.4,0.1-0.9,0.2-1.3,0.4c-0.5,0.1-1.1,0.2-1.5,0.4c-1.6,1.1-2.4,2.6-2.8,4.4c-0.1,0.3,0.1,1,0.4,1
	c0.9,0.3,2,0.3,2.9,0.6c1.2,0.4,1.7-0.5,2.5-1c-0.7,0.1-1.3,0.2-2,0.3c0-0.1,0-0.1,0-0.2c1-0.4,2-0.8,3.2-1.2
	C219.4,49.4,219.2,49.3,218.9,49.2z M116.3,9.1c-0.1,0.1-0.1,0.2-0.2,0.3c-1.2-0.8-2.3-1.6-3.5-2.4c-0.1,0.1-0.2,0.2-0.3,0.4
	c0.9,0.8,1.8,1.5,2.7,2.3c-0.1,0.1-0.1,0.2-0.2,0.2c-0.9-0.6-1.8-1.2-2.8-1.7c0,0.1-0.1,0.1-0.1,0.2c0.8,0.7,1.6,1.5,2.5,2.2
	c-0.1,0.1-0.1,0.1-0.2,0.2c-0.8-0.4-1.6-0.9-2.4-1.3c-0.1,0.1-0.2,0.3-0.4,0.4c0.6,0.4,1.2,0.8,1.8,1.3c-0.1,0.1-0.1,0.2-0.2,0.2
	c-0.7-0.4-1.4-0.7-2.1-1.1l-0.1,0.1c0.8,0.7,1.5,1.3,2.3,2c-0.1,0.1-0.1,0.2-0.2,0.3c-0.7-0.3-1.4-0.7-2.4-1.2
	c0.3,0.5,0.5,0.7,0.7,1c-0.5,0-0.8-0.1-1.5-0.2c2.5,1.8,4.6,3.4,6.8,5c0.1-0.1,0.1-0.1,0.2-0.2c-1.2-1-2.4-2-3.7-3
	c0.1-0.1,0.1-0.2,0.2-0.3c1.6,1.1,3.2,2.1,4.8,3.2l0.1-0.1c-1.1-1-2.2-1.9-3.2-2.9c0.1-0.1,0.2-0.2,0.3-0.3c0.8,0.6,1.6,1.2,2.4,1.8
	l0.1-0.1c-1.1-1-2.1-1.9-3.2-2.9c0.1-0.1,0.2-0.2,0.3-0.3c1.5,1.1,3,2.3,4.4,3.4l0.1-0.1c-0.4-0.5-0.8-1-1.2-1.5
	c0.1-0.1,0.1-0.1,0.2-0.2c0.5,0.3,1,0.6,1.5,1l0.1-0.1c-0.6-0.7-1.2-1.4-1.9-2.1c0.1-0.1,0.1-0.1,0.2-0.2c1,0.8,2,1.6,2.9,2.4
	c0.1-0.1,0.3-0.3,0.4-0.4c-1-0.8-1.9-1.7-2.9-2.5c0.1-0.1,0.1-0.1,0.2-0.2c0.5,0.3,1.1,0.7,1.6,1c0.1-0.2,0.3-0.3,0.4-0.5
	c-1-0.8-2-1.7-3-2.5c0.1-0.1,0.2-0.2,0.2-0.3c1.6,1.4,3.3,2.7,4.9,4.1c0,0,0,0,0.1-0.1c-1.3-1.3-2.6-2.7-3.9-4
	c0.1-0.1,0.2-0.2,0.3-0.3c0.9,0.7,1.8,1.4,2.7,2.1l0.1-0.1c-1.1-1.1-2.2-2.3-3.3-3.4c0.1-0.1,0.2-0.2,0.3-0.3c1,0.8,2,1.7,3.1,2.5
	c-2.1-2.7-4-5.6-7.6-6.6c0.7,0.7,1.4,1.3,2.1,2c-0.1,0.1-0.2,0.2-0.2,0.3c-0.7-0.3-1.3-0.6-2-0.9c0.3,0.5,0.7,0.7,1.1,1.1
	c0.3,0.3,0.6,0.7,1,1c-0.1,0.1-0.1,0.1-0.2,0.2c-0.8-0.4-1.5-0.9-2.3-1.3c0,0,0,0.1-0.1,0.1c0.4,0.4,0.8,0.9,1.2,1.3
	c-0.1,0.1-0.1,0.2-0.2,0.3c-0.7-0.4-1.4-0.9-2.1-1.3l-0.1,0.1C114,7,115.1,8,116.3,9.1z M29.6,52.6c2.5-0.6,4.9-1.2,7.3-1.7
	c0-0.1,0-0.2-0.1-0.3c-1.3,0-2.5,0-4.1,0c0.8-0.4,1.2-0.6,1.6-0.7c-0.8-0.1-1.7-0.3-2.7-0.4c0.2-0.2,0.3-0.2,0.4-0.3v-0.1
	c-0.3-0.1-0.6-0.1-1-0.2c0.7-0.3,1.2-0.5,1.7-0.7v-0.1c-0.6,0.1-1.1,0.2-1.7,0.2c0-0.1,0-0.1-0.1-0.2c0.5-0.2,1-0.4,1.6-0.6v-0.1
	c-0.4,0-0.9,0.1-1.6,0.2c0.6-0.4,0.9-0.6,1.4-0.9c-3.5,0.8-6.7,1.5-10,2.2c0,0,0,0,0,0.1c2.4-0.4,4.8-0.7,7.2-1.1c0,0.1,0,0.2,0,0.3
	c-0.8,0.3-1.7,0.6-2.5,0.9v0.1c0.4,0,0.8-0.1,1.2-0.1c0,0.1,0,0.1,0,0.2c-1.4,0.4-2.9,0.9-4.3,1.3v0.1c1.3-0.2,2.6-0.5,3.9-0.7
	c0,0.1,0,0.2,0.1,0.3c-1.8,0.5-3.5,1-5.3,1.5c0,0.1,0,0.1,0,0.2c1.4-0.3,2.8-0.6,4.1-0.9c0,0.1,0.1,0.3,0.1,0.4
	c-2.8,0.7-5.6,1.4-8.4,2.2c0,0,0,0,0,0.1c1.2-0.2,2.4-0.4,3.6-0.5c0,0.1,0,0.2,0,0.2c-0.5,0.2-1,0.4-1.5,0.6v0.1
	c1.6-0.4,3.1-0.8,4.7-1.2c0,0.1,0.1,0.2,0.1,0.3c-2,0.7-4,1.3-5.9,2c0,0.1,0,0.1,0,0.2c3.9-1.1,7.7-2.3,11.6-3.4
	c0,0.1,0,0.1,0.1,0.2C30.8,52,30.3,52.3,29.6,52.6z M110.7,16c0.1-0.1,0.2-0.3,0.3-0.4c1.3,1,2.7,1.9,4,2.9c0.1-0.1,0.1-0.2,0.2-0.3
	c-2-1.5-4.1-2.9-6.1-4.4c-0.1,0.2-0.3,0.3-0.4,0.5c0.4,0.2,0.8,0.4,1.3,0.7c-0.1,0.1-0.2,0.2-0.2,0.3c-0.6-0.2-1.1-0.5-1.9-0.8
	c0.3,0.4,0.5,0.6,0.9,1c-0.5-0.1-0.9-0.1-1.2-0.2c0,0.1-0.1,0.1-0.1,0.2c1,0.6,1.9,1.2,2.9,1.8l0.1-0.1c-0.3-0.4-0.7-0.7-1-1.1
	c0.1-0.1,0.1-0.1,0.2-0.2c1.2,0.8,2.3,1.6,3.5,2.3l0.1-0.1C112.3,17.5,111.5,16.7,110.7,16z M141.1,34.9c-0.1-1.1-0.3-2.3-0.4-3.5
	c0.1,0,0.5-0.1,1.1-0.3c-0.8-0.2-1.3-0.4-1.7-0.5c0-0.1,0-0.1,0.1-0.2c0.5-0.1,1-0.1,1.5-0.2c0-0.1,0-0.1,0-0.2
	c-0.4-0.1-0.8-0.3-1.2-0.4c0-0.1,0-0.1,0-0.2c0.4-0.1,0.8-0.1,1.6-0.3c-0.8-0.2-1.2-0.3-1.4-0.4c0.2-0.5,0.3-1,0.5-1.4
	C139,29.8,138.9,33.1,141.1,34.9z M162.2,28.4c-1.6,0.9-2,4.9,0.3,6.4c0-0.6,0-1.2,0-1.8c0.1-0.1,0.3-0.2,0.7-0.4
	c-0.4-0.2-0.7-0.3-1-0.5c0.4-0.1,0.8-0.2,1.3-0.4c-0.7-0.2-1.2-0.4-1.8-0.6c0.5-0.2,1-0.3,1.6-0.5c-0.6-0.2-0.9-0.3-1.3-0.5
	c0.3-0.2,0.5-0.3,0.5-0.3C162.3,29.1,162.3,28.7,162.2,28.4z M145.3,31.2c0-0.1,0-0.1-0.1-0.2c-0.5,0-0.9-0.1-1.7-0.2
	c0.8-0.3,1.3-0.6,1.9-0.8c-0.6-0.2-1.1-0.4-1.7-0.6c0.5-0.1,0.7-0.2,1-0.3c-0.3-0.4-0.6-0.8-0.9-1.2c-1.3,2.1-1.1,3.5,0.8,5.7
	c0.1-0.6,0.3-1.1,0.4-1.8c-0.1-0.1-0.3-0.2-0.7-0.3C144.7,31.4,145,31.3,145.3,31.2z M129.9,27.6c-0.1-0.1-0.2-0.2-0.3-0.2
	c-1,0.4-1.7,1.1-1.9,2.3c-0.3,1.6,0.9,2.3,2.1,3.1c-0.1-0.5-0.1-0.9-0.2-1.4c0.1-0.1,0.4-0.2,0.7-0.3c-0.6-0.1-1-0.3-1.4-0.4
	c0-0.1,0-0.1,0-0.2c0.4-0.1,0.7-0.1,1.4-0.2c-0.8-0.3-1.2-0.4-1.7-0.6c0-0.1,0-0.1,0-0.2c0.4,0,0.7-0.1,1.3-0.2
	c-0.6-0.2-1-0.4-1.7-0.6c0.8-0.1,1.3-0.2,1.9-0.4c-0.4-0.2-0.7-0.3-0.9-0.5C129.5,27.8,129.7,27.7,129.9,27.6z M91,29.9
	c-1.7,1.8-1.6,4.6,0.2,5.4c0-0.5,0-1.1,0-1.8c0.1-0.1,0.4-0.2,0.8-0.4c-0.4-0.2-0.7-0.4-1-0.7c0.4-0.2,0.7-0.3,0.7-0.4
	C91.4,31.3,91.2,30.6,91,29.9z M165.6,28.9c-0.1,0-0.2-0.1-0.3-0.1c-1.6,2-1.4,4,0.8,6c-0.1-0.8-0.2-1.3-0.3-1.9
	c0.2-0.1,0.5-0.2,1.1-0.5c-0.6-0.1-0.8-0.2-1.2-0.2c0.3-0.2,0.5-0.4,0.7-0.5c-0.5-0.2-1-0.4-1.4-0.5c0-0.1,0-0.2,0.1-0.2
	c0.4,0,0.8-0.1,1.5-0.1c-0.6-0.3-1-0.5-1.2-0.7C165.4,29.7,165.5,29.3,165.6,28.9z M159.6,33c-0.1,0-0.2-0.1-0.4-0.1
	c0.2-0.2,0.5-0.3,1.1-0.7c-0.4-0.1-0.7-0.1-1-0.2c0.5-0.3,0.7-0.5,1.1-0.7c-0.5-0.2-0.9-0.3-1.3-0.5c0.2-0.1,0.3-0.2,0.3-0.2
	c-0.3-0.6-0.6-1.1-0.8-1.7c-1,1.5-0.9,3.9,0.6,5.5C159.5,33.8,159.6,33.4,159.6,33z M96.2,32.3c0.6-0.2,0.9-0.4,1.1-0.4
	c-0.4-0.7-0.7-1.4-1-2.1C94.9,32.3,95,33.9,97,35c-1.2-0.9,0.1-0.9,0.1-1.4c0.1-0.4,0.4-0.7,0.6-1.1C97.3,32.5,96.9,32.4,96.2,32.3z
	 M109.1,31c-1.3,0.3-0.4-1.3-1.1-1.5c-1.4,2.3-1.3,4.1,0.2,5.6c0.1-0.4,0.4-0.9,0.3-1.3c-0.2-0.6-0.2-1.5,0.1-1.9
	c-0.2-0.1-0.4-0.3-0.7-0.5C108.4,31.3,108.7,31.1,109.1,31z M121.8,66.2c-0.9,1.5-3.1,1.8-2.9,3.8c0.6,0.4,2.6-1.3,3.7-3.6
	C122.3,66.3,122,66.3,121.8,66.2z M113.1,28.7c-1.4,2-1.2,3.9,0.5,5.3c0-0.7,0-1.2,0-1.9c0.1,0,0.3-0.2,0.7-0.4
	c-0.5-0.2-0.9-0.3-1.4-0.5c0.6-0.2,1-0.3,1-0.4C113.6,30.1,113.4,29.4,113.1,28.7z M155.8,28.5c-1.3,2.2-1.3,2.2,0.5,4.8
	c0.3-0.3,0.6-0.7,0.9-1c-0.3-0.1-0.4-0.2-0.7-0.3c0.3-0.2,0.6-0.3,1.1-0.5c-0.6-0.2-1.1-0.4-1.9-0.7c0.8-0.1,1.2-0.2,1.6-0.3
	c0-0.1,0-0.1,0-0.2c-0.4-0.1-0.9-0.3-1.5-0.5c0.4-0.2,0.6-0.3,0.8-0.4C156.3,29,156.1,28.7,155.8,28.5z M126.5,33.1
	c0.7-0.6,0.5-1-0.5-1.2c0.5-0.2,0.8-0.3,1.2-0.4c-0.6-0.2-1-0.4-1.5-0.6c0.4-0.2,0.8-0.4,1.3-0.6c-0.7-0.2-1.2-0.3-1.5-0.4
	c-0.1-0.4-0.2-0.7-0.3-1.1C124.1,30.5,124.3,31,126.5,33.1z M77.6,56.5c-0.1-0.1-0.1-0.2-0.2-0.3c-0.5,0.2-1.1,0.5-1.6,0.7
	c-0.1-0.1-0.2-0.2-0.2-0.3c0.3-0.2,0.6-0.3,0.9-0.5c-0.1-0.1-0.1-0.2-0.2-0.3c-0.4,0-0.7,0.1-1.1,0.1c0-0.2,0-0.5,0-0.8
	c-1,0.6-1.8,1-2.6,1.5c0,0,0,0.1,0.1,0.1c0.6-0.2,1.1-0.3,1.7-0.5c0,0.1,0.1,0.2,0.1,0.2c-0.3,0.2-0.6,0.4-1,0.7
	c0.5-0.1,1-0.1,1.4-0.2c0,0.1,0.1,0.1,0.1,0.2c-0.5,0.4-1.1,0.8-1.6,1.1c0,0.1,0.1,0.1,0.1,0.2C74.9,57.9,76.3,57.2,77.6,56.5z
	 M148.5,30.1c-0.8-0.2-1.2-0.4-1.9-0.6c0.5-0.1,0.8-0.2,1.1-0.2c-0.4-0.5-0.7-0.9-1.1-1.3c-1,1.3-1.4,1.7,1.3,5.1
	c0.1-0.7,0.1-1.4,0.2-2.1c-0.2-0.1-0.6-0.2-1.3-0.3C147.5,30.4,147.9,30.3,148.5,30.1z M137.6,28.7c-1.7,2-1.5,3.7,0.2,4.8
	c0.2-0.4,0.3-0.9,0.5-1.4c-0.1-0.1-0.5-0.2-0.9-0.4c0.6-0.2,1-0.3,1.6-0.5c-0.8-0.2-1.4-0.4-2-0.6c0-0.1,0-0.1,0-0.2
	c0.4,0,0.8-0.1,1.6-0.2c-0.7-0.3-1-0.5-1.3-0.6C137.4,29.4,137.5,29.1,137.6,28.7z M134.7,28.5c-1.4,1.8-1.4,3.2,0.2,4.7
	c0.2-0.7,0.4-1.4,0.6-2.1c-0.1,0-0.4-0.2-0.8-0.4c0.4-0.2,0.7-0.3,1-0.5c-0.3-0.2-0.7-0.3-1.1-0.5c0.4-0.2,0.8-0.3,1.2-0.4
	C135.4,29,135,28.8,134.7,28.5z M150.1,30.5c0.6-0.1,0.9-0.2,1.2-0.3c0-0.1,0-0.1,0-0.2c-0.6-0.1-1.1-0.2-1.7-0.4c0-0.1,0-0.1,0-0.2
	c0.4-0.1,0.8-0.1,1.2-0.2c0-0.1,0-0.1,0-0.2c-0.4-0.1-0.7-0.2-0.8-0.2c-0.1-0.5-0.1-0.8-0.2-1.4c-2,2.4,0.5,3.5,0.8,5.5
	c0.3-0.9,0.5-1.5,0.6-2C151,30.9,150.7,30.8,150.1,30.5z M105.6,32c-0.4-0.1-0.7-0.2-1-0.3c0.3-0.2,0.5-0.4,0.8-0.6
	c-0.3-0.2-0.6-0.3-0.9-0.5c0.3-0.2,0.6-0.3,0.8-0.4c-0.2-0.4-0.3-0.7-0.4-1.1c-1.5,1.8-1.4,3.5,0.4,5.4c0.1-0.6,0.1-1.1,0.2-1.7
	c-0.1,0-0.3-0.2-0.5-0.4C105.2,32.3,105.3,32.2,105.6,32z M153.1,28.2c-1.3,1.8-1.3,2.3,0.8,5.2c-0.1-0.8-0.1-1.3-0.2-1.8
	c0.1,0,0.3-0.1,0.5-0.3c-0.4-0.3-0.8-0.5-1.3-0.8c0.6-0.1,1-0.1,1.3-0.1c0-0.1,0-0.1,0-0.2c-0.4-0.1-0.9-0.2-1.5-0.4
	c0.5-0.2,0.8-0.4,1.1-0.6C153.6,28.8,153.4,28.5,153.1,28.2z M152.6,36.3c0.1-0.5,0.1-1.1,0.2-1.8c0,0,0.2-0.1,0.6-0.3
	c-0.4-0.2-0.7-0.3-1.1-0.4c0.4-0.3,0.6-0.4,0.7-0.5c-0.3-0.7-0.5-1.2-0.8-1.8C151,33.3,151.2,34.8,152.6,36.3z M94.4,32.2
	c-0.3-0.1-0.5-0.3-0.5-0.3c-0.1-0.8-0.2-1.5-0.3-2.3c-1.4,2.3-1.3,3.9,0,5c0.1-0.5,0.3-1.1,0.4-1.7c0,0-0.2-0.1-0.5-0.2
	C93.9,32.5,94.1,32.3,94.4,32.2z M117,33.5c0.9-0.7,0.1-1-0.5-1.3c0.6-0.2,1-0.4,1.7-0.6c-0.8-0.2-1.3-0.3-2.1-0.5
	c0.5-0.2,0.8-0.4,1.3-0.6c-0.5-0.2-0.8-0.3-0.9-0.4c0-0.5-0.1-0.9-0.1-1.3C115.2,30.5,115.5,32.2,117,33.5z M131.6,28.4
	c-1.1,2-0.9,3.3,0.6,4.6c0-0.6,0-1,0-1.6c0.1-0.1,0.4-0.2,0.7-0.4c-0.4-0.2-0.7-0.3-1.1-0.5c0.3-0.2,0.4-0.3,0.4-0.3
	C132,29.6,131.8,29.1,131.6,28.4z M99.4,30.2C98,31.8,98,33.3,99.3,35c0.1-0.6,0.2-1.1,0.2-1.7c0,0-0.2-0.2-0.5-0.3
	c0.4-0.1,0.7-0.2,1.2-0.4c-0.4-0.2-0.7-0.4-1-0.5c0.2-0.2,0.4-0.3,0.6-0.5c-0.3-0.1-0.6-0.2-0.7-0.3C99.3,30.8,99.4,30.5,99.4,30.2z
	 M119.8,31c0.4-0.2,0.7-0.4,1-0.5c-0.5-0.2-0.8-0.3-0.9-0.3c-0.2-0.6-0.3-1-0.5-1.7c-0.8,2.1-0.3,3.7,1.6,4.6
	c-0.2-0.5-0.3-0.8-0.4-1.2c0.1-0.1,0.4-0.2,0.8-0.4C120.8,31.3,120.5,31.2,119.8,31z M88.5,33.1c0.1-1,0.1-1.7,0.1-2.5
	c-1.7,2-1.8,3.5-0.4,4.6c-0.1-0.6-0.1-1.1-0.2-1.5c0.2-0.1,0.4-0.2,0.7-0.3C88.6,33.1,88.5,33,88.5,33.1z M32.8,53.3
	c0-0.1-0.1-0.2-0.1-0.3c-3.4,1.2-6.7,2.4-10.1,3.6c0,0.1,0.1,0.2,0.1,0.3C26.1,55.7,29.5,54.5,32.8,53.3z M101.9,32.1
	c0.1,0-0.1-0.1-0.4-0.2c0.5-0.2,0.8-0.3,1.3-0.5c-0.4-0.2-0.7-0.3-1-0.5c0.2-0.2,0.4-0.4,0.8-0.7c-0.6,0-1-0.1-1.2,0
	c-1,0.7-0.6,3.7,0.4,4.2C101.9,33.8,101.9,33.1,101.9,32.1z M74.6,59.1c0,0.1,0.1,0.2,0.1,0.2c1.7-0.7,3.5-1.5,5.2-2.2
	c0-0.1-0.1-0.2-0.1-0.3c-0.5,0.2-1,0.3-1.5,0.5c0.1-0.3,0.2-0.6,0.5-1.2C77.2,57.3,75.9,58.2,74.6,59.1z M105.3,28.1
	c0.3,1.2,0.7,2.3,1,3.4c0.1,0,0.2,0,0.2,0c0.2-0.9,0.5-1.7,0.7-2.6c-0.1,0-0.4-0.1-0.9-0.2c0.4-0.2,0.5-0.4,0.9-0.6
	C106.5,28,106,28,105.3,28.1z M110.7,28.8c-1.1,1.7-0.8,3,1.1,3.6c-0.1-0.6-0.2-1.1-0.3-1.8c0,0-0.2-0.1-0.5-0.2
	c0.3-0.2,0.6-0.3,0.7-0.4C111.3,29.6,111,29.3,110.7,28.8z M101.2,35.9c-0.1,0-0.2,0-0.3,0c0.2-0.1,0.5-0.3,0.8-0.5
	c-0.4-0.1-0.7-0.2-0.9-0.3c-0.1-0.7-0.2-1.2-0.3-2c-1,2.1-0.8,3.3,0.5,4.4C101.1,36.9,101.2,36.4,101.2,35.9z M115.5,17.6
	c-1.8-1.8-3.6-3.5-6.1-4.3C111.4,14.8,113.4,16.2,115.5,17.6z M76,34.9c0.1,0,0.4-0.2,0.5-0.2c0-0.5-0.1-0.8-0.1-1
	c-0.4-0.4-0.7-0.7-1.1-1c-0.7,2-0.5,2.8,0.9,4C76.2,36.1,76.1,35.6,76,34.9z M31.6,43.3c0-0.1,0-0.1,0-0.2c-1.6,0.1-3.1,0.2-4.6,0.3
	c0.2,0.3,0.3,0.7,0.5,0.8c0.3,0.1,0.8,0,1.1-0.1c0.1,0,0.2-0.4,0.3-0.6c0.2,0.1,0.5,0.4,0.7,0.4c0.8,0.1,1.5,0,2.4,0
	c-0.4-0.2-0.7-0.3-1.2-0.5C31.3,43.4,31.5,43.3,31.6,43.3z M81.7,34.1c-0.4-0.2-0.6-0.3-0.9-0.4c0.3-0.2,0.5-0.3,0.7-0.5
	c-0.2-0.4-0.5-0.8-0.7-1.3c-1.1,1.7-0.9,3.9,0.5,4.6C81.1,35.8,80.2,34.9,81.7,34.1z M179.3,31c0-0.1,0-0.1,0-0.2
	c0.4,0,0.8-0.1,1.2-0.1c-0.7-0.5-1.4-1-1.9-1.3c-0.6,1.7,0.3,2.7,1.6,3.5c-0.2-0.3-0.3-0.7-0.5-1c0.2-0.1,0.4-0.2,0.9-0.3
	C180.1,31.2,179.7,31.1,179.3,31z M77.3,33.4c-0.2-0.4-0.3-0.8-0.5-1.2c0.2-0.1,0.5-0.2,0.8-0.4c-0.5-0.2-0.8-0.3-1.4-0.5
	c0.5-0.2,0.8-0.4,1.1-0.5c-0.2,0.2-0.4,0.3-0.6,0.5c-0.2-0.4-0.5-0.7-0.6-1C75.4,31.6,75.6,32.3,77.3,33.4z M118.6,27.6
	c-0.8,0-1.3,0-2.3,0c0.7,1.2,1.2,2.1,1.7,3c0.2-0.1,0.3-0.1,0.5-0.2c-0.1-0.5-0.3-1-0.5-1.5c0.1,0,0.3-0.2,0.5-0.4
	c-0.4-0.1-0.8-0.3-1.3-0.4C117.7,28,118,27.9,118.6,27.6z M85.7,31.1c-1.3,1.7-1.3,2.4,0.1,4.1c0.1-0.6,0.1-1.2,0.2-1.8
	c0,0-0.1-0.1-0.4-0.2c0.3-0.2,0.5-0.3,0.4-0.3C85.9,32.1,85.8,31.7,85.7,31.1z M59.5,38.8c-0.1-0.8-0.1-1.2-0.2-1.8
	c0.1,0,0.4-0.2,0.8-0.4c-0.3-0.1-0.6-0.3-0.7-0.3c0-0.5,0.1-0.9,0.1-1.5C58.2,36.1,57.7,37.8,59.5,38.8z M72.7,33.7
	c0-0.4,0.1-0.7,0.1-1c-1.3,1.6-1,3.1,0.7,3.9c-0.3-0.5-0.4-0.9-0.6-1.2c0.2-0.2,0.4-0.3,0.7-0.5c-0.4-0.1-0.7-0.2-1.1-0.4
	c0.4-0.2,0.7-0.4,1.1-0.6C73.2,33.8,72.9,33.8,72.7,33.7z M70.9,34.3c-0.5-0.2-0.9-0.3-1.3-0.5c-0.5,1.6-0.3,2.4,1.2,3.1
	c-0.1-0.5-0.3-0.9-0.4-1.4c0.2-0.1,0.4-0.2,0.9-0.4c-0.6-0.1-0.9-0.2-1.4-0.3C70.4,34.7,70.6,34.5,70.9,34.3z M67.8,37.6
	c-0.1-0.6-0.2-1.2-0.3-1.8c0.3-0.1,0.7-0.2,1.1-0.3c-0.6-0.3-1.1-0.6-1.7-0.8C66,35.8,66.3,37,67.8,37.6z M61.5,36
	c0.4-0.2,0.7-0.3,0.6-0.3c0.1-0.7,0.1-1.2,0.1-1.6c-1.6,1.3-1.8,3.1-0.2,4.1c-0.3-0.6-0.4-0.9-0.6-1.3c0.3-0.1,0.5-0.2,1-0.4
	C62.1,36.3,61.9,36.2,61.5,36z M160,27.9c0.5-0.1,0.8-0.2,1.1-0.3c0-0.1,0-0.1,0-0.2c-0.6,0-1.1,0-2,0c0.4,1.1,0.7,2,1.1,2.9
	c0.2-0.1,0.4-0.1,0.5-0.2c-0.1-0.5-0.2-1-0.4-1.6c0.2,0,0.4-0.1,0.8-0.2C160.8,28.3,160.5,28.1,160,27.9z M110.6,34
	c-0.2-0.5-0.5-1-0.6-1.5c-0.1-0.2-0.1-0.4-0.1-0.6c-0.2,0.1-0.6,0.2-0.6,0.4c-0.4,1,0,2.1,1.1,2.8c0,0,0.1,0,0.3-0.1
	c-0.1-0.3-0.3-0.6-0.4-0.9C110.4,34.1,110.6,34,110.6,34z M188.7,33.5c-1.3,1.4-2.2,4.2-1.9,5.9C187.4,37.5,188,35.6,188.7,33.5z
	 M123.9,33.4c0-0.7,0-1.3,0-2.1c-0.2,0-0.5-0.1-0.9-0.1c0.2-0.2,0.4-0.4,0.5-0.6c-0.2-0.1-0.4-0.2-0.7-0.3
	C121.9,31.6,122.9,32.5,123.9,33.4z M183.7,29.7c-0.1,0.1-0.2,0.2-0.2,0.3c0.5,1,1,1.9,1.4,2.9c0.1,0,0.1-0.1,0.2-0.1
	c0-0.3,0-0.6,0.1-1.1c0,0-0.2-0.1-0.5-0.4c0.4,0,0.7-0.1,1.1-0.1c-0.5-0.2-1-0.4-1.7-0.7c0.7-0.1,1-0.2,1.6-0.3
	C184.8,29.9,184.3,29.8,183.7,29.7z M78.9,35.7c0.7-1.4-0.3-2.3-0.6-3.4C77.4,33.5,77.5,34.2,78.9,35.7z M110.3,18.6
	c0.1-0.1,0.1-0.2,0.2-0.3c-1.6-1-3.2-1.9-4.8-2.9c-0.1,0.1-0.1,0.2-0.2,0.3C107.1,16.6,108.7,17.6,110.3,18.6z M56.7,36.3
	c0-0.5,0-0.8,0-1.1c-1.4,1.1-1.5,2.7,0.1,3.6c-0.2-0.7-0.3-1.2-0.5-1.7c0.2,0,0.4-0.1,0.8-0.2c-0.4-0.2-0.6-0.3-0.8-0.5
	C56.5,36.4,56.7,36.2,56.7,36.3z M115.4,27.8c-0.7-0.1-1.1-0.1-1.9-0.2c0.5,1.2,0.9,2.2,1.3,3.1c0.2-0.1,0.4-0.2,0.5-0.2
	c-0.2-0.5-0.4-1-0.6-1.5c0.2-0.1,0.5-0.2,0.8-0.3c-0.4-0.1-0.7-0.2-1.1-0.4C114.8,28.1,115,28,115.4,27.8z M171.9,30
	c-0.5-0.3-1.3-0.5-0.3-0.9c-0.4-0.1-0.6-0.2-1.3-0.4c0.2,1.4,0.4,2.6,0.6,3.8c0.2,0,0.3,0,0.5-0.1c-0.1-0.7-0.1-1.3-0.2-2
	C171.3,30.3,171.5,30.2,171.9,30z M82.3,33.9c-0.8,1.3-0.8,2.5,0.1,3.1c-0.7-0.7,1-0.8,0.2-1.5C83.4,34.9,82.3,34.5,82.3,33.9z
	 M182.4,31.9c0.1,0,0.3-0.1,0.6-0.1c-0.3-0.2-0.6-0.4-0.9-0.6c0.4-0.2,0.6-0.3,1.1-0.5c-0.8-0.1-1.4-0.2-2.3-0.3
	c0.5,1.1,0.9,2,1.4,2.8c0.1,0,0.2-0.1,0.4-0.1C182.6,32.7,182.5,32.3,182.4,31.9z M124.6,28.5c0-0.1,0-0.2,0-0.2
	c-0.8-0.1-1.5-0.2-2.3-0.3c-0.1,0.1-0.1,0.2-0.2,0.3c0.5,0.6,1.1,1.2,1.6,1.8c0.1-0.1,0.2-0.2,0.4-0.3c-0.2-0.3-0.4-0.7-0.6-1
	C123.8,28.7,124.2,28.6,124.6,28.5z M95.1,37.1c0.1-0.4,0.2-0.9,0.3-1.3c-0.2-0.1-0.4-0.2-0.7-0.3c0.3-0.2,0.5-0.3,0.7-0.5
	c-0.4-0.2-0.7-0.3-1.1-0.5C93.9,35.7,94.2,36.5,95.1,37.1z M104.5,28.5c-0.8-0.1-1.4-0.1-2.1-0.2c0.3,1,0.5,1.8,0.8,2.6
	c0.1,0,0.2,0,0.3,0c0.1-0.5,0.3-1,0.4-1.5c-0.2-0.1-0.4-0.1-0.8-0.3C103.6,28.8,103.9,28.7,104.5,28.5z M74.7,32
	c-0.5-0.3-0.9-0.6-1.3-0.9c-0.5,1.1-0.3,1.8,1.2,2.4c-0.2-0.4-0.4-0.8-0.6-1.2C74.1,32.3,74.4,32.2,74.7,32z M166.1,28.4
	c-0.1,0.1-0.1,0.2-0.2,0.3c0.4,0.7,0.8,1.5,1.4,2.5c0.1-0.8,0.1-1.2,0.2-1.7c-0.1-0.1-0.3-0.2-0.6-0.5c0.5-0.1,0.8-0.1,1.1-0.2
	c0-0.1,0-0.1,0-0.2C167.3,28.6,166.7,28.5,166.1,28.4z M71.4,56.4c1.1-0.5,2-0.9,2.8-1.2c0-0.1-0.1-0.2-0.1-0.3
	c-0.5,0.2-1.1,0.3-1.8,0.5c0.2-0.4,0.3-0.6,0.6-1.1c-0.9,0.5-1.5,0.8-2.2,1.2c0.5,0,0.8,0,1.2,0.1C71.7,55.8,71.6,56,71.4,56.4z
	 M172.3,28.9c0.5,1,0.9,1.9,1.2,2.7c0.1-0.1,0.3-0.1,0.4-0.2c-0.2-0.4-0.3-0.8-0.5-1.1c0.2-0.1,0.4-0.1,0.8-0.2
	c-0.4-0.2-0.6-0.4-0.8-0.5c0.3-0.2,0.4-0.3,0.7-0.5C173.6,29,173.1,28.9,172.3,28.9z M126.8,28.1c-0.5-0.2-1.1-0.6-1.8-0.9
	c0.2,1.1,1,1.8,2.1,2.3C127,29,126.9,28.7,126.8,28.1z M151.8,27.4c0-0.1,0-0.2-0.1-0.2c-0.5,0-1,0-1.8,0c0.7,0.8,1.2,1.4,1.9,2.1
	c0.7-1.1-0.4-1.2-0.9-1.7C151.2,27.5,151.5,27.5,151.8,27.4z M89.3,34.1c-0.7,1.3-0.5,2.3,0.8,3c-0.1-0.5-0.2-1.1-0.3-1.6h0.1
	C89.7,35,89.5,34.5,89.3,34.1z M108.7,27.7c-0.1,0.1-0.3,0.2-0.4,0.3c0.3,0.8,0.6,1.6,1,2.3c0.1,0,0.3-0.1,0.4-0.1
	c-0.1-0.3-0.2-0.7-0.3-1.1c0.1-0.1,0.4-0.2,0.7-0.4C109.5,28.4,109.1,28.1,108.7,27.7z M100.8,28.8c0-0.1,0-0.1,0-0.2
	c-0.3,0.1-0.9,0.2-0.9,0.3c0.1,0.7,0.2,1.4,0.3,2.1c0.1,0,0.2,0,0.4-0.1c0.1-0.5,0.3-0.9,0.4-1.4c-0.1-0.1-0.4-0.2-0.7-0.4
	C100.5,28.9,100.6,28.8,100.8,28.8z M18.9,49.9c0,0.1,0,0.2,0,0.2c2-0.3,4-0.5,6-0.8c0-0.1,0-0.2,0-0.3
	C22.9,49.4,20.9,49.7,18.9,49.9z M104.7,17.1c-0.1,0.1-0.2,0.3-0.2,0.4c1.2,0.7,2.4,1.4,3.6,2.1c0.1-0.1,0.1-0.2,0.2-0.3
	C107.1,18.5,105.9,17.8,104.7,17.1z M87.1,29.7c-0.2,0-0.5,0.1-1.1,0.1c0.3,0.8,0.5,1.6,0.7,2.3c0.1,0,0.3,0,0.4-0.1
	C87.1,31.3,87.1,30.5,87.1,29.7z M82.5,31.2c-0.2-0.4-0.4-0.6-0.6-0.9c-0.8,0.4-0.8,1.3,0.3,2.7C82.4,32.2,82.4,31.6,82.5,31.2z
	 M142.3,29.2c0.2,0,0.3,0,0.5-0.1c0-0.5-0.1-1-0.1-1.7c-0.1,0,0.1-0.1,0.5-0.3c-0.6,0-1,0-1.5,0C141.9,27.9,142.1,28.5,142.3,29.2z
	 M153.5,27.1c-0.1,0.1-0.2,0.2-0.2,0.3c0.5,0.6,0.9,1.3,1.5,1.9c0.1-0.5,0.2-0.8,0.3-1.2c-0.3-0.1-0.6-0.3-1.1-0.5
	c0.4-0.1,0.5-0.2,0.9-0.3C154.3,27.2,153.9,27.2,153.5,27.1z M148.8,27.9c-0.4-0.4-0.9-0.7-1.4-1.1c-0.1,0.1-0.2,0.2-0.3,0.3
	c0.4,0.7,0.8,1.3,1.2,2C148.5,28.7,148.7,28.3,148.8,27.9z M187.5,33c0.1,0,0.2,0.1,0.4,0.1c0.4-0.7,1.2-1.4,1-2.3
	c-0.2-0.1-0.3-0.1-0.5-0.2C188.1,31.4,187.8,32.2,187.5,33z M97.6,31c0.1,0,0.2-0.1,0.3-0.1c0.1-0.4,0.2-0.8,0.4-1.3
	c-0.1,0-0.4-0.1-1-0.4c0.7-0.2,1.1-0.2,1.6-0.3v-0.1c-0.6,0-1.1,0-1.9,0C97.2,29.7,97.4,30.3,97.6,31z M222.8,48.7
	c0.1,0.1,0.1,0.2,0.2,0.3c1.4-0.8,2.8-1.6,4.2-2.4c0-0.1-0.1-0.2-0.1-0.3C225.6,47.1,224.2,47.9,222.8,48.7z M83.8,32.8
	c-0.2-0.4-0.4-0.8-0.6-1.2c-0.1,0-0.2,0-0.3,0c0.1,1,0.1,2,0.2,3c0.1,0,0.2,0,0.3,0C83.5,34,83.6,33.3,83.8,32.8z M164.6,28.6
	c-0.6-0.1-1.1-0.2-1.8-0.3c0.4,0.9,0.6,1.6,0.9,2.2c0.1,0,0.3-0.1,0.4-0.1c0-0.5-0.1-1-0.1-1.6C163.9,28.8,164.2,28.7,164.6,28.6z
	 M92.5,34c-1,1.4-1,1.8,0.2,2.9C92.6,35.8,92.5,35,92.5,34z M145.2,29.1c0.1,0,0.2-0.1,0.3-0.1c0.1-0.3,0.1-0.6,0.2-1
	c-0.1-0.1-0.4-0.3-0.7-0.6c0.4-0.1,0.7-0.2,1.1-0.3c-0.5-0.1-1-0.1-1.8-0.3C144.6,27.8,144.9,28.5,145.2,29.1z M47.6,36.2
	c-0.1,0-0.2-0.1-0.2-0.1c-0.2,0.5-0.6,0.9-0.7,1.4c0,0.4,0.3,0.8,0.5,1.2c0.1,0,0.1-0.1,0.2-0.1C47.5,37.8,47.5,37,47.6,36.2z
	 M86.9,37.2c0.1,0,0.2,0,0.3,0c0.1-0.3,0.3-0.6,0.4-1c-0.1,0-0.2,0.1-0.3,0.1c-0.2-0.6-0.4-1.3-0.6-1.9c-0.1,0-0.3,0.1-0.4,0.1
	C86.5,35.4,86.7,36.3,86.9,37.2z M16.2,58.8c0-0.1,0-0.2-0.1-0.3c-1.7,0.4-3.4,0.9-5.2,1.3c0,0.1,0,0.1,0,0.2
	C12.7,59.6,14.4,59.2,16.2,58.8z M68.6,34.7c0.1,0,0.2-0.1,0.3-0.1c-0.1-0.6-0.2-1.2-0.3-1.9c-0.3,0.1-0.6,0.1-1.2,0.2
	C67.9,33.6,68.3,34.1,68.6,34.7z M29.7,45.8c0-0.1,0-0.2,0-0.3c-1.7,0.3-3.4,0.5-5,0.8c0,0.1,0,0.1,0,0.2
	C26.4,46.3,28,46.1,29.7,45.8z M94.7,31.5c0.1,0,0.1,0,0.2,0c0.1-0.5,0.2-1.1,0.3-1.8c-0.2-0.2-0.6-0.4-0.9-0.7
	c-0.1,0.1-0.2,0.2-0.3,0.3C94.3,30,94.5,30.7,94.7,31.5z M16,52.6c0,0.1,0,0.2,0,0.2c1.6-0.3,3.2-0.5,4.9-0.8c0-0.1,0-0.1,0-0.2
	C19.3,52,17.6,52.3,16,52.6z M187,29.8c-0.1-0.1-0.2-0.3-0.3-0.4c0.3,0,0.5,0,0.8,0c0-0.1-0.1-0.1-0.1-0.2c-0.3,0-0.5,0-1-0.1
	c0.3,0.9,0.6,1.6,1,2.7c0.2-0.8,0.2-1.2,0.3-1.8C187.6,30.1,187.3,30,187,29.8z M79.9,31.4c-0.4,0-0.8,0-1.4,0
	c0.4,0.7,0.6,1.3,1,2.1C79.7,32.6,79.8,32.1,79.9,31.4z M84.7,30.8c-0.1-0.1-0.3-0.4-0.6-0.9c-0.7,0.8-0.2,1.5,0.3,2.3
	C84.5,31.7,84.6,31.3,84.7,30.8z M139.2,28.1c-0.6,0-0.9,0-1.4,0c0.4,0.8,0.7,1.4,1.1,2c0.1-0.1,0.3-0.1,0.4-0.2
	c-0.2-0.5-0.4-1-0.7-1.5C138.7,28.4,138.8,28.3,139.2,28.1z M132.1,28c0.3,0.9,0.6,1.5,0.8,2.3C133.4,29.3,133.1,28.4,132.1,28z
	 M75.3,28c-0.1,0-0.1-0.1-0.2-0.1c-0.2,0.6-0.3,1.3-0.5,1.9c0,0.1,0.3,0.2,0.5,0.3c-0.6-0.7-0.2-0.9,0.4-1.1
	C75.6,29.1,75.4,28.4,75.3,28z M168.5,63.9c1.4,0,2.5,0,3.6,0c0-0.1,0-0.2,0-0.3C171,63.7,169.9,63.8,168.5,63.9z M175.6,28.9
	c-0.1,0.1-0.1,0.2-0.2,0.2c0.2,0.5,0.4,1,0.6,1.5c0.1,0,0.2,0,0.3,0c0.1-0.4,0.3-0.8,0.1-1.2C176.4,29.1,175.9,29,175.6,28.9z"/>
<path class="st1" d="M167,66.2c-1.7,0-3.3,0-5,0c-0.6,0-1.1,0-1.7,0c-2,0.1-4,0.2-6.1,0.6c-5.8,1.1-11.7,0.6-17.5,0.4
	c2.8-0.2,5.6,0.4,8.4-0.5c0-0.1,0-0.2,0-0.3c-5.7,0-11.4,0-17.1,0c0,0,0,0,0-0.1c1.2-0.1,2.4-0.2,3.7-0.3c0-0.2,0-0.3,0-0.5
	c-1.3-0.1-2.6-0.2-4-0.2c-1.3,0-2.7,0.2-4,0.3c0-0.1,0-0.2,0-0.4c1.7-0.1,3.5-0.2,5.2-0.4c0-0.1,0-0.3,0-0.4c-1.5,0-3,0-4.5,0
	c0-0.2,0-0.3,0-0.5c1.6,0,3.2,0,4.8,0c0-0.2,0-0.3,0-0.5c-1.7-0.1-3.4-0.3-5.1-0.4c-0.3,0-0.8,0.2-1,0.5c-1.9,1.7-3.7,3.5-5.7,5.1
	c-1,0.8-2.2,1.4-3.4,1.9c-2.1,1-4.3,1.9-6.5,2.9c-0.1-0.1-0.1-0.2-0.2-0.3c1.1-0.4,2.2-0.9,3.3-1.3c0-0.1-0.1-0.2-0.1-0.4
	c-1,0.2-1.9,0.5-2.9,0.7c0-0.1-0.1-0.1-0.1-0.2c2.1-0.9,4.2-1.9,6.4-2.8c-0.1-0.1-0.1-0.3-0.2-0.4c-2.1,0.8-4.2,1.7-6.4,2.5
	c0-0.1-0.1-0.1-0.1-0.2c0.3-0.2,0.6-0.4,1.1-0.8c-0.7,0-1.1,0-1.9,0c1-0.4,1.6-0.7,2.3-1c0-0.1,0-0.2-0.1-0.3
	c-0.6,0-1.1,0.1-1.9,0.1c3.2-1.4,6.2-2.8,9.2-4.2c-0.1-0.2-0.1-0.3-0.2-0.5c-1.9,0.8-3.7,1.6-5.6,2.5c0-0.1-0.1-0.1-0.1-0.2
	c0.1-0.2,0.3-0.4,0.5-0.6c-0.8,0-1.4,0-2.2,0c0.9-0.4,1.7-0.8,2.5-1.1c0-0.1,0-0.2,0-0.2c-0.5,0-1-0.1-1.8-0.1
	c1.2-0.8,2.9-0.7,2.9-2.4c-2.9,0-5.8,0-8.8,0c0-0.1,0-0.2,0-0.3c0.4-0.1,0.9-0.2,1.3-0.4c0-0.1,0-0.2,0-0.3c-2.2,0-4.3,0-6.5,0
	c0-0.1,0-0.2,0-0.3c0.5-0.1,0.9-0.1,1.4-0.2c0-0.1,0-0.2,0-0.3c-0.7-0.1-1.4-0.3-2-0.2c-3.1,0.3-5.9-0.9-8.7-1.7
	c-2.9-0.9-5.8-1.9-8.7-2.9c-1.8-0.6-3.6-1.5-5.4-2.1c-1.3-0.4-2.8-0.4-4-0.9c-1.6-0.7-3.6-0.1-4.8-0.9c-1.2-0.7-2.5-0.2-3.6-1.1
	c-0.8-0.7-2.4-0.4-3.7-0.6c-0.6-0.1-1.1-0.3-1.6-0.5c-0.3-0.1-0.5-0.2-0.8-0.2c-1.6,0.3-3.1,0.1-4.7-0.2c-1.8-0.3-3.8-0.1-5.7,0.3
	c-0.8,0.1-0.9-0.5-1.5-0.4c-0.9,0.2-1.9,0.4-2.8,0.4c-0.5,0-1.1-0.4-1.6-0.6c-0.5-0.2-0.9-0.2-1.6-0.4c2.1-0.2,4-0.5,6.3-0.7
	c-0.6-0.3-0.8-0.4-1-0.6c0.1-0.1,0.3-0.2,0.4-0.4c0-0.1,0-0.2-0.1-0.3c-2.2,0.3-4.4,0.6-6.6,0.9c0.1-0.1,0.1-0.3,0.2-0.4
	c-0.3-0.2-0.6-0.4-0.9-0.6c0.1-0.1,0.2-0.2,0.5-0.4c-0.2-0.1-0.4-0.3-0.8-0.5c1-0.1,1.7-0.2,2.5-0.2c0-0.1,0-0.2,0-0.3
	c-0.6,0-1.2,0-1.8,0c0-0.1,0-0.1,0-0.2c0.6-0.2,1.1-0.3,1.7-0.5c0-0.1,0-0.2-0.1-0.3c-0.4,0-0.8-0.1-1.2-0.1v-0.1
	c0.5-0.1,1-0.2,1.5-0.4c0-0.1,0-0.1,0-0.2c-0.8,0-1.7,0-2.5,0c0-0.1,0-0.1,0-0.2c0.8-0.1,1.6-0.2,2.5-0.3c0-0.1,0-0.2,0-0.3
	c-0.7,0-1.5,0-2.2,0v-0.1c0.9-0.1,1.9-0.3,2.8-0.4c0-0.1,0-0.3,0-0.4C38,41.3,37,41,36.1,40.7c0.3,0,0.8-0.1,1.3-0.2
	c0.5-0.1,1-0.3,1.6-0.4c0-0.1,0-0.2-0.1-0.4c-0.8,0.1-1.7,0.3-2.5,0.4V40c0.5-0.2,0.9-0.3,1.4-0.5c0-0.1,0-0.2,0-0.3
	c-0.6,0.1-1.3,0.1-1.9,0.2c1-0.3,1.1-1.1,1.1-2c0.1,0,0.2,0,0.3,0c0.1,0.4,0.3,0.9,0.4,1.3c0.2-0.3,0.4-0.6,0.7-1.1
	c0.1,0.5,0.2,0.8,0.3,1.3c0.2-0.3,0.4-0.5,0.6-0.7c0.3,0.6,0.6,1.2,0.9,1.8c0.2-0.6,0.4-1.1,0.5-1.5c0.1,0,0.2,0,0.3,0
	c0.1,0.8,0.2,1.6,0.3,2.4c0.1,0,0.1,0,0.2,0c0.1-0.6,0.3-1.1,0.5-2c0.4,0.8,0.7,1.4,1,2.1c0.3-1.1,0.5-1.9,0.8-3
	c0.4,0.6,0.7,1,1,1.5c-0.1,0.1-0.3,0.3-0.5,0.5c0.2,0.1,0.5,0.2,0.7,0.3c0.3-0.7,0.6-1.4,1-2.2c0.6,0.8,1.1,1.4,1.6,2.1
	c0.3-1.1,0.5-2,0.7-3.2c1,1.2,0.5,2.8,1.5,3.4c0.2-1.2,0.4-2.4,0.6-3.6c0.1,0,0.2,0,0.3,0c0.2,0.3,0.4,0.6,0.6,0.9
	c-0.2,0.1-0.5,0.3-0.8,0.5c0.3,0.1,0.5,0.3,0.5,0.3c0,0.6-0.1,1.1-0.1,1.6c0.1,0,0.1,0,0.2,0c0.3-0.5,0.5-1,0.8-1.5
	c0.3,0.4,0.5,0.7,0.9,1.3c0-1.6-0.3-3,1-4.3c0.1,0.6,0.1,0.9,0.1,1.3c0.1,0,0.5,0.1,0.8,0.1c0,0.1,0,0.1,0.1,0.2
	c-0.4,0.2-0.9,0.3-1.5,0.6c0.4,0.2,0.7,0.3,1.2,0.5c-0.3,0.2-0.6,0.3-0.8,0.4c0.1,0.6,0.1,1.1,0.2,1.9c0.4-0.8,0.7-1.4,1-2
	c1.4,0.2,0,1.1,0.5,1.5c0.5-0.2,0.7-1.5,1.5-0.4c0.2-0.8,0.4-1.5,0.6-2.3c0.5,0.7,0.9,1.2,1.3,1.8c-0.3,0.1-0.7,0.3-1.1,0.5
	c0,0.1,0,0.2,0.1,0.3c0.5-0.1,1.1-0.1,1.5-0.2c0.3-0.8,0.6-1.4,0.9-2.1c0.7,0.5,1.2,0.9,1.8,1.3c0.3-0.8,0.6-1.6,0.9-2.6
	c0.4,0.8,0.6,1.4,0.9,2c-0.2-3.2-0.1-3.5,1.1-3.4c0,0.2,0,0.5-0.1,0.7c-0.1,0.3-0.4,0.5-0.6,0.8c0.2,0.1,0.4,0.1,0.5,0.2
	c0,0.6,0.1,1.2,0.1,2.1c0.4-0.8,0.7-1.4,1.1-2.1c0.3,0.7,0.6,1.2,0.9,1.7c-0.3,0.1-0.6,0.2-1.1,0.4c0.4,0.3,0.7,0.5,1,0.7
	c0.6-0.2,0.3-1.7,1.6-1c0-0.5,0.1-1,0.1-1.6c0.4,0,0.8,0.1,1.4,0.1c-0.4,0.3-0.6,0.4-0.9,0.6c0,0.1,0,0.2,0,0.3
	c0.7,0,1.4,0.1,2.1,0.1c0.2-0.7,0.3-1.3,0.5-2c0.1,0,0.2,0,0.3-0.1c0.2,0.8,0.3,1.5,0.5,2.2c0.3-0.4,0.6-0.8,0.9-1.3
	c0.1,0,0.2,0,0.3,0.1c0,0.4,0,0.7,0.1,1.1c0.2,0,0.4,0,0.6,0c-0.1-1.2-0.2-2.3-0.3-3.4c0.2,0,0.4-0.1,0.6-0.1
	c0.1,0.4,0.2,0.8,0.3,1.4c0.1,0,0.4,0.2,0.9,0.4c-0.4,0.2-0.6,0.3-0.8,0.4c0.2,0.5,0.3,0.9,0.5,1.4c0.3-0.3,0.6-0.7,0.9-1.1
	c0.4,0.3,0.8,0.6,1.1,0.9c-0.7-1.2-0.8-2.3,0.4-3.5c0.2,1.3,0.3,2.5,0.5,4.1c0.5-1.4,0.8-2.4,1.1-3.4c0.1,0,0.2,0,0.3,0
	c0.1,0.5,0.1,1,0.2,1.5c0.1,0,0.2,0,0.3,0c-0.2,0.1-0.4,0.3-0.7,0.5c0.4,0.2,0.6,0.3,1,0.5c-0.3,0.1-0.5,0.3-0.8,0.4
	c0.3,0.2,0.6,0.4,1,0.6c0.2-0.6,0.4-1.2,0.7-2.1c0.4,0.5,0.6,0.8,0.9,1.3c0.3-0.5,0.6-1,1.1-1.7c0.1,0.8,0.1,1.3,0.2,1.9
	c0.2,0,0.5,0,1,0c-0.3-1.4-1.4-2.7-0.1-4.1c0.2,0.6,0.3,1.1,0.5,1.8c0.1-0.1-0.1,0-0.4,0.3c0.4,0.1,0.6,0.1,0.6,0.1
	c0,0.7,0.1,1.3,0.1,2c0.1,0,0.1,0,0.2,0.1c0.2-0.5,0.3-0.9,0.5-1.4c0.5,0.5,1,0.9,1.6,1.5c0.3-0.9,0.5-1.5,0.7-2.1
	c-0.1,0.2-0.3,0.4-0.4,0.5c0.3,0.3,0.5,0.7,0.8,1c0.2-0.2,0.4-0.4,0.6-0.6c-0.1,0.1-0.2,0.3-0.3,0.4c0.5,0.2,1.1,0.3,1.6,0.5
	c0.2-0.6,0.3-1.3,0.5-2c0.4,0.4,0.7,0.7,0.9,1c-0.2,0.1-0.3,0.2-0.5,0.3c0.3,0.2,0.6,0.4,0.8,0.6c0.4-0.7,0.8-1.4,1.1-1.9
	c0.6,0.7,1.2,1.3,1.8,2.1c0.4-0.7,0.7-1.4,1.1-2.1c0.1,0,0.2,0,0.2,0c0,0.4-0.1,0.7-0.1,1.1c0.3,0.2,0.6,0.4,1.1,0.7
	c-0.3-1.4-0.6-2.8,0.3-4.1c0.3,0.6,0.6,1.1,0.9,1.6c-0.1,0.1-0.5,0.2-0.9,0.4c0.2,0.2,0.4,0.3,0.4,0.3c0,0.7-0.1,1.2-0.1,1.7
	c0.1,0,0.1,0,0.2,0.1c0.3-0.6,0.6-1.1,0.8-1.6c0.7,0.8,1.3,1.5,2.1,2.4c0.3-1.1,0.5-1.9,0.8-2.7c0.1,0,0.2,0,0.3,0
	c0.1,0.6,0.3,1.2,0.5,1.9c0.2,0,0.5,0,1.1,0.1c-1.2-1.9-1.7-3.7-0.5-5.7c0.1,0.4,0.1,0.9,0.2,1.5c0.1,0,0.3,0.1,1,0.4
	c-0.4,0.3-0.6,0.4-0.9,0.6c0.2,0.1,0.5,0.2,0.9,0.3c-0.3,0.2-0.6,0.3-1,0.5c0.4,0.1,0.6,0.2,0.5,0.2c0,1.1,0,2.1,0,3.1
	c0.1,0,0.1,0,0.2,0c0.2-0.9,0.4-1.7,0.6-2.9c0.4,0.8,0.7,1.3,1,1.8c-0.4-1.5-0.9-2.9,0.5-4.3c0.1,0.4,0.2,0.7,0.3,1
	c-0.1,0-0.2,0.1-0.3,0.1c0.3,0.2,0.5,0.3,0.9,0.5c-0.3,0.2-0.6,0.3-1.1,0.6c0.6,0.1,0.9,0.2,1.5,0.3c-0.5,0.2-0.9,0.4-1.7,0.7
	c1.7,0.1,0.6,1,0.9,1.6c0.3-0.5,0.6-1,1-1.5c0.3,0.4,0.5,0.8,0.9,1.4c0-1.2,0-2.3,0-3.4c0.1,0,0.3,0,0.4-0.1
	c0.4,0.7,0.8,1.4,1.3,2.3c0,0-0.1,0.1-0.4,0.4c0.5,0,0.8,0.1,1.3,0.1c-0.6-1.7-0.3-3.2,0.9-4.5c0,0.4,0,0.8,0,1.4
	c0,0,0.2,0.1,0.6,0.3c-0.2,0.1-0.5,0.3-0.5,0.3c0,0.8,0,1.5,0,2.5c0.6-1.1,1-1.9,1.4-2.7c0.1,0,0.2,0,0.4,0.1c0,0.5,0,0.9-0.1,1.5
	c0.2,0,0.5,0.1,1.1,0.3c-0.8-1.8-1.1-3.5,0.3-5.1c0,0.5,0.1,0.9,0.2,1.6c0.1,0,0.4,0.2,1,0.4c-0.6,0.3-0.9,0.4-1.6,0.7
	c0.9,0.1,1.4,0.1,2,0.1v0.1c-0.5,0.2-1.1,0.4-1.9,0.6c0.5,0.1,0.9,0.2,1.2,0.3c-0.1,0.5-0.2,0.9-0.3,1.7c0.5-0.7,0.9-1.2,1.2-1.6
	c0.5,0.4,0.8,0.7,1.2,1.1c0.1,0,0.2-0.1,0.3-0.1c-1.5-1.7-1.3-3.3-0.4-4.3c0.3,0.2,0.7,0.4,1.1,0.5c0,0-0.3,0.2-0.8,0.4
	c0.6,0.1,1,0.1,1.6,0.2c-0.6,0.2-1,0.4-1.4,0.6c0,0.1,0,0.1,0,0.2c0.5,0,1,0,1.6,0c0,0.1,0.1,0.1,0.1,0.2c-0.3,0.2-0.6,0.4-1,0.6
	c0.4,0.2,0.7,0.3,1.1,0.5c-0.4,0.2-0.7,0.3-1,0.5c0.1,0.2,0.2,0.5,0.4,0.7c1-0.7,1.5-1.5,1.3-2.8c-0.1-0.7,0.3-1.4,0.5-2.1
	c0.1,0,0.2,0,0.3,0c0.3,0.5,0.5,1.1,0.8,1.7c-0.1,0.1-0.4,0.2-0.9,0.4c0.6,0.2,1,0.3,1.7,0.5c-0.6,0.2-0.9,0.3-1.1,0.4
	c0.1,0.7,0.1,1.3,0.2,2c0.4-0.4,0.8-0.8,1.2-1.2c0.2-0.9,0.5-2.1,0.8-3.4c0.6,0.5,0.9,0.8,1.4,1.2c-0.4,0.2-0.8,0.4-1.4,0.7
	c0.6,0.2,1,0.3,1.5,0.4c-0.4,0.2-0.7,0.4-1.1,0.6c0,0.1,0,0.2,0,0.3c0.4,0.1,0.9,0.1,1.3,0.2c0,0.2,0,0.4-0.1,0.9
	c0.9-0.6,0.6-1.4,0.8-2c0.1-0.7,0.2-1.5,0.3-2.2c0.1,0,0.2-0.1,0.3-0.1c0.3,0.5,0.7,0.9,1.1,1.4c-0.1,0.1-0.4,0.2-0.8,0.4
	c0.5,0.2,0.8,0.3,1.2,0.5c-0.3,0.1-0.5,0.2-0.9,0.4c0.3,0.3,0.5,0.5,0.8,0.7c-0.2,0.2-0.5,0.4-0.9,0.8c0.9-0.2,1.4-0.3,1.9-0.4
	c0-1.2,0-2.6,0-4c0.1,0,0.3,0,0.4,0c0.3,0.6,1.6,1,0.3,2c0.4,0.1,0.7,0.2,1.1,0.4c-0.4,0.2-0.7,0.3-1,0.4c0,0.1,0.1,0.2,0.1,0.2
	c0.4,0,0.9,0,1.2-0.1c0.2-0.1,0.1-0.6,0.2-0.9c0.2-0.6,0.4-1.3,0.6-2.2c0.5,0.8,0.7,1.2,1,1.7c-0.3,0.2-0.6,0.3-1,0.5
	c0.6,0.2,1,0.3,1.5,0.5c-0.4,0.2-0.6,0.4-1,0.5c0.5,0.2,0.9,0.4,1.3,0.6c0.2-1.1,0.5-2.2,0.7-3.4c0.1,0,0.3,0,0.4,0
	c0.2,0.5,0.4,1,0.5,1.6c-0.1,0-0.2,0.1-0.3,0.1c0.3,0.2,0.7,0.4,1.1,0.6c-0.4,0.2-0.6,0.3-0.9,0.4c0.1,0.4,1.4,0.3-0.4,1.3
	c0.3,0,0.7,0,1,0c0.5-1,1.1-2,1.6-3c0.1,0,0.2,0.1,0.3,0.1c0.1,0.5-0.7,1.3,0.6,1.2c-0.3,0.3-0.5,0.4-0.7,0.6
	c0.4,0.2,0.8,0.3,1.3,0.5c-0.2,0.3-0.3,0.4-0.4,0.6c0.5,0.3,1,0.6,1.6,1c0.1-2-0.3-4,0.8-5.9c0.3,0.7,0.6,1.3,0.9,2.2
	c-0.1,0.1-0.4,0.3-0.8,0.5c0.6,0.2,1.1,0.3,1.6,0.4c0,0.1,0,0.1,0,0.2c-0.5,0.1-1,0.2-1.8,0.4c0.8,0.3,1.4,0.5,2,0.7
	c0,0.1,0,0.2,0,0.3c-0.3,0.1-0.6,0.2-1,0.3c0.4,0.3,0.8,0.6,1.2,0.9c0.1-0.4,0.2-0.8,0.4-1.3c0.3,0.5,0.6,0.9,0.9,1.3
	c-0.4-1.8-1.2-3.6,0.3-5.2c0.2,0.1,0.5,0.3,0.8,0.6c-0.3,0.2-0.5,0.3-0.9,0.6c0.6,0.1,1,0.2,1.4,0.3c0,0.1,0,0.1,0,0.2
	c-0.4,0.1-0.9,0.1-1.3,0.2c0,0.1,0,0.1-0.1,0.2c0.6,0.2,1.1,0.3,2,0.5c-0.6,0.1-1,0.2-1.5,0.3c0.4,0.2,0.7,0.4,0.9,0.5
	c0,0.4,0,0.7-0.1,1.4c1.1-1.3,1.4-0.2,2.1,0.2c-0.8-1.9-1.1-3.7-0.2-5.6c0.3,0.4,0.5,0.8,0.9,1.2c-0.2,0.1-0.4,0.3-0.7,0.5
	c0.4,0.2,0.7,0.3,1.1,0.5c-0.3,0.2-0.6,0.3-1.1,0.5c0.5,0.2,0.9,0.3,1.4,0.6c-0.3,0.1-0.5,0.2-0.5,0.2c-0.2,0.6-0.3,1-0.5,1.8
	c0.6-0.5,0.9-0.8,1.3-1.1c0.4,0.7,0.8,1.5,1.3,2.4c0.4-0.9,0.8-1.7,1.2-2.6c0.4,0.7,0.7,1.3,1,1.8c0.1,0,0.2-0.1,0.2-0.1
	c-0.2-0.8-0.7-1.5-0.7-2.3s0.3-1.6,0.7-2.4c0.2,0.5,0.5,1,0.8,1.7c0,0-0.2,0.1-0.4,0.3c0.3,0.1,0.5,0.2,0.9,0.4
	c-0.4,0.2-0.6,0.4-0.8,0.5c0.2,0.4,0.3,0.8,0.6,1.4c0,0,0.4,0.1,0.7,0.2c0-3.3,0.3-3,1.1-3.8c0.9,1.7,0.9,1.7,0.4,2.4
	c0.3,0.1,0.7,0.2,1,0.4c0,0,0.1,0.1,0.2,0.2c-0.3,0.2-0.6,0.4-0.9,0.6c1.1,0.6,1.2,0.5,1.4-0.7c0.1-0.8,0.4-1.5,0.7-2.2
	c0.4,0.6,1.3,1,0.5,1.9c0.4,0.1,0.8,0.2,1.4,0.4c-0.4,0.3-0.7,0.5-1.1,0.7c0.5,0.1,0.8,0.2,1.3,0.3c-0.3,0.3-0.6,0.5-0.9,0.7
	c1.4,0.4,1.6,0.2,1.5-1.1c0-1.1,0.2-2.1,0.3-3.2c0.2,0,0.3,0,0.5,0c0.1,0.4,0.2,0.8,0.4,1.4c-0.1,0,0.2,0.1,0.6,0.2
	c-0.3,0.3-0.4,0.5-0.6,0.7c0.4,0.1,0.7,0.3,1.2,0.5c-0.5,0.2-0.9,0.3-1.4,0.5c0.3,0.2,0.5,0.4,0.8,0.6c-0.3,0.2-0.6,0.4-1,0.6
	c0.5,0.1,0.9,0.1,1.3,0.2c0.1-0.4,0.3-0.8,0.4-1.3c0.2,0.4,0.4,0.7,0.5,0.9c0.3-1.6,0.5-3.2,0.8-4.7c0.1,0,0.2,0,0.4,0.1
	c0.3,0.5,0.6,1.1,0.9,1.6c0.1,0,0.2,0,0.3,0c-0.8-1.8-0.9-3.5,0.2-5.4c0.2,0.6,0.3,1,0.4,1.4c-0.1,0-0.2,0.1-0.3,0.1
	c0.3,0.2,0.7,0.4,1.3,0.7c-0.8,0.2-1.2,0.3-1.7,0.4c0,0.1,0,0.2,0,0.2c0.5,0.1,1.1,0.3,1.9,0.5c-0.6,0.1-0.9,0.2-1.5,0.3
	c0.5,0.3,0.8,0.5,1.2,0.7c-0.2,0.1-0.3,0.1-0.5,0.2c0.4,0.2,0.7,0.4,1.1,0.6c-0.3,0.2-0.5,0.4-0.7,0.6c0.3,0.2,0.5,0.5,0.8,0.7
	c0.2-0.3,0.3-0.6,0.4-0.9c0.2,0.3,0.3,0.6,0.5,1c0.1-1.5,0.3-2.9,0.4-4.3c0.1,0,0.2,0,0.3,0c0.2,0.4,0.4,0.9,0.6,1.4
	c-0.1,0-0.2,0.2-0.4,0.3c0.4,0.2,0.7,0.3,1.2,0.5c-0.5,0.2-0.8,0.3-1,0.4c0.1,0.5,0.3,1,0.4,1.4c0.2-0.2,0.4-0.5,0.6-0.9
	c0.3,0.6,0.5,1.1,0.7,1.6c-0.1-1.8-0.7-3.7,0.4-5.4c0.2,0.4,0.4,0.8,0.6,1.2c-0.1,0.1-0.4,0.2-0.7,0.3c0.5,0.2,0.9,0.3,1.5,0.5
	c-0.6,0.1-1,0.2-1.7,0.4c0.6,0.2,1,0.4,1.6,0.6c-0.3,0.2-0.6,0.3-1.1,0.6c0.3,0.1,0.5,0.2,0.9,0.4c-0.4,0.2-0.7,0.3-0.7,0.4
	c0,0.8,0,1.6,0,2.3c0.1,0,0.1,0,0.2,0c0.3-0.8,0.5-1.7,0.9-2.8c0.4,0.8,0.7,1.3,1,1.9c-0.5-1.9-1-3.8,0.2-5.8
	c0.1,0.6,0.1,1.2,0.2,2.1c0,0,0.3,0.1,0.6,0.3c-0.3,0.1-0.6,0.3-1.1,0.5c0.5,0.2,0.8,0.3,1.2,0.5c-0.3,0.2-0.6,0.3-0.7,0.4
	c0.1,1.3,0.1,2.5,0.2,3.7h0.1c0.3-1.4,0.5-2.8,0.8-4.2c0.1,0,0.2,0,0.3,0c0.1,0.4,0.3,0.8,0.5,1.4c0,0-0.2,0.1-0.4,0.3
	c0.4,0.2,0.7,0.3,1.1,0.5c-0.2,0.2-0.4,0.4-0.7,0.6c0.4,0.1,0.7,0.2,1.1,0.3c0.2-1.4-1-2.9,0.2-4.1c0.7,1.1,1.4,2.1,2.1,3.2
	c0.1-1.3,0.2-2.4,0.3-3.8c0.4,0.6,0.6,1,0.9,1.4c-0.1,0.1-0.2,0.2-0.5,0.4c0.4,0.1,0.7,0.3,1.1,0.5c-0.3,0.2-0.6,0.3-1,0.5
	c0.6,0.1,0.9,0.2,1.2,0.3c0.4-1.1,0.8-2.1,1.2-3.1c0.1,0,0.2,0,0.3,0c0.1,0.5,0.3,1.1,0.4,1.7c-0.2,0.1-0.5,0.2-0.9,0.3
	c0.4,0.3,0.6,0.4,0.6,0.4c-0.4,2.6-0.7,4.9-1,7.3c-0.2,1.3-0.3,2.6-0.5,3.9c-0.1,0.6-0.6,1.2-0.9,1.8c0.1,0.1,0.4,0.2,0.8,0.4
	c-0.4,0.2-0.6,0.3-1.1,0.5c0.5,0.2,0.8,0.3,1.2,0.5c-0.3,0.2-0.5,0.3-0.8,0.6c0.3,0.2,0.6,0.3,0.8,0.4c-0.3,0.1-0.6,0.2-1.2,0.5
	c0.8,0.2,1.2,0.4,1.8,0.5c-0.5,0.1-0.9,0.3-1.3,0.4c0,0.1,0,0.1,0,0.2c0.6,0.1,1.1,0.2,2,0.3c-1.2,0.1-2.1,0.3-3,0.4
	c0,0.1,0,0.1,0,0.2c1.4,0.1,2.7,0.2,4.1,0.4c0,0.1,0,0.1,0,0.2c-0.7,0.1-1.4,0.2-2.1,0.3c0,0.1,0,0.2,0,0.3c0.9,0.1,1.8,0.2,2.8,0.2
	c0,0,0,0.1,0.1,0.1c-0.5,0.1-0.9,0.2-1.4,0.4c0,0.1,0,0.1,0,0.2c1.2,0.1,2.5,0.3,3.7,0.4c-3.2,0.8-6.3,0.5-9.5,0.5
	c0.3,0.1,0.6,0.2,1.2,0.3c-8.8-0.2-16.8,1.3-24.2,5.5c0.3,0,0.7,0,1,0.1c0.4,0,0.7,0,1.1,0.3c-0.4,0.1-0.8,0.2-1.2,0.3
	c0,0.1,0,0.2,0,0.3c0.7,0.1,1.5,0.2,2.2,0.3c0.8,0.1,1.5,0,2.3,0c0,0.1,0,0.2,0,0.3c-2,0-4,0-6,0c0,0.1,0,0.3,0,0.4
	c0.6,0.1,1.2,0.2,1.8,0.3s1.3,0.2,1.9,0.2c0.7,0,1.3,0,2,0.1c-1.4,0.1-2.8,0.2-4.2,0.3c0,0.1,0,0.2,0,0.3c2.4,0,4.7,0,7.1,0
	c0,0.1,0,0.1,0,0.2c-1.9,0.1-3.8,0.2-5.7,0.4c0,0.1,0,0.2,0,0.3c0.7,0.1,1.5,0.1,2.5,0.2c-0.5,0.2-0.7,0.3-0.9,0.4
	c0,0.1,0,0.2,0,0.3c1.8,0,3.5,0,5.3,0C167,65.8,167,66,167,66.2z M110.3,62c4.1,0,8.3,1.1,12.5,0.1C118.7,61.5,114.5,60.7,110.3,62z
	 M185.7,53.8c0-0.1,0-0.2,0-0.4c-0.9,0-1.8,0-2.7,0c0,0.1,0,0.2,0,0.4C183.9,53.8,184.8,53.8,185.7,53.8z M80.4,54.7
	c0-0.2,0-0.3,0-0.5c-1,0.1-1.9,0.1-2.9,0.2c0,0.1,0,0.2,0,0.3C78.5,54.7,79.5,54.7,80.4,54.7z M160.6,65.6c0-0.1,0-0.2,0-0.3
	c-1,0-2,0-3,0c0,0.2,0,0.3,0,0.5C158.6,65.7,159.6,65.6,160.6,65.6z"/>
<path class="st1" d="M198.9,54c0.5,0.5,0.9,1,1.4,1.5c0.1,0,0.1-0.1,0.2-0.1c-0.1-0.3-0.1-0.6-0.3-1.3c0.8,0.9,1.3,1.5,2,2.3
	c-0.1-0.6-0.1-0.8-0.1-1.2c0.6,0.5,1.2,1,1.9,1.6c0.1-0.4,0.1-0.6,0.2-0.8c0.9-0.1,1.9-0.2,2.8-0.4c0-0.1,0-0.2,0.1-0.3
	c-4.7,0.5-7.9-1.9-9.8-5.6c-1.6-3.2-1.3-6.7-0.1-10.1c0.1,0.5,0.1,1,0.2,1.5c0.1,0,0.1,0,0.2,0.1c0.2-0.5,0.3-1,0.5-1.5
	c0.4-1.2,0.8-2.5,1.4-3.7c0.3-0.7,0.6-1.6,1.8-1.6c0.4,0,0.8-1.1,1-1.7c-3,1.7-4.9,4.1-5.9,7.3s-0.8,6.4,0,9.7
	c-0.3-0.2-0.5-0.2-0.8-0.4c0.1,0.7,0.2,1.4,0.4,2.3c-0.4-0.5-0.7-0.7-0.9-1c-0.1,0-0.1,0.1-0.2,0.1c0.3,0.9,0.7,1.9,1.1,3.1
	c-0.6-0.5-0.9-0.8-1.2-1c-0.1,0-0.1,0.1-0.2,0.1c0.2,0.6,0.5,1.1,0.7,1.7c0,0.1-0.1,0.1-0.1,0.2c-0.5-0.5-1.1-1-1.6-1.6
	c0,0.3-0.1,0.6-0.1,1c-0.6-0.7-1.1-1.3-1.5-1.9c-0.1,0-0.1,0.1-0.2,0.1c0.1,0.4,0.2,0.9,0.3,1.3c-0.1,0-0.2,0.1-0.2,0.1
	c-0.6-0.8-1.2-1.5-1.8-2.4c0,0.4,0,0.7,0,1c-0.1,0-0.1,0.1-0.2,0.1c-0.6-1-1.2-2-1.8-3c-0.1,0-0.1,0-0.2,0.1
	c0.1,0.4,0.1,0.9,0.2,1.3c-1.8-0.9-1.9-4.3-1.4-8.7c0.1,1.1,0.2,2.2,0.3,3.3c0.1,0,0.2,0,0.3,0c0.2-4.6,0.7-9.2,3.6-13.2
	c0.1,0.4,0.1,0.7,0.2,1.1c0.7-0.9,1.3-1.7,1.9-2.5c0,0,0.1,0,0.1,0.1c-0.1,0.4-0.2,0.7-0.3,1.1c0.1,0.1,0.1,0.1,0.2,0.2
	c0.6-0.7,1.3-1.3,2-2.1c0,0.5-0.1,0.8-0.1,1.3c0.5-0.6,0.9-1,1.5-1.6c-0.1,0.5-0.2,0.8-0.2,1c0.9-0.8,1.8-1.6,3-2.6
	c-0.8-0.1-1.3-0.1-1.7-0.2c0-0.2,0-0.3-0.1-0.5c1.9,1.1,2.8-0.8,4.5-1.4c-2,2-4.3,3.5-4.9,6.3c1-1.1,1.9-2.2,2.9-3.3
	c0.1,0,0.1,0.1,0.2,0.1c-0.2,0.3-0.3,0.7-0.5,1l0.1,0.1c0.8-0.5,1.6-1.1,2.4-1.6c-1,1.3-1.9,2.6-2.9,3.9c0.1,0.1,0.2,0.2,0.3,0.2
	c1.2-1.4,2.5-2.7,3.7-4.1c0.1,0.1,0.1,0.1,0.2,0.2c-0.6,0.9-1.2,1.8-1.8,2.6c0.1,0.1,0.2,0.2,0.3,0.2c1.1-1.2,2.2-2.3,3.3-3.5
	c0.1,0,0.1,0.1,0.2,0.1c-0.5,0.7-1,1.5-1.5,2.2c0.1,0.1,0.1,0.1,0.2,0.2c0.6-0.4,1.2-0.9,2-1.4c-0.4,0.7-0.7,1.1-1,1.6
	c0.1,0.1,0.1,0.1,0.2,0.2c0.8-0.7,1.6-1.4,2.4-2.1c0.1,0.1,0.1,0.1,0.2,0.2c-0.5,0.6-0.9,1.1-1.4,1.7c0,0.1,0.1,0.1,0.1,0.2
	c0.4-0.1,0.8-0.2,1.1-0.4c0,0.1-0.1,0.3-0.2,0.8c0.9-0.7,1.7-1.2,2.4-1.7c0,0,0,0.1,0.1,0.1c-0.3,0.4-0.7,0.8-1,1.2
	c0.1,0.1,0.1,0.2,0.2,0.3c0.5-0.4,1-0.8,1.7-1.2c-0.2,0.4-0.3,0.7-0.5,1c0.1,0.1,0.1,0.1,0.2,0.2c0.6-0.4,1.3-0.8,1.9-1.2l0.1,0.1
	c-0.3,0.4-0.6,0.7-0.9,1.1c0.1,0.1,0.1,0.2,0.2,0.2c0.7-0.4,1.4-0.8,2.4-1.4c-0.5,0.7-0.8,1.2-1.1,1.6c0,0.1,0.1,0.1,0.1,0.2
	c0.5-0.3,1-0.5,1.7-0.9c-0.2,0.4-0.4,0.6-0.7,1.2c0.8-0.4,1.3-0.7,1.9-0.9c-1.1,2.1-1.2,2.1-2.2,1.5c-1.2,1.1-2.3,2.1-3.4,3.1
	c0.5-0.9,0.9-1.8,1.4-2.6c-1.5,1-2.8,2.2-2.6,4.4c0.4-0.6,0.7-0.9,1-1.3c-0.2,0.9-0.4,1.8-0.5,2.7c1,0.3,1.2,1,1.1,1.9
	c-0.1,1.1-0.2,2.1-0.2,3.2c0,0.4,0.2,0.8,0.3,1.2c0.2,0,0.3,0,0.5,0c0-1.3,0-2.6,0-3.9c0.1,0,0.3,0,0.4,0c0.1,1.3,0.3,2.6,0.4,3.8
	c0.1,0,0.3,0,0.4,0c0.1-0.9,0.3-1.8,0.4-2.6c0.1,0,0.1,0,0.2,0c0.1,0.5,0.2,1.1,0.4,1.9c0.4-0.7,0.6-1.2,0.8-1.7
	c0.7,1.2,0.9,2.3-0.1,3.4c-0.6,0.7-1.1,1.7-1.4,2.6c-0.2,0.7,0,1.5,0,2.3c0.1,0,0.2,0,0.3,0.1c-0.3,0.2-0.6,0.5-1,0.8
	c0.3,0.1,0.5,0.1,0.9,0.2c-1.1,0.5-2,1-3,1.5c0,0.1,0.1,0.2,0.1,0.4c1.3-0.5,2.6-1,3.9-1.4c0.7-0.2,1.2-1.2,2.1-0.3
	c0.2,0.2,1-0.2,1.4-0.4c4.9-1.4,9.1-4.3,13.5-7c-0.1,0.1-0.3,0.3-0.4,0.4c-0.1,0.1-0.3,0.2-0.5,0.3c-4.8,3.4-10,6-15.8,7.5
	c-1.7,0.4-3.4,1-5.1,1.7c-2.7,1.1-5.4,1.7-8.3,2.1c-2.2,0.3-4.3,1.1-6.5,1.7l0,0c0.3-0.2,0.7-0.5,1-0.7c1.7-0.5,3.5-0.9,5.2-1.4
	c0.4-0.1,0.8-0.3,1.2-0.6c-1.9,0.2-3.1-0.4-3.4-2.3l0,0c0.5,0.5,1,1,1.5,1.6c0.1-0.1,0.1-0.1,0.2-0.2
	C199.4,55.2,199.2,54.5,198.9,54C198.9,53.9,198.9,54,198.9,54z M190,36.2c-0.1,1-0.3,2-0.4,3c0.1,0,0.3,0.1,0.4,0.1
	c0.7-1.9,1.4-3.7,2.1-5.6c-0.1,0-0.2-0.1-0.3-0.1c-0.3,0.4-0.6,0.8-0.9,1.2C190.6,35.4,190.3,35.8,190,36.2c0.1-0.7,0.3-1.4,0.5-2.2
	c-2.4,2.9-2.4,6.4-2.6,9.9C188.6,41.4,189.3,38.8,190,36.2z M209,44.8c0.1,0,0.3,0,0.4-0.1c-0.2-1,1-2.1-0.3-3
	c-1.2-0.9-1.8-2.3-2-3.8c-0.2-1.1-0.3-2.2-0.5-3.3c-0.1,0-0.2-0.1-0.4-0.1c-0.6,1.1-1.2,2.2-1.8,3.3c0.1,0.1,0.2,0.1,0.3,0.2
	c0.4-0.4,0.9-0.8,1.3-1.2c-0.2,1.6-1.3,2.9-0.6,4.6c0.3-0.9,0.6-1.7,0.9-2.6c0.1,0,0.2,0.1,0.3,0.1c-0.1,0.9-0.3,1.9-0.4,2.8
	c0.1,0,0.2,0,0.4,0.1c0.2-0.4,0.4-0.7,0.6-1.1c0.1,0,0.2,0,0.3,0c0.1,0.9,0.2,1.9,0.2,2.8c0.1,0,0.2,0,0.3,0
	c0.1-0.4,0.3-0.8,0.4-1.1c0.1,0,0.1,0,0.2,0C208.8,43.1,208.9,43.9,209,44.8z M208.9,51.7c-0.9-0.6-1.6-1.1-2.2-1.6
	c-1.5-1.2-2.8-2.5-3.1-4.5c-0.2-1.6-0.6-3.2-0.9-4.8c-0.3,0.4-0.5,0.9-0.4,1.3c0.2,1.5,0.5,3,0.9,4.6c0.1,0.5,0.4,1,0.7,1.5
	c0.6,1.1,1.2,2.2,1.8,3.2c0.6,1.1,1.4,2.1,2,3.1c0.1-0.1,0.3-0.2,0.4-0.3c-0.5-0.8-1-1.7-1.5-2.5c0.1,0,0.1-0.1,0.2-0.1
	c0.5,0.6,1,1.1,1.6,1.7c0.1-0.1,0.1-0.1,0.2-0.2c-0.2-0.4-0.3-0.8-0.5-1.2C208.3,51.9,208.5,51.8,208.9,51.7z M200.8,35.4
	c-1.8,1.2-2.3,2.8-1.6,4.6C199.7,38.3,200.2,36.8,200.8,35.4z M200.4,40c0.5-1.3,0.9-2.6,1.4-4.1C200.2,37,199.6,38.8,200.4,40z
	 M191,38.6c0.1,0,0.3,0.1,0.4,0.1c0.5-1.3,0.9-2.5,1.4-3.8c-0.1,0-0.2-0.1-0.3-0.1C191.7,36,190.8,37.1,191,38.6z M202.7,37.1
	c-1.4,0.9-1.8,2.1-1,3.6C202,39.5,202.3,38.4,202.7,37.1z M203.5,52.4c0.5-1.3-0.3-2-1.4-2.5C202.6,50.7,203.1,51.6,203.5,52.4z
	 M210.6,52.2c-0.6-1-1-1.8-1.5-2.7C208.7,50.9,209.2,51.6,210.6,52.2z M210.5,48.6c-0.5,1.8-0.2,2.3,1,2.4
	C211.2,50.1,210.9,49.4,210.5,48.6z M208.2,35.4c0.2,0.1,0.3,0.2,0.5,0.4c0.5-0.8,1.1-1.6,1.6-2.5c-0.1-0.1-0.3-0.2-0.4-0.3
	C209.4,33.9,208.8,34.6,208.2,35.4z M211.2,48.8c0.2,0,0.3-0.1,0.5-0.1c-0.2-0.8-0.4-1.6-0.6-2.4c-0.2,0-0.3,0.1-0.5,0.1
	C210.8,47.2,211,48,211.2,48.8z"/>
<path class="st1" d="M26.6,31.8c2.4,0.3,4.8,0.6,7.3,0.9v0.1c-2-0.1-4-0.3-5.9-0.4c0,0.1,0,0.3-0.1,0.4c0.8,0.2,1.6,0.3,2.4,0.5v0.1
	c-1.7-0.1-3.3-0.2-5-0.3c0,0.1,0,0.2,0,0.3c2.2,0.2,4.4,0.5,6.6,0.7v0.1c-1.2-0.1-2.3-0.1-3.5-0.2c0,0.1,0,0.3,0,0.4
	c0.8,0,1.6,0.1,2.5,0.1v0.1c-1.6,0.1-3.1,0.2-4.7,0.2c0,0.1,0,0.2,0,0.3c2.5,0.2,5.1,0.3,7.6,0.5c0,0.1,0,0.1,0,0.2
	c-0.4,0.1-0.7,0.1-1.2,0.2c0.2,0.2,0.3,0.4,0.5,0.6c-1.3,0-2.5,0-3.8,0c0,0.1,0,0.2,0,0.4c1.6,0.1,3.2,0.3,4.7,0.4
	c0,0.1,0,0.2,0,0.2c-1.5,0-2.9,0-4.4,0c0,0.1,0,0.2,0,0.3c0.3,0.1,0.6,0.1,1.1,0.3c-1.3,0.1-2.4,0.1-3.5,0.2c0,0.1,0,0.2,0,0.4
	c2,0.1,4,0.2,6,0.3v0.1c-1.6,0-3.3,0-4.9,0c0,0.1,0,0.2,0,0.4c1.5,0,3.1,0,4.6,0c0,0.1,0,0.2,0,0.3c-0.4,0-0.9,0.1-1.3,0.1
	c0,0.1,0,0.2,0,0.3c0.8,0.1,1.6,0.2,2.3,0.3c-0.7,0.1-1.4,0.2-2.1,0.4c0,0.1,0,0.2,0,0.2c0.5,0.1,1,0.1,1.6,0.2
	c-0.7,0.2-1.2,0.4-2,0.6c0.4,0.1,0.7,0.2,0.9,0.3c0,0.1,0,0.1,0,0.2c-1.7,0.1-3.3,0.2-5,0.3c0-0.1,0-0.2,0-0.3
	c0.9-0.1,1.8-0.2,2.7-0.2c0-0.1,0-0.2,0-0.3c-1.4,0-2.8,0-4.1,0c0-0.1,0-0.2,0-0.2c1.6-0.1,3.2-0.2,4.8-0.4c0-0.1,0-0.2,0-0.3
	c-1.8,0-3.6,0-5.4,0c0-0.1,0-0.1,0-0.2c1.1-0.2,2.2-0.3,3.3-0.5c0-0.1,0-0.1,0-0.2c-1.4,0-2.8,0-4.2,0c0-0.1,0-0.2,0-0.3
	c0.9-0.1,1.8-0.2,2.7-0.3c0-0.1,0-0.2,0-0.3c-1.2,0-2.3,0-3.5,0c0-0.1,0-0.2,0-0.3c0.7-0.1,1.4-0.2,2-0.3c0-0.1,0-0.1,0-0.2
	c-0.6-0.1-1.2-0.1-1.8-0.2c0-0.1,0-0.2,0-0.3c1.4,0,2.9,0,4.3,0c0-0.1,0-0.3,0-0.4c-1.3-0.2-2.5-0.4-3.8-0.6v-0.1
	c1.1,0.1,2.2,0.1,3.3,0.2c0-0.1,0-0.3,0-0.4c-2-0.1-4-0.3-6-0.4c0,0,0,0,0-0.1c1.4,0,2.9,0,4.3,0c0-0.1,0-0.3,0-0.4
	c-1.4-0.2-2.7-0.3-4.3-0.5c1,0,1.7-0.1,2.5-0.1c0-0.1,0-0.3,0-0.4c-0.9,0-1.9-0.1-2.8-0.1c0-0.1,0-0.2,0-0.2c1.8,0,3.6,0,5.4,0
	c0-0.2,0-0.3,0-0.5c-2.2-0.2-4.3-0.4-6.5-0.5c0,0,0,0,0-0.1c1.1-0.1,2.1-0.2,3.2-0.3V33c-0.7-0.1-1.5-0.3-2.2-0.4c0,0,0,0,0-0.1
	c1.6,0,3.1,0,4.7,0c0-0.1,0-0.2,0-0.2c-2.1-0.2-4.3-0.4-6.4-0.7v-0.1c1.1,0,2.2,0,3.2,0c0-0.1,0-0.2,0-0.3c-0.8-0.1-1.6-0.2-2.4-0.3
	c0-0.1,0-0.2,0-0.2c1,0,1.9-0.1,2.9-0.1c0-0.1,0-0.3,0-0.4c-1.3-0.1-2.7-0.3-4-0.4c0-0.1,0-0.1,0-0.2c0.9-0.1,1.8-0.1,2.7-0.2
	c0-0.1,0-0.1,0-0.2c-1.2-0.5-2.3-1-3.5-1.5c0.2-0.1,0.4-0.2,0.9-0.5c-0.7-0.3-1.3-0.5-2-0.7c0.8,0.1,1.5,0.1,2.2,0.2
	c0-0.1,0.1-0.3,0.1-0.4c-1.1-0.3-2.2-0.6-3.3-0.9c0.5,0,1-0.1,1.5-0.1c0-0.1,0-0.2,0.1-0.3c-0.4-0.2-0.8-0.3-1.2-0.5
	c0.2,0,0.5-0.1,1.1-0.2c-0.7-0.3-1.2-0.5-1.8-0.7c0.4-0.2,0.6-0.3,1.2-0.5c-0.8-0.3-1.4-0.5-2-0.7c0.3-0.1,0.5-0.2,0.7-0.3
	c-0.7-0.6-1.3-1.3-2-1.9H14c-0.2-0.2-0.4-0.5-0.7-0.8c0.7-1-0.8-0.5-0.9-1.1c0.3-0.1,0.5-0.2,1.1-0.3c-0.8-0.2-1.3-0.4-1.8-0.6
	c0-0.1,0-0.2,0-0.3c1.2,0.1,2.4,0.3,3.7,0.4c0,0.1,0,0.2,0,0.3c-0.4,0-0.8,0-1.3,0c0,0.1,0,0.2-0.1,0.3c1.3,0.3,2.5,0.6,3.8,0.9v0.1
	c-0.5,0-1.1,0-1.6,0c0,0.1,0,0.2-0.1,0.3c0.8,0.2,1.6,0.4,2.4,0.6v0.1c-1.1-0.1-2.2-0.2-3.3-0.3c0,0.1,0,0.2-0.1,0.3
	c1.5,0.3,3.1,0.7,4.9,1.1c-0.8,0-1.2,0.1-1.6,0.1c0,0.1,0,0.1,0,0.2c0.7,0.2,1.3,0.4,2,0.6v0.1c-1.2-0.1-2.4-0.2-3.6-0.3
	c0,0.1,0,0.2-0.1,0.4c1.5,0.3,3.1,0.6,4.6,0.9v0.1c-0.8-0.1-1.6-0.1-2.5-0.2c0,0.1-0.1,0.2-0.1,0.3c1.2,0.3,2.5,0.6,3.7,0.9v0.1
	c-0.6,0-1.1,0-1.7,0c0,0.1,0,0.2,0,0.2c0.7,0.2,1.5,0.4,2.4,0.7c-0.5,0-0.9,0-1.2,0.1c0,0.1,0,0.2-0.1,0.3c1.6,0.3,3.1,0.7,4.7,1
	v0.1c-1-0.1-2-0.1-3-0.2c0,0.1,0,0.2-0.1,0.3c1.1,0.3,2.2,0.5,3.3,0.8v0.1c-0.5,0-0.9,0-1.4,0c0,0.1,0,0.2,0,0.2
	c0.8,0.2,1.7,0.4,2.5,0.6c0,0,0,0,0,0.1c-1.8-0.2-3.5-0.3-5.3-0.5c0,0.1,0,0.2,0,0.3c1,0.2,1.9,0.4,2.9,0.6v0.1c-0.6,0-1.1,0-1.7,0
	c0,0.1,0,0.2,0,0.3c1.4,0.2,2.8,0.5,4.3,0.7c0,0.1,0,0.1,0,0.2c-1.2-0.1-2.4-0.1-3.6-0.2c0,0.1,0,0.2,0,0.3c2.3,0.3,4.5,0.6,6.8,0.9
	c0,0.1,0,0.1,0,0.2c-1.5-0.1-3-0.2-4.5-0.3C26.6,31.5,26.6,31.6,26.6,31.8z"/>
<path class="st1" d="M218.9,49.2c0.3,0.1,0.4,0.2,0.8,0.4c-1.2,0.4-2.2,0.8-3.2,1.2c0,0.1,0,0.1,0,0.2c0.7-0.1,1.3-0.2,2-0.3
	c-0.8,0.4-1.3,1.4-2.5,1c-0.9-0.3-1.9-0.3-2.9-0.6c-0.2-0.1-0.4-0.7-0.4-1c0.4-1.8,1.2-3.4,2.8-4.4c0.4-0.3,1-0.3,1.5-0.4
	c0.4-0.1,0.9-0.2,1.3-0.4c0-0.1-0.1-0.2-0.1-0.4c-1,0.2-2.1,0.4-3.2,0.6c0-0.5,0-1.1,0-1.6c0.1,0,0.2-0.1,0.2-0.1
	c0.2,0.3,0.4,0.7,0.6,1.2c0.2-0.5,0.4-0.9,0.6-1.4c0.2,0.2,0.4,0.4,0.7,0.6c0.2-0.4,0.3-0.8,0.5-1.2c0.3,0.1,0.5,0.2,0.8,0.4
	c0.1-0.5,0.2-0.9,0.3-1.5c0.2,0.3,0.4,0.4,0.7,0.8c0.4-1.9,0.8-3.7,1.3-5.8c-0.5,0.3-0.7,0.4-0.9,0.5c-0.1-0.5-0.1-0.9-0.2-1.4
	c-0.3,0.1-0.5,0.2-0.7,0.3c-0.1-0.4-0.2-0.7-0.2-0.9c-0.8-0.3-1.4-0.6-2-0.9c0.3-0.5,0.6-1.1,0.9-1.6c0.1,0,0.2,0.1,0.3,0.1
	c0,0.3-0.1,0.6-0.2,1.1c0.5-0.2,0.9-0.4,1.4-0.6c-0.2,0.4-0.3,0.8-0.5,1.4c0.6-0.4,1-0.6,1.6-0.9c-0.2,0.5-0.4,0.9-0.6,1.7
	c0.8-0.6,1.3-0.9,1.8-1.3l0.1,0.1c-0.3,0.4-0.6,0.9-1,1.3c0,0.1,0.1,0.1,0.1,0.2c0.4-0.2,0.9-0.5,1.5-0.8c-0.2,0.5-0.4,0.9-0.7,1.4
	c0.1,0.1,0.1,0.1,0.2,0.2c0.6-0.4,1.1-0.7,1.9-1.2c-0.3,0.6-0.5,1.1-0.7,1.5c0,0.1,0.1,0.1,0.1,0.2c0.4-0.2,0.7-0.4,1.2-0.7
	c-0.1,0.4-0.1,0.8-0.2,1.4c0.6-0.4,1-0.7,1.7-1.2c-0.3,0.6-0.5,1.1-0.7,1.5c0.1,0.1,0.1,0.1,0.2,0.2c0.5-0.3,1-0.6,1.6-0.9
	c-0.3,0.4-0.5,0.7-0.7,1.1c0,0.1,0.1,0.1,0.1,0.2c0.6-0.3,1.1-0.5,1.8-0.8c0,0.3-0.1,0.5-0.1,0.8c0.4-0.1,0.7-0.2,1.1-0.3
	c-0.4,0.5-0.8,0.9-1.1,1.3c0,0.1,0.1,0.2,0.1,0.2c0.4-0.2,0.8-0.4,1.1-0.6c-0.4,0.4-0.9,0.9-1.4,1.5c0.4,0,0.7,0,1.1,0
	c-1.7,1.9-4.2,2.3-6.1,3.8c0.9-0.3,1.9-0.6,2.8-0.9l0.1,0.1c-0.9,0.5-1.8,1-2.8,1.6c0.6,0.1,0.9,0.1,1.4,0.1c-1,0.5-1.9,0.9-3,1.4
	c0.5,0.1,0.7,0.2,1,0.3c-0.8,0.5-1.6,0.9-2.6,1.5c0.7-0.1,1.1-0.1,1.5-0.1v0.1C220.4,48.6,219.7,48.9,218.9,49.2z"/>
<path class="st1" d="M187.5,57.8c1.9-0.6,3.9-1.1,5.8-1.7c0.1,0,0.1-0.1,0.4-0.2c-0.9,0.1-1.5,0.2-2.1,0.2c0-0.1,0-0.2,0-0.3
	c1.3-0.1,2.5-0.1,3.8-0.2c0,0.1,0,0.1,0,0.2c-0.6,0.3-1.2,0.5-1.9,0.9c0.4,0.1,0.6,0.2,0.8,0.3c-0.5,0.2-0.9,0.5-1.4,0.7
	c0,0.1,0.1,0.2,0.1,0.3c1-0.2,2-0.4,3-0.7v0.1c-1.6,0.7-3.2,1.3-4.8,2c0,0.1,0.1,0.2,0.1,0.3c0.8-0.1,1.7-0.2,2.5-0.3l0,0
	c-3.1,1.2-6.1,2.4-9.3,3.6c-1.6,0.6-3.4,0.9-5.1,1.3c1.9-0.8,3.8-1.5,5.6-2.3c-0.1-0.1-0.1-0.3-0.2-0.4c-1.3,0.4-2.6,0.8-3.8,1.2
	c0-0.1-0.1-0.1-0.1-0.2c0.7-0.4,1.5-0.9,2.2-1.3c0-0.1-0.1-0.2-0.1-0.3c-2.2,0.9-4.4,1.8-6.6,2.8c0-0.1,0-0.1-0.1-0.2
	c0.3-0.3,0.6-0.5,1-0.8c0-0.1-0.1-0.2-0.1-0.2c-0.8,0.3-1.6,0.6-2.4,0.9c0-0.1-0.1-0.2-0.1-0.3c1.1-0.5,2.2-1,3.3-1.5
	c0-0.1-0.1-0.3-0.1-0.4c-1.7,0.6-3.3,1.2-5.1,1.9c0.3-0.3,0.4-0.6,0.6-0.8c0-0.1-0.1-0.2-0.1-0.2c-0.9,0.3-1.8,0.6-3,1
	c0.4-0.5,0.6-0.7,1.1-1.2c-1,0.3-1.7,0.5-2.5,0.7c0.3-0.3,0.5-0.5,0.6-0.7c0-0.1-0.1-0.2-0.1-0.3c-0.7,0.3-1.4,0.5-2.3,0.8
	c0.1-0.3,0.2-0.6,0.4-0.9c-0.6,0.1-1.1,0.3-1.6,0.4c0-0.1-0.1-0.1-0.1-0.2c0.6-0.4,1.1-0.8,1.7-1.2c0-0.1-0.1-0.1-0.1-0.2
	c-1,0.4-2,0.8-3.1,1.1l-0.1-0.1c0.4-0.2,0.7-0.5,1.1-0.7c-0.1-0.1-0.1-0.2-0.2-0.3c-0.8,0.3-1.5,0.5-2.5,0.9
	c0.3-0.5,0.5-0.8,0.8-1.3c-0.8,0.2-1.3,0.4-1.9,0.5c0,0,0-0.1-0.1-0.1c1.2-0.6,2.5-1.1,3.7-1.7c0,0.1,0.1,0.1,0.1,0.2
	c-0.3,0.2-0.5,0.4-0.8,0.7c0.1,0.1,0.1,0.2,0.2,0.3c1.4-0.4,2.8-0.8,4.4-1.3c-0.3,0.3-0.5,0.6-0.7,0.8c0,0.1,0.1,0.1,0.1,0.2
	c2.2-0.7,4.4-1.4,6.5-2.2c0,0.1,0,0.1,0.1,0.2c-1.1,0.4-2.2,0.8-3.3,1.2c0,0.1,0.1,0.2,0.1,0.3c1.4-0.4,2.8-0.8,4.2-1.1
	c0,0,0,0,0,0.1c-0.9,0.4-1.8,0.7-2.7,1.1c0,0.1,0.1,0.2,0.1,0.3c0.8-0.2,1.6-0.4,2.7-0.6c-0.4,0.3-0.6,0.5-0.8,0.7
	c0.1,0.1,0.1,0.2,0.2,0.2c2.4-0.4,4.7-0.8,7.1-1.2C184.4,58,186,57.9,187.5,57.8c-0.6,0.2-1.3,0.5-1.8,0.7c0.7,0.2,1.4,0.4,2.3,0.6
	c-0.8,0.4-1.4,0.6-1.9,0.9c0.1,0.2,0.1,0.3,0.2,0.5c1.6-0.5,3.2-1.1,5.1-1.7c-0.6-0.3-0.9-0.4-1.1-0.5c0.2-0.2,0.4-0.4,0.7-0.6
	c0.4-0.2,0.9-0.4,1.3-0.6c0-0.1-0.1-0.2-0.1-0.2C190.6,57.1,189,57.5,187.5,57.8z"/>
<path class="st1" d="M116.3,9.1c-1.2-1-2.3-2.1-3.5-3.1l0.1-0.1c0.7,0.4,1.4,0.9,2.1,1.3c0.1-0.1,0.1-0.2,0.2-0.3
	c-0.4-0.4-0.8-0.9-1.2-1.3c0,0,0-0.1,0.1-0.1c0.8,0.4,1.5,0.9,2.3,1.3c0.1-0.1,0.1-0.1,0.2-0.2c-0.3-0.3-0.6-0.7-1-1
	s-0.8-0.6-1.1-1.1c0.7,0.3,1.3,0.6,2,0.9c0.1-0.1,0.2-0.2,0.2-0.3c-0.7-0.7-1.4-1.3-2.1-2c3.6,1,5.5,3.9,7.6,6.6
	c-1-0.8-2-1.7-3.1-2.5c-0.1,0.1-0.2,0.2-0.3,0.3c1.1,1.1,2.2,2.3,3.3,3.4L122,11c-0.9-0.7-1.8-1.4-2.7-2.1c-0.1,0.1-0.2,0.2-0.3,0.3
	c1.3,1.3,2.6,2.7,3.9,4c0,0,0,0-0.1,0.1c-1.6-1.4-3.3-2.7-4.9-4.1c-0.1,0.1-0.2,0.2-0.2,0.3c1,0.8,2,1.7,3,2.5
	c-0.1,0.2-0.3,0.3-0.4,0.5c-0.5-0.3-1.1-0.7-1.6-1c-0.1,0.1-0.1,0.1-0.2,0.2c1,0.8,1.9,1.7,2.9,2.5c-0.1,0.1-0.3,0.3-0.4,0.4
	c-1-0.8-2-1.6-2.9-2.4c-0.1,0.1-0.1,0.1-0.2,0.2c0.6,0.7,1.2,1.4,1.9,2.1l-0.1,0.1c-0.5-0.3-1-0.6-1.5-1c-0.1,0.1-0.1,0.1-0.2,0.2
	c0.4,0.5,0.8,1,1.2,1.5l-0.1,0.1c-1.5-1.1-3-2.3-4.4-3.4c-0.1,0.1-0.2,0.2-0.3,0.3c1.1,1,2.1,1.9,3.2,2.9l-0.1,0.1
	c-0.8-0.6-1.6-1.2-2.4-1.8c-0.1,0.1-0.2,0.2-0.3,0.3c1.1,1,2.2,1.9,3.2,2.9l-0.1,0.1c-1.6-1.1-3.2-2.1-4.8-3.2
	c-0.1,0.1-0.1,0.2-0.2,0.3c1.2,1,2.4,2,3.7,3c-0.1,0.1-0.1,0.1-0.2,0.2c-2.2-1.6-4.3-3.2-6.8-5c0.7,0.1,1,0.1,1.5,0.2
	c-0.2-0.3-0.4-0.5-0.7-1c1,0.5,1.7,0.8,2.4,1.2c0.1-0.1,0.1-0.2,0.2-0.3c-0.8-0.7-1.5-1.3-2.3-2l0.1-0.1c0.7,0.4,1.4,0.7,2.1,1.1
	c0.1-0.1,0.1-0.2,0.2-0.2c-0.6-0.4-1.2-0.8-1.8-1.3c0.1-0.1,0.2-0.3,0.4-0.4c0.8,0.4,1.6,0.9,2.4,1.3c0.1-0.1,0.1-0.1,0.2-0.2
	c-0.8-0.7-1.6-1.5-2.5-2.2c0-0.1,0.1-0.1,0.1-0.2c0.9,0.6,1.8,1.2,2.8,1.7c0.1-0.1,0.1-0.2,0.2-0.2c-0.9-0.8-1.8-1.5-2.7-2.3
	c0.1-0.1,0.2-0.2,0.3-0.4c1.2,0.8,2.3,1.6,3.5,2.4C116.1,9.3,116.2,9.2,116.3,9.1z"/>
<path class="st1" d="M29.6,52.6c0.7-0.3,1.2-0.6,1.8-0.9c0-0.1,0-0.1-0.1-0.2c-3.9,1.1-7.7,2.3-11.6,3.4c0-0.1,0-0.1,0-0.2
	c2-0.7,4-1.3,5.9-2c0-0.1-0.1-0.2-0.1-0.3c-1.6,0.4-3.1,0.8-4.7,1.2v-0.1c0.5-0.2,1-0.4,1.5-0.6c0-0.1,0-0.2,0-0.2
	c-1.2,0.2-2.4,0.4-3.6,0.5c0,0,0,0,0-0.1c2.8-0.7,5.6-1.4,8.4-2.2c0-0.1-0.1-0.3-0.1-0.4c-1.4,0.3-2.8,0.6-4.1,0.9
	c0-0.1,0-0.1,0-0.2c1.8-0.5,3.5-1,5.3-1.5c0-0.1,0-0.2-0.1-0.3c-1.3,0.2-2.6,0.5-3.9,0.7V50c1.4-0.4,2.9-0.9,4.3-1.3
	c0-0.1,0-0.1,0-0.2c-0.4,0-0.8,0.1-1.2,0.1v-0.1c0.8-0.3,1.7-0.6,2.5-0.9c0-0.1,0-0.2,0-0.3c-2.4,0.4-4.8,0.7-7.2,1.1c0,0,0,0,0-0.1
	c3.2-0.7,6.5-1.4,10-2.2c-0.5,0.3-0.8,0.6-1.4,0.9c0.7-0.1,1.2-0.1,1.6-0.2v0.1c-0.5,0.2-1,0.4-1.6,0.6c0,0.1,0,0.1,0.1,0.2
	c0.6-0.1,1.1-0.2,1.7-0.2v0.1c-0.5,0.2-1,0.4-1.7,0.7c0.4,0.1,0.7,0.1,1,0.2v0.1c-0.1,0.1-0.2,0.2-0.4,0.3c1,0.2,1.8,0.3,2.7,0.4
	c-0.4,0.2-0.8,0.4-1.6,0.7c1.6,0,2.8,0,4.1,0c0,0.1,0,0.2,0.1,0.3C34.5,51.5,32.1,52,29.6,52.6z"/>
<path class="st1" d="M216.7,42.2c-2,1.3-4.6-0.3-5.7-2c-1.3-1.9,0-4.2,1.8-5.7c1-0.9,4.5-0.1,5.5,1.2c1.1,1.5,1.7,3.8-0.2,5.6
	c0.2-0.5,0.4-0.9,0.7-1.7c-1,0.9-1.8,1.6-2.7,2.4C216.3,42.1,216.5,42.1,216.7,42.2z M215.3,35.4c-1.7,0-3.2,1.2-3.1,2.5
	c0.1,1.4,1.6,3,2.8,3c1.4,0,2.9-1.5,2.9-2.8C217.9,36.8,216.5,35.3,215.3,35.4z"/>
<path class="st1" d="M110.7,16c0.8,0.7,1.6,1.5,2.4,2.2l-0.1,0.1c-1.2-0.8-2.3-1.6-3.5-2.3c-0.1,0.1-0.1,0.1-0.2,0.2
	c0.3,0.4,0.7,0.7,1,1.1l-0.1,0.1c-1-0.6-1.9-1.2-2.9-1.8c0-0.1,0.1-0.1,0.1-0.2c0.3,0.1,0.6,0.1,1.2,0.2c-0.3-0.4-0.5-0.6-0.9-1
	c0.8,0.3,1.3,0.5,1.9,0.8c0.1-0.1,0.2-0.2,0.2-0.3c-0.4-0.2-0.8-0.4-1.3-0.7c0.1-0.2,0.3-0.3,0.4-0.5c2,1.5,4.1,2.9,6.1,4.4
	c-0.1,0.1-0.1,0.2-0.2,0.3c-1.3-1-2.7-1.9-4-2.9C110.9,15.7,110.8,15.8,110.7,16z"/>
<path class="st1" d="M141.1,34.9c-2.2-1.9-2.1-5.1,0-7.4c-0.1,0.4-0.3,0.8-0.5,1.4c0.2,0.1,0.6,0.2,1.4,0.4
	c-0.8,0.1-1.2,0.2-1.6,0.3c0,0.1,0,0.1,0,0.2c0.4,0.1,0.8,0.3,1.2,0.4c0,0.1,0,0.1,0,0.2c-0.5,0.1-1,0.1-1.5,0.2
	c0,0.1,0,0.1-0.1,0.2c0.5,0.1,0.9,0.3,1.7,0.5c-0.6,0.2-1,0.2-1.1,0.3C140.9,32.6,141,33.8,141.1,34.9z"/>
<path class="st1" d="M162.2,28.4c0.1,0.4,0.1,0.8,0.2,1.3c0,0-0.2,0.1-0.5,0.3c0.4,0.2,0.7,0.3,1.3,0.5c-0.6,0.2-1.1,0.4-1.6,0.5
	c0.6,0.2,1.1,0.3,1.8,0.6c-0.6,0.2-0.9,0.3-1.3,0.4c0.3,0.2,0.6,0.3,1,0.5c-0.3,0.2-0.6,0.4-0.7,0.4c0,0.6,0,1.2,0,1.8
	C160.2,33.2,160.6,29.2,162.2,28.4z"/>
<path class="st1" d="M145.3,31.2c-0.3,0.1-0.5,0.2-1,0.4c0.3,0.2,0.6,0.3,0.7,0.3c-0.2,0.6-0.3,1.2-0.4,1.8
	c-1.9-2.2-2.1-3.6-0.8-5.7c0.3,0.4,0.6,0.7,0.9,1.2c-0.3,0.1-0.5,0.2-1,0.3c0.7,0.2,1.1,0.4,1.7,0.6c-0.6,0.3-1.1,0.5-1.9,0.8
	c0.8,0.1,1.3,0.1,1.7,0.2C145.2,31.1,145.2,31.1,145.3,31.2z"/>
<path class="st1" d="M129.9,27.6c-0.2,0.1-0.4,0.2-0.7,0.3c0.3,0.1,0.5,0.3,0.9,0.5c-0.7,0.1-1.1,0.2-1.9,0.4
	c0.7,0.3,1.1,0.4,1.7,0.6c-0.6,0.1-1,0.1-1.3,0.2c0,0.1,0,0.1,0,0.2c0.5,0.1,0.9,0.3,1.7,0.6c-0.7,0.1-1,0.2-1.4,0.2
	c0,0.1,0,0.1,0,0.2c0.4,0.1,0.9,0.2,1.4,0.4c-0.3,0.1-0.5,0.3-0.7,0.3c0.1,0.5,0.1,0.9,0.2,1.4c-1.2-0.8-2.4-1.5-2.1-3.1
	c0.2-1.2,1-1.8,1.9-2.3C129.7,27.4,129.8,27.5,129.9,27.6z"/>
<path class="st1" d="M91,29.9c0.2,0.7,0.4,1.4,0.7,2.2c-0.1,0-0.3,0.2-0.7,0.4c0.4,0.2,0.7,0.4,1,0.7c-0.4,0.2-0.6,0.4-0.8,0.4
	c0,0.7,0,1.2,0,1.8C89.4,34.5,89.3,31.7,91,29.9z"/>
<path class="st1" d="M165.6,28.9c-0.1,0.4-0.2,0.8-0.3,1.2c0.3,0.1,0.6,0.3,1.2,0.7c-0.7,0.1-1.1,0.1-1.5,0.1c0,0.1,0,0.2-0.1,0.2
	c0.5,0.2,0.9,0.3,1.4,0.5c-0.2,0.2-0.4,0.3-0.7,0.5c0.4,0.1,0.6,0.1,1.2,0.2c-0.6,0.3-0.9,0.4-1.1,0.5c0.1,0.5,0.1,1.1,0.3,1.9
	c-2.1-2.1-2.3-4-0.8-6C165.4,28.9,165.5,28.9,165.6,28.9z"/>
<path class="st1" d="M159.6,33c-0.1,0.4-0.2,0.8-0.3,1.4c-1.4-1.6-1.6-4-0.6-5.5c0.3,0.5,0.5,1,0.8,1.7c0,0-0.2,0.1-0.3,0.2
	c0.4,0.2,0.7,0.3,1.3,0.5c-0.4,0.3-0.7,0.4-1.1,0.7c0.3,0.1,0.5,0.1,1,0.2c-0.6,0.4-0.8,0.5-1.1,0.7C159.4,32.9,159.5,33,159.6,33z"
	/>
<path class="st1" d="M96.2,32.3c0.7,0.2,1.1,0.2,1.5,0.3c-0.2,0.4-0.5,0.7-0.6,1.1C97,34.1,95.7,34.2,97,35c-2-1.1-2.1-2.7-0.7-5.3
	c0.3,0.7,0.7,1.3,1,2.1C97.1,31.9,96.8,32,96.2,32.3z"/>
<path class="st1" d="M109.1,31c-0.4,0.1-0.7,0.3-1.3,0.4c0.3,0.2,0.5,0.4,0.7,0.5c-0.4,0.4-0.3,1.3-0.1,1.9c0.1,0.4-0.2,0.8-0.3,1.3
	c-1.5-1.4-1.6-3.3-0.2-5.6C108.7,29.7,107.8,31.3,109.1,31z"/>
<path class="st1" d="M121.8,66.2c0.1,0,0.5,0.1,0.9,0.2c-1.1,2.3-3.2,4-3.7,3.6C118.8,68,120.9,67.7,121.8,66.2z"/>
<path class="st1" d="M113.1,28.7c0.2,0.7,0.5,1.4,0.8,2.2c-0.1,0-0.4,0.2-1,0.4c0.6,0.2,0.9,0.3,1.4,0.5c-0.3,0.2-0.6,0.3-0.7,0.4
	c0,0.7,0,1.2,0,1.9C111.9,32.6,111.8,30.7,113.1,28.7z"/>
<path class="st1" d="M155.8,28.5c0.2,0.3,0.5,0.5,0.8,0.9c-0.2,0.1-0.4,0.2-0.8,0.4c0.6,0.2,1,0.3,1.5,0.5c0,0.1,0,0.1,0,0.2
	c-0.4,0.1-0.8,0.2-1.6,0.3c0.8,0.3,1.3,0.5,1.9,0.7c-0.4,0.2-0.7,0.4-1.1,0.5c0.3,0.1,0.4,0.2,0.7,0.3c-0.3,0.4-0.6,0.7-0.9,1
	C154.5,30.6,154.5,30.6,155.8,28.5z"/>
<path class="st1" d="M126.5,33.1c-2.2-2.1-2.4-2.6-1.2-4.4c0.1,0.4,0.2,0.7,0.3,1.1c0.3,0.1,0.8,0.2,1.5,0.4
	c-0.5,0.3-0.9,0.4-1.3,0.6c0.5,0.2,0.9,0.4,1.5,0.6c-0.4,0.2-0.7,0.3-1.2,0.4C127,32.1,127.2,32.4,126.5,33.1z"/>
<path class="st1" d="M77.6,56.5c-1.4,0.7-2.7,1.4-4.1,2.1c0-0.1-0.1-0.1-0.1-0.2c0.5-0.4,1.1-0.8,1.6-1.1c0-0.1-0.1-0.1-0.1-0.2
	c-0.4,0.1-0.8,0.1-1.4,0.2c0.4-0.3,0.7-0.5,1-0.7c0-0.1-0.1-0.2-0.1-0.2c-0.6,0.2-1.1,0.3-1.7,0.5c0,0,0-0.1-0.1-0.1
	c0.8-0.5,1.6-0.9,2.6-1.5c0,0.4,0,0.6,0,0.8c0.4,0,0.7-0.1,1.1-0.1c0.1,0.1,0.1,0.2,0.2,0.3c-0.3,0.2-0.6,0.3-0.9,0.5
	c0.1,0.1,0.2,0.2,0.2,0.3c0.5-0.2,1.1-0.5,1.6-0.7C77.5,56.3,77.5,56.4,77.6,56.5z"/>
<path class="st1" d="M148.5,30.1c-0.6,0.2-1,0.3-1.6,0.5c0.6,0.2,1,0.3,1.3,0.3c-0.1,0.7-0.1,1.4-0.2,2.1c-2.7-3.4-2.3-3.8-1.3-5.1
	c0.3,0.4,0.7,0.8,1.1,1.3c-0.3,0.1-0.6,0.1-1.1,0.2C147.3,29.7,147.7,29.9,148.5,30.1z"/>
<path class="st1" d="M137.6,28.7c-0.1,0.3-0.2,0.6-0.2,0.9c0.3,0.1,0.6,0.3,1.3,0.6c-0.7,0.1-1.2,0.1-1.6,0.2c0,0.1,0,0.1,0,0.2
	c0.6,0.2,1.2,0.4,2,0.6c-0.6,0.2-1,0.3-1.6,0.5c0.4,0.2,0.8,0.3,0.9,0.4c-0.2,0.5-0.3,0.9-0.5,1.4C136,32.5,135.9,30.7,137.6,28.7z"
	/>
<path class="st1" d="M134.7,28.5c0.4,0.2,0.7,0.5,1.2,0.8c-0.4,0.2-0.7,0.3-1.2,0.4c0.4,0.2,0.7,0.3,1.1,0.5c-0.3,0.2-0.6,0.3-1,0.5
	c0.4,0.2,0.7,0.3,0.8,0.4c-0.2,0.7-0.4,1.4-0.6,2.1C133.3,31.8,133.2,30.3,134.7,28.5z"/>
<path class="st1" d="M150.1,30.5c0.6,0.2,0.9,0.4,1.2,0.5c-0.2,0.6-0.4,1.1-0.6,2c-0.3-2-2.7-3.1-0.8-5.5c0.1,0.6,0.2,0.9,0.2,1.4
	c0.1,0,0.5,0.1,0.8,0.2c0,0.1,0,0.1,0,0.2c-0.4,0.1-0.8,0.1-1.2,0.2c0,0.1,0,0.1,0,0.2c0.6,0.1,1.1,0.2,1.7,0.4c0,0.1,0,0.1,0,0.2
	C151,30.3,150.7,30.4,150.1,30.5z"/>
<path class="st1" d="M105.6,32c-0.3,0.2-0.5,0.3-0.7,0.4c0.3,0.2,0.5,0.4,0.5,0.4c-0.1,0.6-0.1,1.1-0.2,1.7
	c-1.8-1.9-1.9-3.6-0.4-5.4c0.1,0.3,0.3,0.7,0.4,1.1c-0.2,0.1-0.4,0.2-0.8,0.4c0.3,0.2,0.6,0.3,0.9,0.5c-0.3,0.2-0.5,0.4-0.8,0.6
	C104.9,31.9,105.2,31.9,105.6,32z"/>
<path class="st1" d="M153.1,28.2c0.3,0.4,0.5,0.6,0.8,1c-0.3,0.2-0.6,0.3-1.1,0.6c0.6,0.2,1,0.3,1.5,0.4c0,0.1,0,0.1,0,0.2
	c-0.4,0-0.7,0.1-1.3,0.1c0.5,0.3,0.9,0.6,1.3,0.8c-0.2,0.1-0.4,0.2-0.5,0.3c0.1,0.5,0.1,1,0.2,1.8C151.9,30.5,151.8,29.9,153.1,28.2
	z"/>
<path class="st1" d="M152.6,36.3c-1.4-1.4-1.6-2.9-0.5-4.7c0.3,0.7,0.5,1.2,0.8,1.8c-0.1,0.1-0.3,0.2-0.7,0.5
	c0.4,0.1,0.7,0.2,1.1,0.4c-0.3,0.2-0.6,0.3-0.6,0.3C152.7,35.2,152.6,35.7,152.6,36.3z"/>
<path class="st1" d="M94.4,32.2c-0.3,0.2-0.5,0.3-0.8,0.5c0.3,0.1,0.5,0.2,0.5,0.2c-0.2,0.6-0.3,1.1-0.4,1.7c-1.3-1.1-1.4-2.7,0-5
	c0.1,0.9,0.2,1.5,0.3,2.3C93.9,31.9,94.2,32,94.4,32.2z"/>
<path class="st1" d="M117,33.5c-1.4-1.4-1.7-3-0.6-4.7c0,0.4,0.1,0.8,0.1,1.3c0.2,0.1,0.5,0.2,0.9,0.4c-0.4,0.2-0.8,0.3-1.3,0.6
	c0.7,0.2,1.3,0.3,2.1,0.5c-0.7,0.3-1.2,0.4-1.7,0.6C117.1,32.5,117.8,32.8,117,33.5z"/>
<path class="st1" d="M131.6,28.4c0.2,0.7,0.4,1.2,0.6,1.9c0,0-0.2,0.1-0.4,0.3c0.4,0.2,0.7,0.3,1.1,0.5c-0.3,0.2-0.6,0.3-0.7,0.4
	c0,0.5,0,1,0,1.6C130.7,31.7,130.5,30.4,131.6,28.4z"/>
<path class="st1" d="M99.4,30.2c-0.1,0.3-0.1,0.7-0.2,1.1c0.1,0,0.4,0.1,0.7,0.3c-0.2,0.1-0.3,0.3-0.6,0.5c0.3,0.2,0.6,0.3,1,0.5
	c-0.5,0.2-0.8,0.3-1.2,0.4c0.2,0.2,0.4,0.3,0.5,0.3c-0.1,0.7-0.2,1.1-0.2,1.7C98,33.3,98,31.8,99.4,30.2z"/>
<path class="st1" d="M119.8,31c0.6,0.2,1,0.3,1.5,0.5c-0.3,0.2-0.6,0.3-0.8,0.4c0.1,0.4,0.2,0.7,0.4,1.2c-1.8-1-2.4-2.5-1.6-4.6
	c0.2,0.7,0.3,1.1,0.5,1.7c0.1,0,0.4,0.2,0.9,0.3C120.5,30.6,120.3,30.7,119.8,31z"/>
<path class="st1" d="M88.5,33.1c-0.1-0.1,0.1,0.1,0.3,0.2c-0.3,0.1-0.5,0.2-0.7,0.3c0.1,0.4,0.1,0.9,0.2,1.5
	c-1.5-1.2-1.4-2.6,0.4-4.6C88.6,31.3,88.6,32.1,88.5,33.1z"/>
<path class="st1" d="M32.8,53.3c-3.4,1.2-6.7,2.4-10.1,3.6c0-0.1-0.1-0.2-0.1-0.3c3.4-1.2,6.7-2.4,10.1-3.6
	C32.7,53.1,32.8,53.2,32.8,53.3z"/>
<path class="st1" d="M101.9,32.1c0,1,0,1.7,0,2.4c-1-0.5-1.4-3.5-0.4-4.2c0.2-0.1,0.6,0,1.2,0c-0.4,0.3-0.5,0.5-0.8,0.7
	c0.3,0.1,0.6,0.3,1,0.5c-0.5,0.2-0.8,0.3-1.3,0.5C101.8,32.1,102,32.2,101.9,32.1z"/>
<path class="st1" d="M74.6,59.1c1.3-0.9,2.6-1.8,4.2-2.8c-0.2,0.6-0.3,0.8-0.5,1.2c0.6-0.2,1.1-0.4,1.5-0.5c0,0.1,0.1,0.2,0.1,0.3
	c-1.7,0.7-3.5,1.5-5.2,2.2C74.7,59.2,74.7,59.1,74.6,59.1z"/>
<path class="st1" d="M105.3,28.1c0.7,0,1.2-0.1,1.9-0.1c-0.4,0.3-0.6,0.4-0.9,0.6c0.5,0.1,0.8,0.2,0.9,0.2c-0.2,0.9-0.5,1.8-0.7,2.6
	c-0.1,0-0.2,0-0.2,0C106,30.4,105.7,29.3,105.3,28.1z"/>
<path class="st1" d="M110.7,28.8c0.3,0.4,0.6,0.8,1,1.2c-0.2,0.1-0.4,0.2-0.7,0.4c0.4,0.1,0.6,0.2,0.5,0.2c0.1,0.7,0.2,1.2,0.3,1.8
	C109.9,31.8,109.6,30.5,110.7,28.8z"/>
<path class="st1" d="M101.2,35.9c-0.1,0.5-0.1,1-0.2,1.6c-1.3-1.1-1.5-2.3-0.5-4.4c0.1,0.8,0.2,1.3,0.3,2c0.1,0,0.4,0.1,0.9,0.3
	c-0.3,0.2-0.5,0.3-0.8,0.5C101,35.8,101.1,35.8,101.2,35.9z"/>
<path class="st1" d="M115.5,17.6c-2-1.4-4.1-2.8-6.1-4.3C111.9,14.1,113.7,15.8,115.5,17.6z"/>
<path class="st1" d="M76,34.9c0.1,0.7,0.2,1.2,0.3,1.9c-1.5-1.2-1.6-2.1-0.9-4c0.3,0.3,0.7,0.6,1.1,1c0,0.2,0,0.5,0.1,1
	C76.4,34.8,76.1,34.9,76,34.9z"/>
<path class="st1" d="M31.6,43.3c-0.2,0.1-0.4,0.1-0.8,0.3c0.5,0.2,0.8,0.3,1.2,0.5c-0.9,0-1.7,0-2.4,0c-0.3,0-0.5-0.3-0.7-0.4
	c-0.1,0.2-0.2,0.5-0.3,0.6c-0.4,0.1-0.8,0.2-1.1,0.1c-0.2-0.1-0.3-0.5-0.5-0.8C28.5,43.5,30.1,43.4,31.6,43.3
	C31.6,43.2,31.6,43.2,31.6,43.3z"/>
<path class="st1" d="M81.7,34.1c-1.4,0.8-0.6,1.6-0.4,2.5c-1.4-0.7-1.6-2.9-0.5-4.6c0.2,0.4,0.4,0.8,0.7,1.3
	c-0.2,0.1-0.4,0.3-0.7,0.5C81.1,33.8,81.3,33.9,81.7,34.1z"/>
<path class="st1" d="M179.3,31c0.4,0.1,0.8,0.3,1.4,0.5c-0.4,0.2-0.7,0.3-0.9,0.3c0.2,0.3,0.3,0.7,0.5,1c-1.3-0.8-2.2-1.8-1.6-3.5
	c0.5,0.4,1.2,0.8,1.9,1.3c-0.4,0-0.8,0.1-1.2,0.1C179.3,30.8,179.3,30.9,179.3,31z"/>
<path class="st1" d="M77.3,33.4c-1.8-1-1.9-1.8-1.2-3.1c0.2,0.2,0.4,0.6,0.6,1c0.2-0.2,0.4-0.3,0.6-0.5c-0.3,0.1-0.6,0.3-1.1,0.5
	c0.5,0.2,0.9,0.4,1.4,0.5c-0.3,0.2-0.6,0.3-0.8,0.4C77,32.6,77.2,33,77.3,33.4z"/>
<path class="st1" d="M198,54.4c-1.1-1.3-1.6-2.7-1.3-4c1.2,0.9,1.8,2.2,2.3,3.5l0,0c-0.5-0.5-0.9-1.1-1.6-1.9
	C197.6,53,197.8,53.7,198,54.4L198,54.4z"/>
<path class="st0" d="M209.8,36.8c-0.3,0.4-0.6,0.7-1,1.3c-0.2-2.2,1.1-3.4,2.6-4.4c-0.5,0.9-0.9,1.8-1.4,2.6
	C209.9,36.5,209.9,36.6,209.8,36.8z"/>
<path class="st1" d="M118.6,27.6c-0.6,0.2-0.9,0.4-1.3,0.5c0.5,0.2,0.8,0.3,1.3,0.4c-0.2,0.2-0.4,0.3-0.5,0.4c0.2,0.5,0.3,1,0.5,1.5
	c-0.2,0.1-0.3,0.1-0.5,0.2c-0.5-0.9-1.1-1.9-1.7-3C117.3,27.6,117.8,27.6,118.6,27.6z"/>
<path class="st1" d="M85.7,31.1c0.1,0.6,0.2,1.1,0.3,1.8c0.1,0-0.1,0.1-0.4,0.3c0.2,0.1,0.4,0.2,0.4,0.2c-0.1,0.7-0.1,1.2-0.2,1.8
	C84.4,33.5,84.4,32.7,85.7,31.1z"/>
<path class="st1" d="M59.5,38.8c-1.8-1-1.3-2.7,0-4c0,0.6-0.1,1-0.1,1.5c0.2,0.1,0.4,0.2,0.7,0.3c-0.4,0.2-0.7,0.3-0.8,0.4
	C59.4,37.5,59.4,38,59.5,38.8z"/>
<path class="st1" d="M72.7,33.7c0.3,0.1,0.5,0.1,0.9,0.2c-0.4,0.2-0.7,0.4-1.1,0.6c0.4,0.2,0.8,0.3,1.1,0.4
	c-0.2,0.2-0.4,0.4-0.7,0.5c0.2,0.3,0.3,0.7,0.6,1.2c-1.8-0.9-2-2.3-0.7-3.9C72.7,33,72.7,33.3,72.7,33.7z"/>
<path class="st1" d="M70.9,34.3c-0.4,0.2-0.6,0.3-1,0.5c0.5,0.1,0.8,0.2,1.4,0.3c-0.5,0.2-0.8,0.3-0.9,0.4c0.1,0.5,0.3,0.9,0.4,1.4
	c-1.4-0.7-1.7-1.5-1.2-3.1C70,34,70.4,34.2,70.9,34.3z"/>
<path class="st1" d="M67.8,37.6c-1.5-0.6-1.9-1.8-1-2.9c0.5,0.3,1.1,0.5,1.7,0.8c-0.4,0.1-0.8,0.2-1.1,0.3
	C67.6,36.5,67.7,37,67.8,37.6z"/>
<path class="st1" d="M61.5,36c0.3,0.2,0.5,0.3,0.9,0.5c-0.4,0.2-0.7,0.3-1,0.4c0.2,0.4,0.3,0.7,0.6,1.3c-1.6-0.9-1.3-2.8,0.2-4.1
	c0,0.5-0.1,0.9-0.1,1.6C62.2,35.7,61.9,35.8,61.5,36z"/>
<path class="st1" d="M160,27.9c0.5,0.2,0.8,0.3,1.1,0.5c-0.4,0.1-0.6,0.1-0.8,0.2c0.1,0.6,0.2,1.1,0.4,1.6c-0.2,0.1-0.4,0.1-0.5,0.2
	c-0.3-0.9-0.7-1.8-1.1-2.9c0.9,0,1.4,0,2,0c0,0.1,0,0.1,0,0.2C160.8,27.7,160.5,27.8,160,27.9z"/>
<path class="st1" d="M110.6,34c0,0-0.2,0.1-0.4,0.2c0.1,0.3,0.3,0.6,0.4,0.9c-0.2,0.1-0.2,0.1-0.3,0.1c-1.1-0.7-1.6-1.8-1.1-2.8
	c0.1-0.2,0.4-0.3,0.6-0.4c0,0.2,0,0.4,0.1,0.6C110.1,33,110.3,33.4,110.6,34z"/>
<path class="st1" d="M188.7,33.5c-0.7,2.1-1.3,4-1.9,5.9C186.5,37.6,187.3,34.9,188.7,33.5z"/>
<path class="st1" d="M123.9,33.4c-0.9-0.9-1.9-1.7-1-3.1c0.2,0.1,0.4,0.2,0.7,0.3c-0.2,0.2-0.3,0.4-0.5,0.6c0.4,0.1,0.7,0.1,0.9,0.1
	C123.9,32,123.9,32.7,123.9,33.4z"/>
<path class="st1" d="M183.7,29.7c0.6,0.1,1.1,0.2,2,0.4c-0.6,0.1-1,0.2-1.6,0.3c0.7,0.3,1.1,0.5,1.7,0.7c-0.4,0-0.6,0.1-1.1,0.1
	c0.3,0.3,0.6,0.4,0.5,0.4c0,0.5-0.1,0.8-0.1,1.1c-0.1,0-0.1,0.1-0.2,0.1c-0.5-1-1-1.9-1.4-2.9C183.5,29.9,183.6,29.8,183.7,29.7z"/>
<path class="st1" d="M78.9,35.7c-1.4-1.5-1.5-2.2-0.6-3.4C78.5,33.5,79.6,34.3,78.9,35.7z"/>
<path class="st1" d="M110.3,18.6c-1.6-1-3.2-2-4.7-3c0.1-0.1,0.1-0.2,0.2-0.3c1.6,1,3.2,1.9,4.8,2.9
	C110.4,18.4,110.3,18.5,110.3,18.6z"/>
<path class="st1" d="M56.7,36.3c0.1,0-0.2,0.1-0.4,0.3c0.3,0.1,0.5,0.3,0.8,0.5c-0.4,0.1-0.6,0.1-0.8,0.2c0.1,0.5,0.3,0.9,0.5,1.7
	c-1.6-0.9-1.5-2.5-0.1-3.6C56.7,35.5,56.7,35.8,56.7,36.3z"/>
<path class="st1" d="M115.4,27.8c-0.4,0.2-0.6,0.3-1,0.5c0.4,0.1,0.7,0.2,1.1,0.4c-0.4,0.2-0.7,0.3-0.8,0.3c0.2,0.5,0.4,1,0.6,1.5
	c-0.2,0.1-0.4,0.2-0.5,0.2c-0.4-0.9-0.8-1.9-1.3-3.1C114.3,27.7,114.7,27.7,115.4,27.8z"/>
<path class="st1" d="M171.9,30c-0.4,0.2-0.6,0.3-0.7,0.3c0.1,0.7,0.1,1.4,0.2,2c-0.2,0-0.3,0-0.5,0.1c-0.2-1.2-0.4-2.4-0.6-3.8
	c0.7,0.2,0.9,0.3,1.3,0.4C170.6,29.5,171.4,29.7,171.9,30z"/>
<path class="st1" d="M82.3,33.9c-0.1,0.6,1.1,0.9,0.3,1.7c0.8,0.7-0.9,0.8-0.2,1.5C81.5,36.4,81.5,35.2,82.3,33.9z"/>
<path class="st1" d="M182.4,31.9c0.1,0.4,0.2,0.8,0.3,1.2c-0.1,0-0.2,0.1-0.4,0.1c-0.4-0.8-0.8-1.7-1.4-2.8c0.9,0.1,1.5,0.2,2.3,0.3
	c-0.5,0.2-0.8,0.3-1.1,0.5c0.3,0.2,0.6,0.4,0.9,0.6C182.8,31.8,182.6,31.8,182.4,31.9z"/>
<path class="st1" d="M124.6,28.5c-0.4,0.1-0.8,0.2-1.1,0.3c0.2,0.4,0.4,0.7,0.6,1c-0.1,0.1-0.2,0.2-0.4,0.3
	c-0.5-0.6-1.1-1.2-1.6-1.8c0.1-0.1,0.1-0.2,0.2-0.3c0.8,0.1,1.5,0.2,2.3,0.3C124.6,28.4,124.6,28.4,124.6,28.5z"/>
<path class="st1" d="M95.1,37.1c-1-0.5-1.2-1.3-0.8-2.7c0.3,0.2,0.7,0.3,1.1,0.5c-0.2,0.2-0.5,0.3-0.7,0.5c0.3,0.1,0.5,0.2,0.7,0.3
	C95.3,36.2,95.2,36.6,95.1,37.1z"/>
<path class="st1" d="M104.5,28.5c-0.6,0.2-0.9,0.4-1.4,0.6c0.4,0.1,0.6,0.2,0.8,0.3c-0.1,0.5-0.3,1-0.4,1.5c-0.1,0-0.2,0-0.3,0
	c-0.2-0.8-0.5-1.6-0.8-2.6C103.1,28.3,103.7,28.4,104.5,28.5z"/>
<path class="st1" d="M74.7,32c-0.2,0.1-0.5,0.3-0.7,0.3c0.2,0.4,0.4,0.8,0.6,1.2c-1.5-0.6-1.7-1.3-1.2-2.4
	C73.8,31.5,74.2,31.7,74.7,32z"/>
<path class="st1" d="M166.1,28.4c0.6,0.1,1.2,0.2,1.8,0.3c0,0.1,0,0.1,0,0.2c-0.3,0.1-0.6,0.1-1.1,0.2c0.3,0.2,0.5,0.4,0.6,0.5
	c-0.1,0.5-0.1,0.9-0.2,1.7c-0.6-1-1-1.8-1.4-2.5C165.9,28.6,166,28.5,166.1,28.4z"/>
<path class="st1" d="M71.4,56.4c0.2-0.4,0.3-0.5,0.5-0.8c-0.4,0-0.7,0-1.2-0.1c0.7-0.4,1.3-0.7,2.2-1.2c-0.3,0.5-0.4,0.7-0.6,1.1
	c0.7-0.2,1.2-0.4,1.8-0.5c0,0.1,0.1,0.2,0.1,0.3C73.3,55.5,72.5,55.9,71.4,56.4z"/>
<path class="st1" d="M172.3,28.9c0.8,0.1,1.2,0.1,1.8,0.2c-0.3,0.2-0.5,0.3-0.7,0.5c0.2,0.2,0.5,0.3,0.8,0.5
	c-0.3,0.1-0.6,0.2-0.8,0.2c0.2,0.4,0.3,0.8,0.5,1.1c-0.1,0.1-0.3,0.1-0.4,0.2C173.2,30.8,172.8,29.9,172.3,28.9z"/>
<path class="st1" d="M126.8,28.1c0.1,0.5,0.2,0.9,0.3,1.4c-1.1-0.5-1.9-1.2-2.1-2.3C125.7,27.6,126.3,27.9,126.8,28.1z"/>
<path class="st1" d="M151.8,27.4c-0.3,0.1-0.5,0.1-0.9,0.2c0.5,0.5,1.6,0.6,0.9,1.7c-0.6-0.7-1.2-1.4-1.9-2.1c0.7,0,1.2,0,1.8,0
	C151.7,27.3,151.7,27.3,151.8,27.4z"/>
<path class="st1" d="M89.3,34.1c0.2,0.4,0.5,0.9,0.7,1.4h-0.1c0.1,0.6,0.2,1.1,0.3,1.6C88.8,36.4,88.5,35.4,89.3,34.1z"/>
<path class="st1" d="M108.7,27.7c0.4,0.3,0.8,0.7,1.3,1.1c-0.3,0.2-0.5,0.3-0.7,0.4c0.1,0.4,0.2,0.7,0.3,1.1c-0.1,0-0.3,0.1-0.4,0.1
	c-0.3-0.8-0.6-1.6-1-2.3C108.4,28,108.6,27.8,108.7,27.7z"/>
<path class="st1" d="M100.8,28.8c-0.1,0.1-0.3,0.2-0.5,0.3c0.3,0.2,0.6,0.3,0.7,0.4c-0.2,0.5-0.3,1-0.4,1.4c-0.1,0-0.2,0-0.4,0.1
	c-0.1-0.7-0.3-1.4-0.3-2.1c0-0.1,0.6-0.2,0.9-0.3C100.7,28.6,100.7,28.7,100.8,28.8z"/>
<path class="st1" d="M18.9,49.9c2-0.3,4-0.6,6-0.8c0,0.1,0,0.2,0,0.3c-2,0.3-4,0.5-6,0.8C18.9,50.1,18.9,50,18.9,49.9z"/>
<path class="st1" d="M104.7,17.1c1.2,0.7,2.4,1.4,3.6,2.1c-0.1,0.1-0.1,0.2-0.2,0.3c-1.2-0.7-2.4-1.4-3.6-2.1
	C104.6,17.3,104.7,17.2,104.7,17.1z"/>
<path class="st1" d="M87.1,29.7c0,0.8,0,1.6,0,2.3c-0.1,0-0.3,0-0.4,0.1c-0.2-0.7-0.4-1.4-0.7-2.3C86.5,29.8,86.9,29.8,87.1,29.7z"
	/>
<path class="st1" d="M82.5,31.2c-0.1,0.4-0.1,1-0.3,1.7c-1.1-1.3-1.2-2.3-0.3-2.7C82.1,30.5,82.3,30.8,82.5,31.2z"/>
<path class="st0" d="M216.7,42.2c-0.2,0-0.4-0.1-0.7-0.1c0.9-0.8,1.6-1.5,2.7-2.4c-0.3,0.8-0.5,1.2-0.7,1.7
	C217.6,41.6,217.2,41.9,216.7,42.2z"/>
<path class="st1" d="M142.3,29.2c-0.2-0.7-0.4-1.3-0.6-2.1c0.6,0,1,0,1.5,0c-0.4,0.2-0.6,0.4-0.5,0.3c0,0.7,0.1,1.2,0.1,1.7
	C142.6,29.1,142.5,29.2,142.3,29.2z"/>
<path class="st1" d="M153.5,27.1c0.4,0.1,0.8,0.1,1.3,0.2c-0.4,0.1-0.5,0.2-0.9,0.3c0.5,0.2,0.8,0.3,1.1,0.5
	c-0.1,0.3-0.2,0.7-0.3,1.2c-0.5-0.7-1-1.3-1.5-1.9C153.3,27.3,153.4,27.2,153.5,27.1z"/>
<path class="st1" d="M148.8,27.9c-0.1,0.3-0.3,0.7-0.5,1.2c-0.4-0.7-0.8-1.4-1.2-2c0.1-0.1,0.2-0.2,0.3-0.3
	C147.9,27.2,148.4,27.6,148.8,27.9z"/>
<path class="st1" d="M187.5,33c0.3-0.8,0.6-1.6,0.8-2.4c0.2,0.1,0.3,0.1,0.5,0.2c0.3,1-0.5,1.6-1,2.3C187.8,33.1,187.7,33,187.5,33z
	"/>
<path class="st1" d="M97.6,31c-0.2-0.7-0.4-1.4-0.7-2.2c0.8,0,1.3,0,1.9,0v0.1c-0.4,0.1-0.9,0.2-1.6,0.3c0.6,0.2,0.9,0.3,1,0.4
	c-0.2,0.5-0.3,0.9-0.4,1.3C97.8,31,97.7,31,97.6,31z"/>
<path class="st1" d="M222.8,48.7c1.4-0.8,2.8-1.6,4.2-2.4c0,0.1,0.1,0.2,0.1,0.3c-1.4,0.8-2.8,1.6-4.2,2.4
	C222.9,48.9,222.8,48.8,222.8,48.7z"/>
<path class="st1" d="M83.8,32.8c-0.1,0.6-0.3,1.2-0.4,1.8c-0.1,0-0.2,0-0.3,0c-0.1-1-0.1-2-0.2-3c0.1,0,0.2,0,0.3,0
	C83.4,32,83.6,32.4,83.8,32.8z"/>
<path class="st1" d="M164.6,28.6c-0.4,0.1-0.6,0.2-0.7,0.3c0,0.5,0.1,1.1,0.1,1.6c-0.1,0-0.3,0.1-0.4,0.1c-0.3-0.7-0.5-1.3-0.9-2.2
	C163.4,28.4,163.9,28.5,164.6,28.6z"/>
<path class="st1" d="M92.5,34c0.1,1,0.1,1.8,0.2,2.9C91.5,35.8,91.5,35.4,92.5,34z"/>
<path class="st1" d="M145.2,29.1c-0.3-0.7-0.6-1.3-1-2.2c0.8,0.1,1.3,0.2,1.8,0.3c-0.3,0.1-0.6,0.2-1.1,0.3c0.4,0.3,0.6,0.5,0.7,0.6
	c-0.1,0.4-0.2,0.7-0.2,1C145.4,29,145.3,29.1,145.2,29.1z"/>
<path class="st1" d="M47.6,36.2c-0.1,0.8-0.1,1.5-0.2,2.3c-0.1,0-0.1,0.1-0.2,0.1c-0.2-0.4-0.5-0.8-0.5-1.2c0.1-0.5,0.4-0.9,0.7-1.4
	C47.4,36.1,47.5,36.2,47.6,36.2z"/>
<path class="st1" d="M86.9,37.2c-0.2-0.9-0.4-1.8-0.5-2.7c0.1,0,0.3-0.1,0.4-0.1c0.2,0.6,0.4,1.3,0.6,1.9c0.1,0,0.2-0.1,0.3-0.1
	c-0.1,0.3-0.3,0.6-0.4,1C87.1,37.2,87,37.2,86.9,37.2z"/>
<path class="st1" d="M16.2,58.8c-1.7,0.4-3.5,0.8-5.2,1.2c0-0.1,0-0.1,0-0.2c1.7-0.4,3.4-0.9,5.2-1.3C16.1,58.6,16.1,58.7,16.2,58.8
	z"/>
<path class="st1" d="M68.6,34.7c-0.4-0.5-0.7-1.1-1.2-1.8c0.6-0.1,0.9-0.2,1.2-0.2c0.1,0.7,0.2,1.3,0.3,1.9
	C68.8,34.6,68.7,34.6,68.6,34.7z"/>
<path class="st1" d="M29.7,45.8c-1.7,0.3-3.4,0.5-5,0.8c0-0.1,0-0.1,0-0.2c1.7-0.3,3.4-0.5,5-0.8C29.7,45.6,29.7,45.7,29.7,45.8z"/>
<path class="st1" d="M94.7,31.5c-0.2-0.7-0.5-1.5-0.7-2.2c0.1-0.1,0.2-0.2,0.3-0.3c0.4,0.3,0.7,0.6,0.9,0.7
	c-0.1,0.7-0.2,1.2-0.3,1.8C94.9,31.5,94.8,31.5,94.7,31.5z"/>
<path class="st1" d="M16,52.6c1.6-0.3,3.3-0.5,4.9-0.8c0,0.1,0,0.1,0,0.2c-1.6,0.3-3.2,0.5-4.9,0.8C16,52.7,16,52.6,16,52.6z"/>
<path class="st1" d="M187,29.8c0.3,0.1,0.6,0.3,0.7,0.3c-0.1,0.5-0.2,1-0.3,1.8c-0.4-1-0.7-1.8-1-2.7c0.5,0,0.7,0.1,1,0.1
	c0,0.1,0.1,0.1,0.1,0.2c-0.3,0-0.5,0-0.8,0C186.8,29.6,186.9,29.7,187,29.8z"/>
<path class="st1" d="M79.9,31.4c-0.1,0.7-0.2,1.2-0.4,2.1c-0.4-0.8-0.7-1.4-1-2.1C79.1,31.4,79.6,31.4,79.9,31.4z"/>
<path class="st1" d="M84.7,30.8c-0.1,0.5-0.2,0.9-0.4,1.4c-0.5-0.8-1-1.5-0.3-2.3C84.4,30.4,84.6,30.7,84.7,30.8z"/>
<path class="st1" d="M139.2,28.1c-0.3,0.2-0.5,0.3-0.5,0.3c0.2,0.5,0.4,1,0.7,1.5c-0.1,0.1-0.3,0.1-0.4,0.2c-0.3-0.6-0.7-1.3-1.1-2
	C138.3,28.1,138.6,28.1,139.2,28.1z"/>
<path class="st1" d="M132.1,28c1.1,0.4,1.4,1.2,0.8,2.3C132.6,29.5,132.4,28.9,132.1,28z"/>
<path class="st1" d="M75.3,28c0.1,0.4,0.3,1.1,0.2,1.1c-0.6,0.2-0.9,0.4-0.4,1.1c-0.2-0.1-0.5-0.3-0.5-0.3c0.1-0.6,0.3-1.3,0.5-1.9
	C75.2,27.9,75.2,28,75.3,28z"/>
<path class="st1" d="M168.5,63.9c1.4-0.1,2.5-0.2,3.6-0.3c0,0.1,0,0.2,0,0.3C171,63.9,169.9,63.9,168.5,63.9z"/>
<path class="st1" d="M175.6,28.9c0.3,0.2,0.8,0.3,0.9,0.5c0.1,0.4-0.1,0.8-0.1,1.2c-0.1,0-0.2,0-0.3,0c-0.2-0.5-0.4-1-0.6-1.5
	C175.4,29,175.5,28.9,175.6,28.9z"/>
<path class="st0" d="M110.3,62c4.2-1.2,8.3-0.5,12.5,0.1C118.6,63.1,114.5,62,110.3,62z"/>
<path class="st0" d="M185.7,53.8c-0.9,0-1.8,0-2.7,0c0-0.1,0-0.2,0-0.4c0.9,0,1.8,0,2.7,0C185.7,53.6,185.7,53.7,185.7,53.8z"/>
<path class="st0" d="M80.4,54.7c-1,0-1.9,0-2.9,0c0-0.1,0-0.2,0-0.3c1-0.1,1.9-0.1,2.9-0.2C80.4,54.4,80.4,54.6,80.4,54.7z"/>
<path class="st0" d="M160.6,65.6c-1,0.1-2,0.1-3,0.2c0-0.2,0-0.3,0-0.5c1,0,2,0,3,0C160.6,65.4,160.6,65.5,160.6,65.6z"/>
<path class="st0" d="M209,44.8c-0.1-0.8-0.2-1.7-0.3-2.5c-0.1,0-0.1,0-0.2,0c-0.1,0.4-0.3,0.8-0.4,1.1c-0.1,0-0.2,0-0.3,0
	c-0.1-0.9-0.2-1.9-0.2-2.8c-0.1,0-0.2,0-0.3,0c-0.2,0.4-0.4,0.7-0.6,1.1c-0.1,0-0.2,0-0.4-0.1c0.1-0.9,0.3-1.9,0.4-2.8
	c-0.1,0-0.2-0.1-0.3-0.1c-0.3,0.8-0.6,1.6-0.9,2.6c-0.8-1.7,0.3-3,0.6-4.6c-0.4,0.4-0.9,0.8-1.3,1.2c-0.1-0.1-0.2-0.1-0.3-0.2
	c0.6-1.1,1.2-2.2,1.8-3.3c0.1,0,0.2,0.1,0.4,0.1c0.2,1.1,0.3,2.2,0.5,3.3c0.2,1.5,0.8,2.9,2,3.8c1.3,1,0.2,2,0.3,3
	C209.3,44.7,209.2,44.7,209,44.8z"/>
<path class="st0" d="M208.9,51.7c-0.3,0.1-0.6,0.1-0.8,0.2c0.2,0.4,0.3,0.8,0.5,1.2c-0.1,0.1-0.1,0.1-0.2,0.2
	c-0.5-0.6-1-1.1-1.6-1.7c-0.1,0-0.1,0.1-0.2,0.1c0.5,0.8,1,1.7,1.5,2.5c-0.1,0.1-0.3,0.2-0.4,0.3c-0.7-1-1.4-2.1-2-3.1
	s-1.2-2.1-1.8-3.2c-0.3-0.5-0.6-1-0.7-1.5c-0.4-1.5-0.6-3-0.9-4.6c-0.1-0.4,0.1-0.9,0.4-1.3c0.3,1.6,0.6,3.2,0.9,4.8
	c0.3,2,1.6,3.3,3.1,4.5C207.3,50.6,208,51.1,208.9,51.7z"/>
<path class="st0" d="M190,36.3c-0.7,2.6-1.4,5.1-2.1,7.7c0.2-3.4,0.2-6.9,2.6-9.9C190.3,34.8,190.1,35.5,190,36.3L190,36.3z"/>
<path class="st0" d="M190,36.3c0.3-0.5,0.6-0.9,0.9-1.4c0.3-0.4,0.6-0.8,0.9-1.2c0.1,0,0.2,0.1,0.3,0.1c-0.7,1.9-1.4,3.7-2.1,5.6
	c-0.1,0-0.3-0.1-0.4-0.1C189.7,38.3,189.9,37.3,190,36.3L190,36.3z"/>
<path class="st0" d="M200.8,35.4c-0.5,1.5-1,2.9-1.6,4.6C198.4,38.2,199,36.6,200.8,35.4z"/>
<path class="st0" d="M200.4,40c-0.8-1.2-0.3-2.9,1.4-4.1C201.3,37.4,200.9,38.6,200.4,40z"/>
<path class="st0" d="M197.9,54.4c-0.2-0.7-0.4-1.4-0.6-2.3c0.7,0.8,1.1,1.3,1.6,1.9c0.2,0.6,0.5,1.2,0.7,1.8
	c-0.1,0.1-0.1,0.1-0.2,0.2C198.9,55.5,198.4,54.9,197.9,54.4z"/>
<path class="st0" d="M191,38.6c-0.2-1.5,0.7-2.6,1.5-3.8c0.1,0,0.2,0.1,0.3,0.1c-0.5,1.3-0.9,2.5-1.4,3.8
	C191.3,38.7,191.2,38.6,191,38.6z"/>
<path class="st0" d="M202.7,37.1c-0.4,1.2-0.7,2.3-1,3.6C200.9,39.2,201.3,38,202.7,37.1z"/>
<path class="st0" d="M203.5,52.4c-0.5-0.8-0.9-1.7-1.4-2.5C203.2,50.5,204,51.1,203.5,52.4z"/>
<path class="st0" d="M210.6,52.2c-1.4-0.5-2-1.2-1.5-2.7C209.7,50.4,210.1,51.1,210.6,52.2z"/>
<path class="st0" d="M210.5,48.6c0.3,0.8,0.7,1.5,1,2.4C210.3,50.9,210.1,50.4,210.5,48.6z"/>
<path class="st0" d="M208.2,35.4c0.6-0.8,1.2-1.6,1.8-2.4c0.1,0.1,0.3,0.2,0.4,0.3c-0.5,0.8-1.1,1.6-1.6,2.5
	C208.5,35.7,208.4,35.6,208.2,35.4z"/>
<path class="st0" d="M211.2,48.8c-0.2-0.8-0.4-1.6-0.6-2.4c0.2,0,0.3-0.1,0.5-0.1c0.2,0.8,0.4,1.6,0.6,2.4
	C211.5,48.7,211.3,48.7,211.2,48.8z"/>
<path class="st0" d="M187.5,57.8c1.6-0.3,3.1-0.6,4.7-0.9c0,0.1,0.1,0.2,0.1,0.2c-0.4,0.2-0.9,0.4-1.3,0.6c-0.3,0.1-0.5,0.4-0.7,0.6
	c0.3,0.1,0.5,0.2,1.1,0.5c-1.9,0.6-3.5,1.2-5.1,1.7c-0.1-0.2-0.1-0.3-0.2-0.5c0.6-0.3,1.1-0.5,1.9-0.9c-0.9-0.2-1.6-0.4-2.3-0.6
	C186.2,58.2,186.8,58,187.5,57.8C187.5,57.7,187.5,57.8,187.5,57.8z"/>
<path class="st0" d="M215.3,35.4c1.2,0,2.6,1.4,2.6,2.7c0,1.4-1.5,2.8-2.9,2.8c-1.2,0-2.7-1.6-2.8-3
	C212.1,36.6,213.5,35.4,215.3,35.4z M214.9,38.1c0.4-0.4,0.8-0.7,1.1-1c-0.3-0.2-0.6-0.5-0.8-0.4c-0.3,0.1-0.6,0.5-0.9,0.7
	C214.4,37.5,214.6,37.7,214.9,38.1z"/>
<path class="st1" d="M214.9,38.1c-0.3-0.3-0.5-0.5-0.7-0.7c0.3-0.3,0.6-0.6,0.9-0.7c0.2-0.1,0.6,0.3,0.8,0.4
	C215.6,37.4,215.3,37.7,214.9,38.1z"/>
</svg>
