<?xml version="1.0" encoding="utf-8"?>
<!-- Generator: Adobe Illustrator 24.2.3, SVG Export Plug-In . SVG Version: 6.00 Build 0)  -->
<svg version="1.1"
	 id="svg2" xmlns:cc="http://creativecommons.org/ns#" xmlns:dc="http://purl.org/dc/elements/1.1/" xmlns:rdf="http://www.w3.org/1999/02/22-rdf-syntax-ns#"
	 xmlns="http://www.w3.org/2000/svg" xmlns:xlink="http://www.w3.org/1999/xlink" x="0px" y="0px" viewBox="0 0 1537 1779"
	 style="enable-background:new 0 0 1537 1779;" xml:space="preserve">
<style type="text/css">
	.st0{opacity:0.7;}
</style>
<path id="path26" class="st0" d="M702.3,1629.1c10.6,0.7,21.4,23.1,9.7,28.7c-7.5-5.3-15.6-10.6-22.5-16.5c-2.3-6.6,6.1-7.7,9.7-3.6
	C705.3,1641.8,698.4,1631.3,702.3,1629.1L702.3,1629.1z M729.5,1601.2c7.7-2.1,8.8,7.6,12.7,11.7c2.5,5.3,10.6,11.2,6.4,17.8
	c-10.2,4.4-17.9-6.2-25.4-11c-1.2-5.5,6-2.8,9-1.8C730.8,1612.3,723.8,1606.2,729.5,1601.2L729.5,1601.2z M758.5,1579.2
	c8.9-1,10.6,10.4,15.7,15.5c5.2,3.4,0.3,10-2,13.8c-9.3,0.8-18.4-6-24.2-12.7c1.3-7.9,10.7-0.8,14.2,0.9
	C764.8,1593,749.1,1583,758.5,1579.2L758.5,1579.2z M238.5,1515.3c5.9-0.8,5.6,5.4,2.9,8.9c5.1-0.8,16.9-8.7,14,1.9
	c-7.1,8.2-18.8,13.9-29.1,17.4C208.4,1538.8,232,1521.1,238.5,1515.3L238.5,1515.3z M210.4,1490.4c5.7-1.2,8.9,5.5,6.8,10.4
	c4,0.2,13.8-6.8,11,2.3c-5.6,10.5-29.2,24.7-37,11C197,1505.2,203.2,1497.4,210.4,1490.4z M1092.4,908c6.2-0.7,6.1,7.7,4.9,11.8
	c0.1,22.4,9.2,54,35.6,56.2c4.7,7.2-9.2,8.7-13.6,5.9c-19.3-11.1-29-35.1-29.7-56.5C1089.6,919.9,1086.8,911.9,1092.4,908
	L1092.4,908z M1098.3,832.6c8.7-1.7,4.2,8.7,4.4,13c-4.3,25.3,1,52.4,20.3,70.3c5.4,4.1-2.9,8.2-6.3,4.4
	C1092.9,898.9,1087.8,861.9,1098.3,832.6L1098.3,832.6z M1270.3,773.2c18,11,33.1,29.4,48.3,45.1c3,2.7,0.1,8.7-3.9,6
	c-14-13.5-26.8-28.1-42.4-39.7C1268.7,782.4,1263.9,775.1,1270.3,773.2z M1234.2,764.1c14.1,6.2,27.2,17.9,32.6,32.8
	c-6.4,9.6-14-7.8-17.7-11.9C1245.5,778.1,1226.2,773.5,1234.2,764.1z M1308.2,151.2c3.1-0.3,3.2,3.7,1.8,5.6
	c-6.6,12.4-20.4,24.2-18.5,39.3c9.7,5.6,18.5-11.4,27.4-13.2c4.5-0.1,4.7,5.5,2.1,8.1c-8.8,6.8-17.4,15.5-28.9,16.8
	c-11.6-2.8-11.6-17.5-6.3-26.1C1290.2,169.8,1297.6,158.5,1308.2,151.2z M1361.5,100.4c29.6-0.9,27.1,44,8,57.3
	c-3.9,0.8-12.8,6.4-14.4-0.6c4-8,18.7-7.8,16.4-19.5c-7.6-6.1-20.7,1.2-24.5-9.8c-11.8-2.6-6.2,24.4-17.5,20.4
	c-2.3-11.2,5.4-21,10.3-30.4C1344.6,109.9,1351.1,100.4,1361.5,100.4L1361.5,100.4z M1490.2,0.1h2.8c5.3,1.4-2.1,6.4-4.7,7.5
	c-8.8,2.8-18.2,12.6-16.4,21.2c10.9-8.1,28.5-21,42.8-13.4c-6.8,7.9-27.1,4.6-33.4,17.2c-8.2,11.2-0.6,24.5,5.3,34.6
	c12.9,14.5,33.8,12.1,50.3,17.2v1.9c-15.7,3.7-32.2,0-46.6-6.6c-1.4-1.2-3.1,0.7-2,2.1c9.1,14.9,22.4,26.9,37.6,35.4
	c2.7,8.2-12.5,0.6-14.7-2.5c-12.1-4.6-16-24.6-28.7-25c2.4,22.1,27.4,33.9,38.2,51.4c-17.3-5.6-26.9-23.1-38.5-35.8
	c-6.9-1-7.9,9.2-7.8,14.1c5.7,14.5,22.5,19.2,32.2,28.8c-13.6,3-23.1-16-35.1-17.6c-10.3,37-22.1,74.4-43.6,106.6
	c-13.5,31.9-26.7,64.3-32.3,98.6c-12.2,77.7-11.8,156.3-9.1,234.7c2.8,79.3-18.9,157.6-52.6,228.6c-1.9,3.1-4.9,6.2-3.5,10.3
	c8.6,26.7,17.6,53.4,23.1,80.9c17.4,50.1,12.3,105.3,29.5,155.5c24,49.4,19.9,105.4,16.2,158.6c-4.9,24.8-13.4,52.6-37.3,65.2
	c-16.1,4.7-25.3-10.5-26.4-24.2c-0.7-10.8-12.9-12.7-21.4-13.7c-15.8,0.1-34.1-5.7-41.2-20.9c-4.4-32.4-25.1-59.7-48.5-81.3
	c-8.9-13.7-26.7-18.3-34.2-32.9c-3.2-9.8-2.6-20.3-3.7-30.4c-3.2-8.6-12.4-7.2-19.6-7.8c-9.2-0.5-15.3-8.5-23.1-12.3
	c-52.2,38.2-105.2,76.7-163.6,105.3c-39.8,26.4-82.3,48.3-124.6,70.4c-53.8,28.9-113.3,46.6-164.5,80.5
	c-17.9,13.9-30.1,33.9-40.2,53.8c-7.7,30.6-7.5,66.2,12.4,92.4c44.6,61.3,121.7,81.9,180.5,125.4c24.3,22.4,51.4,41.8,73.7,66.3
	c9.1,10.8,21.5,19.7,25.2,34c3.5,7.4-2.6,17.4-11.3,15.7c-13.2,3.5-24.2-5.1-35.6-10c-19.9-12.4-40.2-23.9-59-38.2
	c7.5,10.7,3.4,31.6-12.6,29.7c-5.9-0.3-20.1-7.6-19.6,2.6c1,13.5-17.1,17-27,12.2c0.5,21.1-24.9,26.9-39.9,16.5
	c16.9,19.8,34.9,39.2,44.6,63.8c1.9,6.3-4.1,11.3-9.7,12.3h-1.8c-33.2-5.2-53.3-34.8-79.9-52.1c-62-59.7-120.5-125.6-158.3-203.7
	c-9-20.6-20.5-41-20.4-64.2c-1-13.7,5.1-28.1,3.8-41.2c-7.3,14.9-20.2,27.4-36.5,31.7c-14,20.1-30.2,38.7-49.1,54.2
	c-24.7,19.9-56.2,27.5-82.8,44.2c-16.4,8.4-29.6,21.8-46.1,30c-20.9,7.7-35.5,25.5-54.6,36.3c-38.1,28.1-79.2,52.4-123.3,69.9
	c-11.3,4.6-29.6-3.3-23.7-17.7c14.4-22.7,33.6-42,54.2-59.1c-8.7,1-19.3,3.8-25.8-4.1c-5.2-7.5-0.4-15,2.4-22.1
	c-9.2,0.4-20,3.9-27.1-4.1c-4.1-8.1-1.3-18.1,5.1-24.2c-13.5,4.1-33.2,4.6-33.2-14.5c-17.8,6.2-34.3,18-53.7,19.9
	c-8.4,2.1-20.9,0-22-10.4v-5.2c29.7-58.6,99.2-74.3,153.2-102.4c63.5-20.4,124.3-48.6,188.8-66c13.3-7.9,30.3-12.7,37.9-27.2
	c5.9-23.8-11.8-42.6-21.4-62.4c-7.2-18.1-9.2-37.8-13-56.8c0.5-15.9,6-31.1,8.5-46.7c12.2-53.8,47.7-98.6,59.6-152.4
	c10.8-44.2,22.6-92.5,58.5-123.6c84.6-84.3,186.2-148.4,281.4-219.5c-19.8-12.4-49.1-11.5-71.2-1.1c-8.3,6.3-23.2,1.6-25-9
	c-6.3-34.4,17.2-70.1,47.6-84.4C744.4,579,786,572,824,555.3c35.1-20.3,70-42.4,109.8-52.2c9.2-1.8,17.7-6.2,24.8-12.2
	C1006,455,1057.3,421,1089.8,370c14.4-24.5,30.3-48.4,41.2-74.8c23.2-44.5,35-93.9,58.8-138.1c14.4-14.8,27.8-32.3,47.2-40.9
	c66.9-26,132.8-55.3,197.7-86.2c9.8-9.1,28.5,3,33.1-12.1C1470.6,7.7,1480.9,3,1490.2,0.1 M1444.5,34.5
	c-54.4,17.9-103.1,50.6-157.1,70.1c-14.2,3.1-25.5,13-39.5,16.5c-23.2,7.3-39.5,26.7-54.1,45c-21.1,43.3-33.9,90-56.2,132.8
	c-10.2,28.8-29.5,52.9-42.9,80c-35.5,49.8-85.7,85.9-134.9,121.1c-46.9,42-95.7,82.8-131.8,135.2c-13.4,20.7-38.2,28.8-54.5,46.5
	c-92.5,69.6-192.5,130.1-275.6,211.4c-14.5,14.5-31.7,26.8-42,45c-23.3,36-29.1,79.3-41.4,119.6c-15.4,43-43.5,81.7-51.5,127.2
	c-14.6,39-7,83.9,16.6,118c11.5,17.9,18.4,48.8-2.9,62.1c-18.5,14.4-41.6,20.8-63.8,27.2c-34.2,9.4-66.4,24.4-99.6,36.4
	c-39.2,9.6-74.7,28.8-111.7,44.3c-33.5,17.2-72.1,33.4-91.3,67.8c-3.5,13.6,14.9,5,21.6,5.5c33.7-10.8,62.8-31.9,95.3-45.7
	c14.4-10.6,30.9-18.8,47.2-25.6c9.9,12.5,15.7-15.1,26.5-6.6c1.3,5-5.2,9.1-6.6,14.1c5.8,2.9,14.2-12.2,12.9-0.2
	c-6.8,8.9-19.3,9.4-28.5,15c-7.2,3.3-4.5-9-11.1-9.1c-13.9,4.8-26.5,12.8-38.5,21.3c-15.4,8-33.8,14.4-42.4,30.7
	c-1.4,5.2,6.4,5.7,9.6,4.8c31.6-3.3,54.2-28.7,82.8-39.8c9.8-2.5,6.7,10.5-0.7,10.6c-24.5,11-44,27.9-64.1,44.9
	c-9.7,6.4,3.6,15.4,10.5,11.7c27.1-7.6,52.2-21.4,75.6-36.9c3.2-1.9,8.8,1.2,5.6,5.5c-21.8,20-57.8,25.1-71.3,53.6
	c10.1,9.7,24.6-1.5,35.2-5.4c21.3-7.7,37.4-25.2,58.6-33.2c5.2,1.4,3.1,9.1-0.9,11c-41.1,26.9-84.6,53.7-113.2,94.7
	c-1.9,3.1-8.4,8.1-4.6,12c10.4,4.4,20.7-2.3,29.6-6.9c50.9-20.4,94.3-54.9,138.4-86.7c13.7-6.3,28-12.3,39.2-22.8
	c31.7-26.3,72.9-36.1,106.2-59.8c15.6-14.6,33.1-28.2,43.3-47.4c-8.1-3.9-11-13.8-10.2-22.2c1.1-29.6-4.1-58.9-12.3-87.2
	c-0.6-5.3-4.6-18.4,6.1-13c1.3,13.6,6.7,26.2,9.4,39.6c7,23.1,2.9,48,7.9,71.2c16.7,5.7,33.2-9.8,39.5-24.3
	c7.2-21.8,16.2-43.5,18.6-66.4c-3.4-9.7,4.6-16.4,5.4-25.5c0.2-4.8,8.3-7.2,9.7-1.9c-3.7,23.4-6.5,46.9-10.3,70.3
	c-3.5,32.8-15.1,67.1-2.5,99.5c11.5,29.6,26.5,57.7,43.4,84.6c2.5,9.7,15,12.5,15.7,22.3c22.8,33.5,52.3,63,77.2,93.9
	c16.8,9.3,26.8,27.5,43,38c21.5,13.7,37.8,40.3,65.3,41c-7.2-31.3-36.6-52.8-54.8-78.5c-13-11.6-20.9-26.4-34.1-38
	c-4.2-3,0.4-9.4,4.6-6.7c12.7,10.3,24,22.6,37.5,31.7c8.5,12.7,31.4,31.6,42.3,12.1c-2.3-18.6-22.8-26.4-32.7-40.7
	c-4.4-2.8-18.2-13.6-5.5-14.6c18.6,11.9,31.1,31.6,51,42.2c7.7,7.2,21.5-2.4,16.7-12.3c-12.3-19.3-30.8-34.5-50-47.4
	c-3.6-3.9,2.4-9.9,6.7-6.9c23.2,16.3,40.5,42,68.3,51c7.2,2.9,11.6-6.7,7.9-11.9c-11.7-18.5-31.5-29.2-46-45.1
	c-2.5-1.8-0.8-6.5,2.4-5.5c37.2,22.5,72.7,49.4,110.5,71.6c10.8,5.5,24.7,14.7,36.7,8.2c-1.9-11.7-11.7-19.5-18.8-28.1
	c-21.7-25.4-48.7-45.3-73.5-67.5c-52.9-38.7-117-60.3-165.2-105.8c-12-14.1-27.2-26.5-33.3-44.6c-8.5-26.9-8.9-56.5,0.5-83.3
	c12.3-19.9,23.6-42.2,43.7-55.4c43.5-28.8,93.2-46.2,140.5-67.5c104.7-55,209-111.1,303.7-182.3c11-6.1-5.4-15.3-5.9-23.9
	c-32.9-8.3-59.4-39-57.8-73.7c2.5-7.1,7.8,2.2,7.7,6c3.5,28.4,26.4,54.8,55.1,58.5c7.9-8.2,15,2.4,6.2,8.1
	c3.4,12.6,17.1,21.3,27.1,29.2c12.9-1.5,27,1.7,33.9,13.6c1.2,10-3.4,20.2,1.3,29.9c4.4,10.8,17.5,12.3,23.6,21.5
	c25.9,26.7,52.8,56.5,59.6,94.2c12,20.3,38.6,8.5,55.3,20.9c10.3,7.1,6.2,21.3,13.8,29.8c9.3,3.3,15.4-4.9,21.7-10
	c17.8-26.5,20.4-59.5,19.4-90.5c2.5-35.3-2.2-71.1-15.2-104.1c-15.3-27.2-10.8-59.5-18.3-88.8c-3.7-44-14.7-87.1-29.2-128.7
	c-9.7-35.8-25.2-70.2-47-100.2c-1.3-2.7,1.2-7.6,5-5.2c17.9,16.2,24.6,41.9,37.5,60.6c34.1-63.3,51.1-136.3,53.4-208.5
	c-3.7-93.8-4.2-189.1,15.6-281.5c12-28.5,18.5-59.7,36.8-85.2c10.8-24,24.2-47.3,28.3-73.6c-16.1,9.9-20.9,32.6-35.7,44.6
	c-3.8,2.2-5.4-1.8-5.4-4.4c12.7-23.1,33.7-41.7,44.8-65.5c-3.9-16.6-19.6-33.5-10-51.1c6.3,12.2,1.2,32.8,14.9,40.2
	c13.3-14.6-6.1-29-5.4-44.6c7.1-2.2,5.4,9.6,11.5,9.9c-4.4-8.3-5.9-20.7-18.2-18.7C1437.1,52.5,1470.5,26.8,1444.5,34.5
	 M929.2,514.5c-35.3,8.7-66.4,28.3-97.3,46.7c-41.2,19.8-87.6,24.8-130.1,40.9c-20.8,13.8-38,38.9-36.2,64.7c-0.8,5,4.1,13.7,9.8,10
	c14-6.5,29.6-8.4,44.7-10.3c16.8-2.2,31.2,11.2,47.8,8.7c12.9-13.4,29.4-22.5,43.8-34.1c30.1-40.1,63.2-78.1,101.6-110.4
	C917.5,524.5,928.5,520.4,929.2,514.5L929.2,514.5z"/>
</svg>
