<?xml version="1.0" encoding="utf-8"?>
<!-- Generator: Adobe Illustrator 24.2.3, SVG Export Plug-In . SVG Version: 6.00 Build 0)  -->
<svg version="1.1" id="Layer_1" xmlns="http://www.w3.org/2000/svg" xmlns:xlink="http://www.w3.org/1999/xlink" x="0px" y="0px"
	 viewBox="0 0 472.4 177.4" style="enable-background:new 0 0 472.4 177.4;" xml:space="preserve">
<style type="text/css">
	.st0{fill:#FFFFFF;stroke:#000000;stroke-miterlimit:10;}
</style>
<path class="st0" d="M196.4,12.3c0.8-0.4,1.2-0.6,1.7-0.9c0.4,1.4,0.8,2.5,1,3.6c1.2,7,0.5,13.8-2.2,20.4c-0.7,1.9-1.9,3.2-4.3,2.8
	c-0.8-0.1-1.7,0.3-2.6,1.1c0.6,0.2,1.3,0.5,1.9,0.6c5.8,0.7,11.6,1.4,17.4,2.1c7.7,0.9,15.4,1.9,23.1,2.4c2.2,0.2,4.5-0.9,6.7-1.8
	c6.9-2.6,14-3.1,17,5.2c0.2,0.7,1.3,1.2,2.1,1.5c7.5,1.9,15,0.7,22.6-0.3c10.6-1.4,19.8-6.3,28.7-11.6c4.7-2.8,9.5-5.7,15.2-6.3
	c2.4-0.2,4.8-0.4,6.5,1.9c1.7,2.3,2.1,4.7,1.2,7.7c-2.3,8.2-7.6,14.1-13.9,19.3c-1.1,0.9-2.1,2-3.4,3.2c6.3,2.2,9.8,7.1,13.3,11.9
	c1.2,1.7,1.6,4,2.7,5.9c1.6,2.5,0.9,5.4,1.6,8c0.5,1.7-0.2,2.4-1.6,3.2c-5.2,3-10.4,2-15.4,0.2c-4.6-1.7-9-4-13.3-6.3
	c-11.2-6.1-22.2-12.7-34.6-16.3c-1.8-0.5-3.9-0.3-5.9-0.4c-0.1,0.3-0.2,0.5-0.3,0.8c1.6,1.4,3.2,2.8,5.5,4.7
	c-3.6,2.3-6.8,4.2-9.8,6.3c-5.4,3.6-11.4,6.1-15.9,11c-3,3.2-6.7,5.7-10.3,8.2c-0.7,0.5-2.8-0.4-3.7-1.3c-2-1.9-3.7-4.1-5.5-6.2
	c-2.9-3.4-5.8-6.9-8.8-10.2c-0.6-0.7-2.4-1.2-2.9-0.9c-3,2.2-6.3,2.3-9.6,1.5c-3.7-1-7.2-0.4-10.7,0.1c-5.4,0.7-10.7,2.1-16.1,3.4
	c2.9,0,5.8,0,8.7,0c2.3,0,3.4,1,3.8,3.4c0.9,6.3-0.8,12-3,17.7c-0.3,0.7-0.7,1.6-0.6,2.3c0.8,3.4-1.2,3.1-3.4,2.6
	c-7.1-1.4-12.9-4.8-17-10.8c-2-2.8-4-5.6-5.5-8.7c-1.7-3.6-4.3-4.5-8.1-4.4c-10.3,0.5-20.5,1-30.8,1c-8.8,0-17.7-0.8-26.5-1.4
	c-11.4-0.8-22.7-1.9-34.1-2.6c-3.9-0.2-7.9,0.3-11.9-0.1c1.5-0.4,2.9-0.8,4.8-1.3C43.4,83,37,81.7,30.6,80.3
	c-8.1-1.8-15.3-5.7-21.8-10.9C8.4,69,8,68.5,7.5,68.1c-4.1-3.8-3-6.9,1.5-9.3C22.5,51.7,36.8,46.5,52,44.4
	c13.3-1.9,26.5-4.6,39.8-5.9c14.4-1.4,28.9-1.7,43.4-2.5c3.5-0.2,7.1-0.3,10.6-1.1c2-0.4,3.8-2,5.6-3.1
	c10.6-6.2,21.2-12.5,31.9-18.5c2.9-1.6,6.3-2.5,9.6-3.4C194.5,9.4,196.6,9.1,196.4,12.3z"/>
<path class="st0" d="M171.6,138.2c-3-2-5.8-3.7-8.3-5.7c-3.1-2.4-5.6-5.4-6.3-9.4c-0.6-3.2,0.2-4.4,3.4-3.9c4,0.6,8.1,1.5,11.9,3
	c10.2,4,20.1,8.5,30.3,12.6c1.9,0.8,4.2,0.9,6.3,0.8c4.8-0.2,9.6-0.7,14.4-1.2c1-0.1,2.2-0.8,2.8-1.6c3.1-4.5,6.5-5.6,11.4-2.6
	c3.2,2,6.2,2.2,9.8,1.9c11-0.8,22.1-1.2,33.1-2c1.7-0.1,3.5-0.9,4.9-2c3.8-2.8,8-4.1,12.6-4.8c7.4-1.1,14.8-0.4,22,1.1
	c8.1,1.7,16.2,1.9,24.3,2.1c22.3,0.8,44.5,1.8,66.6,4.8c14.9,2.1,29.5,5.2,43.8,9.9c4.5,1.5,8.3,3.9,10.9,7.9c1.4,2.1,0.8,4.2-1.8,6
	c-7.8,5.1-16.2,8.8-25.3,10.4c-16.8,2.9-33.7,4.6-50.8,4.6c-16.5-0.1-32.9,0-49.4-0.2c-4.1,0-8.2-0.9-12.3-1.1
	c-7.2-0.4-14.3-0.5-21.5-0.7c-4.6-0.2-9.3-0.2-13.9-0.6c-2-0.2-3.8-1.3-5.7-1.9c-1-0.3-2.1-0.5-3.1-0.6c-6.4-0.5-12.8-1.2-19.2-1.3
	c-3.1-0.1-6.1,0.8-9.2,1.4c-6,1.1-11.5,0.7-17.1-2.5c-7.5-4.3-15.3-8.3-23.4-11.4c-3.6-1.4-8.1-0.7-12.2-0.4
	c-11.5,0.8-23,2.1-34.5,2.8c-4.5,0.3-9-0.4-13.6-0.7c-1.1-0.1-2.1-0.4-3.1-0.8c-3.7-1.5-4.3-4.8-1-7c3-1.9,6.5-3.2,10-4.2
	C162.5,139.7,166.9,139.1,171.6,138.2z"/>
</svg>
