<?xml version="1.0" encoding="utf-8"?>
<!-- Generator: Adobe Illustrator 24.2.3, SVG Export Plug-In . SVG Version: 6.00 Build 0)  -->
<svg version="1.1" id="Layer_1" xmlns="http://www.w3.org/2000/svg" xmlns:xlink="http://www.w3.org/1999/xlink" x="0px" y="0px"
	 viewBox="0 0 31.9 32" style="enable-background:new 0 0 31.9 32;" xml:space="preserve">
<style type="text/css">
	.st0{fill:#FFFFFF;}
</style>
<g>
	<path d="M17,25.1c-0.2,0.7-0.4,1.2-0.6,1.8c-0.3,0.7-0.9,1.2-1.6,1.6c-0.2,0.1-0.4,0.1-0.6,0.1c-0.2,0-0.4,0-0.6,0
		c0,0.2,0.1,0.4,0.3,0.6c0.3,0.3,0.6,0.6,0.7,1c0,0.1,0.1,0.2,0.2,0.3c0.2,0.1,0.3,0.2,0.5,0.2c0.6,0.1,1.2,0.3,1.9,0.4
		c0.3,0.1,0.6,0.1,0.7,0.3c-0.1,0.2-0.3,0.2-0.4,0.1c-0.7-0.2-1.4-0.1-2,0.1c-0.3,0.1-0.7,0.1-1-0.1c-0.1-0.1-0.3,0-0.4,0
		c-0.4,0-0.5-0.1-0.5-0.5c0-0.3,0-0.6,0-0.9c-0.5,0.2-1.1,0.3-1.6,0.3c-0.3,0-0.5,0-0.7-0.2c0,0-0.1-0.1-0.1-0.1
		c-0.1-0.4-0.5-0.7-0.7-1c-0.1-0.1-0.2-0.3-0.2-0.5c0-0.1,0.1-0.2,0.1-0.3c0.2-0.2,0.4-0.3,0.6-0.5c-0.7-0.3-1.1-0.9-1.6-1.4
		c-0.3-0.3-0.6-0.6-0.9-0.8c-0.4-0.4-0.7-0.8-0.9-1.3c-0.1-0.2-0.3-0.4-0.4-0.7c-0.1-0.3-0.2-0.7-0.3-1.1c-0.1-0.8-0.2-1.6-0.4-2.3
		c0-0.3-0.2-0.5-0.2-0.8c-0.1-0.3-0.2-0.7-0.4-1c-0.2-0.4-0.3-0.8-0.8-1.1c-0.1-0.1-0.2-0.1-0.3-0.2c-0.2-0.1-0.2-0.3-0.1-0.5
		c0.1-0.2,0.2-0.3,0.4-0.3c0.2,0,0.3,0,0.5,0c0.4,0.1,0.7,0,1.1-0.2C6.8,16.1,7.1,16,7.3,16c1,0,1.9-0.3,2.8-0.8
		c0.5-0.3,1-0.6,1.5-0.8c0.3-0.1,0.6-0.2,0.9-0.2c0.7-0.1,1.3-0.2,1.9-0.6c0.6-0.3,0.9-0.9,1.1-1.4c0.1-0.3,0.1-0.6,0.1-0.9
		c0.2-1.6,0.1-3.1,0.2-4.7c0.1-1.1,0.1-2.3,0.5-3.4c0.1-0.3,0.3-0.6,0.4-0.9c0.2-0.3,0.3-0.7,0.5-1c0.5-0.9,1.4-1.2,2.3-1.1
		c0.8,0.1,1.5,0.5,1.9,1.3c0.2,0.3,0.5,0.6,0.8,0.9c0.2,0.2,0.4,0.3,0.6,0.5C22.9,3.2,23,3.3,23,3.5c0.1,0.3-0.1,0.5-0.4,0.6
		c-0.3,0-0.5,0-0.8,0c-0.8,0-1.5,0.2-2.2,0.5c-0.1,0-0.2,0.1-0.2,0.2c-0.3,0.5-0.5,0.9-0.7,1.4c-0.3,1.4-0.4,2.9-0.1,4.3
		c0.2,1.1,0.7,2.1,1.4,2.9c0.5,0.6,1,1.2,1.5,1.8c0.4,0.6,0.9,1.1,0.9,1.8c0,0.8,0.2,1.6,0,2.4c-0.2,1.1-0.7,2-1.3,2.8
		c-0.2,0.3-0.4,0.5-0.7,0.7C19.6,24,18.3,24.5,17,25.1C17,25.1,17,25.1,17,25.1z M22.8,3.8c0.1-0.3,0-0.5-0.2-0.7
		c-0.2-0.2-0.4-0.3-0.6-0.5c-0.3-0.3-0.6-0.6-0.8-1c-0.4-0.9-1.1-1.2-2-1.3c-0.8-0.1-1.5,0.3-1.9,1C17.2,1.7,17,2,16.9,2.3
		c-0.2,0.3-0.3,0.6-0.4,0.9c-0.2,0.6-0.3,1.3-0.4,2c-0.1,1-0.1,2-0.1,3.1c0,0.8,0,1.7-0.1,2.5c0,0.2-0.1,0.4-0.1,0.6
		c0,1-0.5,1.8-1.3,2.4c-0.3,0.2-0.7,0.3-1,0.4c-0.4,0.1-0.8,0.1-1.2,0.2c-0.2,0-0.4,0.1-0.6,0.1c-0.5,0.2-1,0.5-1.4,0.8
		c-0.9,0.5-1.9,0.8-2.9,0.8c-0.3,0-0.5,0.1-0.8,0.2c-0.3,0.1-0.5,0.2-0.8,0.1c-0.2,0-0.4,0-0.5,0c-0.2,0-0.4,0-0.5,0.3
		c-0.1,0.2,0.1,0.3,0.2,0.4c0,0,0.1,0,0.1,0.1c0.5,0.3,0.7,0.7,0.9,1.2c0.1,0.3,0.2,0.6,0.3,1c0.2,0.5,0.5,0.9,0.7,1.3
		c0.3,0.6,0.4,0.7,1.1,0.5c0.1-0.3,0.2-0.6,0.4-0.9c0,0,0.1,0,0.1,0c-0.1,0.2-0.2,0.5-0.2,0.7c-0.1,0.3-0.2,0.5-0.2,0.8
		c-0.1,0.8,0.1,1.6,0.5,2.4c0.5,0.9,1.1,1.5,2.1,1.7c0.5,0.1,0.9,0.1,1.2-0.3c0.1-0.2,0.3-0.3,0.6-0.3c0.2,0,0.5,0,0.7,0.1
		c-0.3,1,0.1,1.9,0.2,2.9c0.6,0.2,1.2,0.2,1.7-0.2c0.6-0.5,1.2-1,1.3-1.9c0-0.1,0-0.1,0.1-0.2c0.2-0.5,0.3-1,0.2-1.5
		c0,0,0,0,0.1-0.1c0.1,0.1,0.1,0.3,0.2,0.5c0.3-0.1,0.5-0.2,0.7-0.3c1-0.5,2-1,2.8-1.7c0.3-0.3,0.6-0.6,0.9-1
		c0.1-0.2,0.2-0.3,0.3-0.5c0.2-0.5,0.5-1,0.7-1.6c0.2-0.6,0.3-1.3,0.1-2c0-0.1,0-0.2,0-0.4c0-0.4-0.1-0.7-0.2-1.1
		c-0.5-0.9-1.1-1.6-1.7-2.3c-0.5-0.6-1-1.3-1.4-2c-0.1-0.1-0.1-0.2-0.2-0.4c-0.6-1.8-0.7-3.5-0.3-5.3c0.1-0.6,0.3-1.1,0.7-1.6
		c-0.5-0.2-0.9-0.5-1.3-0.7c0.1,0,0.3,0,0.4,0c0.2,0.1,0.4,0.2,0.5,0.3c0.2,0.1,0.4,0.2,0.5,0.1c0.6-0.3,1.2-0.4,1.8-0.5
		c0.2,0,0.5,0,0.7,0c0.2,0,0.4,0,0.5,0c-0.8-0.4-1.6-0.7-2.6-0.7C19.9,3.2,20,3.2,20,3.2C21,3.1,21.9,3.6,22.8,3.8z M11.7,26.2
		c-1.2,0.1-1.9-0.2-2.7-1c-0.2-0.2-0.4-0.6-0.5-0.9c-0.5-0.8-0.6-1.6-0.5-2.5c0-0.1,0-0.2,0-0.3c-0.1,0-0.1,0-0.2,0
		c-0.5,0.1-0.8-0.2-1-0.7c0-0.1-0.1-0.3-0.2-0.4c0,0.3,0,0.7,0.1,1c0.2,0.9,0.1,1.9,0.8,2.7c0,0,0,0.1,0.1,0.1
		c0.1,0.5,0.5,0.8,0.8,1.1c0.6,0.6,1.2,1.2,1.8,1.8c0.1,0.1,0.1,0.1,0.2,0.2c0.5,0.3,1.1,0.6,1.7,0.8c0.1,0,0.3,0,0.4,0.1
		C12.3,27.5,12,26.8,11.7,26.2z M12.3,26.5c0.3,0,0.5,0,0.7-0.1c0-0.3,0-0.5,0-0.8c-0.4-0.2-0.8-0.1-1,0.2c-0.1,0.2-0.1,0.3,0,0.4
		c0.1,0.1,0.2,0.3,0.3,0.4c0.2,0.4,0.3,0.7,0.4,1.1c0.3,0.6,0.5,1.2,0.9,1.7c0.1,0.1,0.1,0.4,0.2,0.5c0,0.3,0,0.7,0.1,1
		c0,0.1,0.1,0.3,0.2,0.3c0.4,0,0.7,0.1,1,0.3c0.1,0,0.2,0,0.3,0c0.4-0.1,0.7-0.2,1.1-0.2c0.4,0,0.8,0,1.3,0c-0.1,0-0.2-0.1-0.4-0.1
		c-0.6-0.1-1.2-0.3-1.9-0.4c-0.2-0.1-0.5-0.2-0.7-0.3c-0.1-0.1-0.2-0.2-0.2-0.3c0-0.4-0.3-0.7-0.5-0.9c-0.3-0.3-0.5-0.7-0.6-1.1
		c-0.1-0.3-0.1-0.6-0.1-0.9c0-0.3-0.1-0.6-0.2-0.8C12.7,26.6,12.5,26.7,12.3,26.5z M10.3,28.5c0.2,0.3,0.3,0.6,0.5,0.9
		c0.2,0.2,0.3,0.4,0.4,0.6c0.1,0.2,0.3,0.3,0.5,0.3c0.4,0,0.7-0.1,1.1-0.2c0.5,0,0.6-0.4,0.4-0.8c-0.2-0.3-0.3-0.5-0.5-0.8
		c0-0.1-0.1-0.2-0.2-0.2c-0.5-0.2-1-0.3-1.5-0.5C10.8,28.1,10.6,28.3,10.3,28.5z"/>
	<path class="st0" d="M22.8,3.8c-1-0.2-1.8-0.7-2.8-0.7c0,0-0.1,0-0.2,0.1c1,0,1.8,0.3,2.6,0.7c-0.2,0-0.4,0-0.5,0
		c-0.2,0-0.5,0-0.7,0c-0.6,0.1-1.3,0.2-1.8,0.5c-0.2,0.1-0.4,0-0.5-0.1c-0.2-0.1-0.3-0.2-0.5-0.3c-0.1-0.1-0.2-0.1-0.4,0
		c0.4,0.2,0.8,0.5,1.3,0.7c-0.4,0.5-0.6,1-0.7,1.6c-0.4,1.8-0.3,3.6,0.3,5.3c0,0.1,0.1,0.2,0.2,0.4c0.4,0.7,0.9,1.4,1.4,2
		c0.6,0.7,1.3,1.5,1.7,2.3c0.2,0.3,0.3,0.7,0.2,1.1c0,0.1,0,0.2,0,0.4c0.2,0.7,0.1,1.3-0.1,2c-0.1,0.6-0.4,1.1-0.7,1.6
		c-0.1,0.2-0.2,0.3-0.3,0.5c-0.2,0.4-0.5,0.7-0.9,1c-0.8,0.8-1.8,1.2-2.8,1.7c-0.2,0.1-0.5,0.2-0.7,0.3c-0.1-0.2-0.1-0.3-0.2-0.5
		c0,0-0.1,0.1-0.1,0.1c0.1,0.5,0.1,1-0.2,1.5c0,0.1-0.1,0.1-0.1,0.2c-0.2,0.8-0.7,1.4-1.3,1.9c-0.5,0.4-1.1,0.4-1.7,0.2
		c0-0.9-0.5-1.9-0.2-2.9c-0.2,0-0.5,0-0.7-0.1c-0.2,0-0.4,0.1-0.6,0.3c-0.3,0.4-0.8,0.4-1.2,0.3c-1-0.2-1.6-0.8-2.1-1.7
		c-0.4-0.8-0.6-1.5-0.5-2.4c0-0.3,0.1-0.5,0.2-0.8c0.1-0.2,0.2-0.5,0.2-0.7c0,0-0.1,0-0.1,0c-0.1,0.3-0.2,0.6-0.4,0.9
		c-0.7,0.1-0.9,0-1.1-0.5c-0.2-0.5-0.5-0.9-0.7-1.3c-0.1-0.3-0.2-0.6-0.3-1c-0.2-0.5-0.4-0.9-0.9-1.2c0,0-0.1,0-0.1-0.1
		c-0.2-0.1-0.3-0.2-0.2-0.4c0.1-0.2,0.2-0.3,0.5-0.3c0.2,0,0.4,0,0.5,0c0.3,0,0.5,0,0.8-0.1c0.2-0.1,0.5-0.2,0.8-0.2
		c1.1,0,2-0.3,2.9-0.8c0.5-0.3,1-0.5,1.4-0.8c0.2-0.1,0.4-0.1,0.6-0.1c0.4-0.1,0.8-0.1,1.2-0.2c0.3-0.1,0.7-0.3,1-0.4
		c0.9-0.5,1.3-1.3,1.3-2.4c0-0.2,0-0.4,0.1-0.6c0.1-0.8,0.1-1.7,0.1-2.5c0-1,0-2,0.1-3.1c0.1-0.7,0.2-1.3,0.4-2
		c0.1-0.3,0.3-0.6,0.4-0.9C17,2,17.2,1.7,17.3,1.4c0.4-0.7,1.1-1,1.9-1c0.9,0.1,1.6,0.4,2,1.3c0.2,0.4,0.5,0.7,0.8,1
		c0.2,0.2,0.4,0.3,0.6,0.5C22.8,3.3,22.9,3.5,22.8,3.8z M10.1,19c0,0,0,0.1,0.1,0.1c0.1-0.1,0.3-0.1,0.4-0.2
		c0.3-0.2,0.6-0.5,0.8-0.7c0.8-0.7,1.6-1.4,2.8-1.3c0.2,0,0.3,0,0.5-0.1c0,0,0-0.1,0-0.1c-0.3,0-0.6,0-0.9,0c-0.6,0-1.2,0.3-1.7,0.6
		C11.4,17.9,10.9,18.7,10.1,19z M19.4,1.6c-0.4-0.3-0.5-0.3-0.7-0.2C18.9,1.5,19.1,1.6,19.4,1.6z M21.2,2.5c0,0,0,0.1-0.1,0.1
		c0.1,0,0.2,0.1,0.3,0.1c0,0,0-0.1,0-0.1C21.4,2.6,21.3,2.6,21.2,2.5z"/>
	<path class="st0" d="M11.7,26.2c0.3,0.7,0.6,1.3,0.9,2c-0.2,0-0.3,0-0.4-0.1c-0.6-0.2-1.2-0.5-1.7-0.8c-0.1,0-0.1-0.1-0.2-0.2
		C9.6,26.5,9,26,8.4,25.4c-0.3-0.3-0.6-0.7-0.8-1.1c0,0,0-0.1-0.1-0.1c-0.6-0.8-0.6-1.8-0.8-2.7c-0.1-0.3-0.1-0.6-0.1-1
		c0.1,0.1,0.1,0.2,0.2,0.4c0.2,0.5,0.4,0.8,1,0.7c0,0,0.1,0,0.2,0c0,0.1,0,0.2,0,0.3c-0.1,0.9,0,1.7,0.5,2.5
		c0.2,0.3,0.3,0.6,0.5,0.9C9.8,26,10.5,26.2,11.7,26.2z"/>
	<path class="st0" d="M12.3,26.5c0.2,0.2,0.4,0.1,0.7,0.1c0.1,0.3,0.1,0.5,0.2,0.8c0,0.3,0,0.6,0.1,0.9c0.1,0.4,0.2,0.8,0.6,1.1
		c0.3,0.2,0.5,0.5,0.5,0.9c0,0.1,0.1,0.2,0.2,0.3c0.2,0.1,0.4,0.2,0.7,0.3c0.6,0.2,1.2,0.3,1.9,0.4c0.1,0,0.2,0.1,0.4,0.1
		c-0.4,0-0.8,0-1.3,0c-0.4,0-0.7,0.1-1.1,0.2c-0.1,0-0.2,0.1-0.3,0c-0.3-0.2-0.6-0.3-1-0.3c-0.1,0-0.2-0.2-0.2-0.3
		c0-0.3,0-0.7-0.1-1c0-0.2,0-0.4-0.2-0.5c-0.4-0.5-0.6-1.1-0.9-1.7c-0.2-0.4-0.3-0.7-0.4-1.1c-0.1-0.1-0.2-0.3-0.3-0.4
		c-0.1-0.2-0.1-0.3,0-0.4c0.3-0.3,0.6-0.4,1-0.2c0,0.2,0,0.5,0,0.8C12.8,26.5,12.6,26.5,12.3,26.5z"/>
	<path class="st0" d="M10.3,28.5c0.3-0.2,0.6-0.4,0.8-0.6c0.5,0.2,1,0.3,1.5,0.5c0.1,0,0.2,0.1,0.2,0.2c0.2,0.3,0.3,0.5,0.5,0.8
		c0.3,0.4,0.1,0.8-0.4,0.8c-0.4,0-0.7,0.2-1.1,0.2c-0.3,0-0.5-0.1-0.5-0.3c-0.1-0.2-0.2-0.4-0.4-0.6C10.5,29.2,10.4,28.8,10.3,28.5z
		"/>
	<path d="M10.1,19c0.8-0.3,1.3-1.1,2-1.6c0.5-0.4,1.1-0.6,1.7-0.6c0.3,0,0.6,0,0.9,0c0,0,0,0.1,0,0.1c-0.2,0-0.3,0.1-0.5,0.1
		c-1.2-0.1-2,0.5-2.8,1.3c-0.3,0.3-0.6,0.5-0.8,0.7c-0.1,0.1-0.3,0.1-0.4,0.2C10.2,19,10.1,19,10.1,19z"/>
	<path d="M19.4,1.6c-0.3-0.1-0.5-0.1-0.7-0.2C18.9,1.3,19.1,1.3,19.4,1.6z"/>
	<path d="M21.2,2.5c0.1,0.1,0.2,0.1,0.3,0.2c0,0,0,0.1,0,0.1c-0.1,0-0.2-0.1-0.3-0.1C21.2,2.6,21.2,2.6,21.2,2.5z"/>
</g>
</svg>
